<mxfile host="Electron" modified="2023-10-21T02:19:37.821Z" agent="Mozilla/5.0 (Windows NT 10.0; Win64; x64) AppleWebKit/537.36 (KHTML, like Gecko) draw.io/21.7.5 Chrome/114.0.5735.289 Electron/25.8.1 Safari/537.36" etag="WG9ntQg_vgAuWqK1UCxT" version="21.7.5" type="device">
  <diagram name="Page-1" id="HeG0sXWjzIea5jHolQdr">
    <mxGraphModel dx="2359" dy="880" grid="1" gridSize="10" guides="1" tooltips="1" connect="1" arrows="1" fold="1" page="1" pageScale="1" pageWidth="850" pageHeight="1100" math="1" shadow="0">
      <root>
        <mxCell id="0" />
        <mxCell id="1" parent="0" />
        <mxCell id="mW8nno3XSru1MuvR3pbH-10" value="" style="verticalLabelPosition=bottom;verticalAlign=top;html=1;shape=mxgraph.basic.half_circle;fillColor=#FFCC99;rotation=-180;strokeColor=none;gradientColor=none;gradientDirection=north;fillStyle=solid;" vertex="1" parent="1">
          <mxGeometry x="-216" y="117" width="1090" height="587" as="geometry" />
        </mxCell>
        <mxCell id="mW8nno3XSru1MuvR3pbH-6" value="" style="verticalLabelPosition=bottom;verticalAlign=top;html=1;shape=mxgraph.basic.pie;startAngle=0.5;endAngle=0.75;fillColor=#FFCC99;rotation=-90;allowArrows=0;fillStyle=solid;strokeColor=none;" vertex="1" parent="1">
          <mxGeometry x="470" y="501" width="400" height="406" as="geometry" />
        </mxCell>
        <mxCell id="mW8nno3XSru1MuvR3pbH-7" value="" style="verticalLabelPosition=bottom;verticalAlign=top;html=1;shape=mxgraph.basic.pie;startAngle=0;endAngle=0.5;fillColor=#FFCC99;rotation=-90;allowArrows=0;flipH=1;fillStyle=solid;strokeColor=none;" vertex="1" parent="1">
          <mxGeometry x="-216" y="504" width="400" height="400" as="geometry" />
        </mxCell>
        <mxCell id="mW8nno3XSru1MuvR3pbH-12" value="" style="verticalLabelPosition=bottom;verticalAlign=top;html=1;shape=mxgraph.basic.half_circle;rotation=-180;fillColor=default;strokeColor=none;" vertex="1" parent="1">
          <mxGeometry x="185" y="538" width="300" height="166" as="geometry" />
        </mxCell>
        <mxCell id="mW8nno3XSru1MuvR3pbH-14" value="" style="verticalLabelPosition=bottom;verticalAlign=top;html=1;shape=mxgraph.basic.pie;startAngle=0.647269702982376;endAngle=0.3951477628131259;fillColor=none;rotation=5;allowArrows=0;flipH=1;fillStyle=zigzag-line;dashed=1;dashPattern=12 12;" vertex="1" parent="1">
          <mxGeometry x="370" y="230" width="400" height="400" as="geometry" />
        </mxCell>
        <mxCell id="mW8nno3XSru1MuvR3pbH-38" value="" style="shape=xor;whiteSpace=wrap;html=1;fillStyle=solid;fillColor=#FFCC99;rotation=318;strokeColor=none;" vertex="1" parent="1">
          <mxGeometry x="547.84" y="584.93" width="250.89" height="269" as="geometry" />
        </mxCell>
        <mxCell id="mW8nno3XSru1MuvR3pbH-13" value="" style="shape=image;verticalLabelPosition=bottom;labelBackgroundColor=default;verticalAlign=top;aspect=fixed;imageAspect=0;image=data:image/png,iVBORw0KGgoAAAANSUhEUgAAAccAAAIlCAYAAACgmDOmAAEAAElEQVR4XuydBXgVV/f1bzyEBAIEhyDB3aW4Fncori0t1I22tG/dvcWKu7tLcXfXIA0EtxASJHq/384/4aMUiZwb3elzn4Zk5pw560xmzba1LRb9UgQUAUVAEVAEFAFFQBFQBBQBRUARUAQUAUVAEVAEFAFFQBFQBBQBRUARUAQUAUVAEVAEFAFFQBFQBBQBRUARUAQUAUVAEVAEFAFFQBFQBBQBRUARUAQUAUVAEVAEFAFFQBFQBBQBRUARUAQUAUVAEVAEFAFFQBFQBBQBRUARUAQUAUVAEVAEFAFFQBFQBBQBRUARUAQUAUVAEVAEFAFFQBFQBBQBRUARUAQUAUVAEVAEFAFFQBFQBBQBRUARUAQUAUVAEVAEFAFFQBFQBBQBRUARUAQUAUVAEVAEFAFFQBFQBBQBRUARUAQUAUVAEVAEFAFFQBFQBBQBRUARUAQUAUVAEVAEFAFFQBFQBBQBRUARUAQUAUVAEVAEFAFFQBFQBBQBRUARUAQUAUVAEVAEFAFFQBFQBBQBRUARUAQUAUVAEVAEFAFFQBFQBBQBRUARUAQUAUVAEUjuCNgl9wvU61MEFIGUg4DVanXgau35PPxsieTfEXZ2dtaUsxK90rSOgJJjWr8DdP2KQAIRiIiIcLt3716O69evl7l8+XKFGzduFLxz546nvb1wpCXcxcXlZt68eXfy2e7h4eHn5OQUqESZQND1dJsjoORoc4h1AkUgdSIAAWaGEKv6+fk18/X1rXLmzJns/Ns9MDDQ6f79+5GOjo52Dg4OVsgwwtPT817u3LkD8ufPf7pEiRILixYtutzNze1K6kRGV5UaEFByTA27qGtQBBIZAcgv66VLl2ovWLDgo+PHj+eBIMPTpUt3o0yZMpcLFy58PVu2bBfCw8OdnJ2dw2/fvp1548aN3gcOHMgBYbqWLVs2uE2bNjN8fHw2Ykke4XM7kS9fp1MEnomAkuMzIdIDFAFF4GEEILuCe/bs6TN37twXsBg9q1evfv65555bUrly5Wnu7u6XcaeGYTHeDw0NdcO6dOR7R4gz9NatW967d+9uPWvWrPZnz57N0rJlSz8+30KSqzknXFFWBJITAkqOyWk39FoUgWSOwN27d3MsXrz4Wz71+N7au3fvNUWKFFmZL1++zRDg5WddPudkP3XqVHWI9Y0jR44UJl55/YcffhhcsGDBtViVIc86X3+vCCgCioAioAgkKwRIusm6fv36wV27dvV76aWXTi5ZsuS3oKCgwiEhIS5xuVCOd8PibPTLL7+sb9269aWhQ4euI1ZZEUvTKS7j6LGKgC0RcLTl4Dq2IqAIpA4EiB+6Xrx4sRwWX1esP7tevXotqVOnzg+urq6PtRYp6bCTso7HuUvJXr0LEe6oWbPmNIjypQ0bNhQrWbJkX2KVM/n5XuKUwakDNV2FIqAIKAKKQKpG4ObNm6VGjBixpmHDhheJGU4kfliSkg3nhxeNi9QVsssqvyNBpykJOL3PnTvXQFyxkZGRUv/4ry+OzcLvG9euXftanz59rn/wwQd7jx071iJVA6mLSzEIqOWYYrZKL1QRSBoExGrcuXNnYz5Fse5uVK1adTI/u+Tl5RUac0VYfJmJIbZZt25d37179+Ykk5UkVA8LccTgAgUKnOvQocMwjlmFVRgYcw6JOsFYlsGQauTRo0ezQaaZcuXK9QpEfChz5sxnk2a1Oqsi8H8IKDnqnaAIKAJPRYCCfbv9+/c3uXr1qgvu1D1Zs2Y9To3izZiTxAI8ffp0yyFDhnyF5ZcLYrQEBARYMmbMaMG1mpUEnALUPuZs3769WJAjIcQoUpUEHGKNgTlz5ry1b9++bBxrv3z58nJYp2X5tZKjDe9L4sfpqD914MXEipv7jg2nSrFDKzmm2K3TC1cEEgcBLLkiJ0+ezJE+ffrgKlWqzCXO+KB4H7KzhwxL4Gp9b9WqVbmwDi08dC0U/Vv4nQVetXC+BdIrwtW+ws+v8vO5MbFIxgqEDA9AoPko+3AhUSf3pk2beqC0cyxHjhwnE2eFaWcWXkCcTpw40WzLli3P8cKSiRcbK9b+3mLFii3iJeVS2kHi2SuN0nfSL0VAEVAEnoSAv79/SSwNd9RtAvPkybNZ6hhjjhUxANypTf/++28fIUaRjBNSxCp8MJz8HOKzbN++vfDSpUtf5N+ZYn6Ja/VakyZNhlWsWPGikKocu2LFihqQcQPdEbMIhIWFeR48eHDAoUOH3mKPamTPnt2bF5CCJFr1xnJ/g/rVB/tiduaUOZqSY8rcN71qRSBREMDt5kyCTU6Iy4l44D0p7n94YkjPC4WcOlggrhxrodYxiiAh0yirUYhSvrAQLdeuXXOC9HJS/pEzZgyOD4Fw95K5ejhLlixhxDItWJE5ceN2uHLlSrFEWWQamISXGNmnLigVdcbdHYaE3wJEG75EvOF72Vss9nrgXTsNQBHrJSo5xhoqPVARSHsIiPuTbNNMxKXsIa8HCTgxSGDppcOtmlFIUb7k/2I1cs4DcoRQLRkyZIgiTcjUGQvF42Ek+f2datWqTSxdurSfnAsZWzZv3lwWa6YNhKu1jwm87aSshj2qimu7Py8fbpTNjCbhaTkvNLfYk0v83oIbOycvLxUk7pvA6VLN6QpEqtlKXYgiYBsEsDpc+fAc/b82Gw9/kX16E0vkhhCaWIm47ixiQfJzScaxCDHKaWIRyveQbDgE+C+pOCzMSBR2trdo0WIJrts74lrF9efFw7wDLt3ytllV2hlVuqWA5SDc37mpTd2EB2ANGN/Aur8jmcKCBAlUnufPn6/Av//vLUe/ovqu6ZcioAgoAk9CwIpL9DbkaKWu0fXRg9BSvVa8ePF14m4V8uO4KJIUC1LIUSxB+b+QJ9ZjBDqqAZBpwKPjQJDXy5cvP5uaxzNyLq5XCzqsRdBwbQuxxkmBR7fy/yMgbnGxwEnAKUHSjZUY4wX2w5mXlBCSo+5EJ0y5YjWmA3MPeVFR/P4PASVHvRMUAUXgiQhI30XJGiUsdY8HaHosw4xYHQ80mSGyIHRR11eoUMFXrEX5EpIU61G+5OErH7EGvb29r1IjKRqsNx6dUGKPmTJlOtWoUaMZJIrclvOJgXmQQFKfbNdCukXxQ4D9cqfutC4vNl50QwnhZUYswyy88ESyX5G4uKtduHAhM+5uBwgzUgXg/z/OWsoRv3tOz1IE0gwCuDoPUsZxmzrHbDxkq0GUG1j8A+uPEoADFPmPJdnmTVx4BcXqo0wgps4xiixJugki6WZvrVq1RvMQ/g85CphYnLdq1KgxAqLtABGXl6QesR4RB2jFQ/6MEHSaAd3QQiX5iSzh3PKCglXvLEpHxBedwPoq5OjM9+3Y00xCllj2d/m5WOkPspENXUaKHEbJMUVum160IpB4COAGPYv1eAmptwJkNbarVKnSvofJEaWcACyQ6R999FHEsmXLXsDaKwQ5ZsAStGKJhPD7a02bNt1MPeMQVHPOPOnKERaAA8MiOnfuvAQi9tm6dWuGHTt2eNIBpItktHLeysRbdcqfSaxBXiyqIczgSbLTHVzUocj6ZeelIyOrCwFvZ5SJfNgvV5pP3+El5yz7BT9GRiVBYfNb+V+EnX3U/9Pcl5JjmttyXbAiEGcEwiHENWfOnClDFmllHrRZiANeJJ74wMLA6riGlTKKxJq11M1VJcGjIA9hT8jwMoo6R4Tc+Pg/a2ZhR8bYQvyxPZZoCVyrUtoh/SM7YfnswMK59awx9Pf/hwDk6AEZVsHqd8Fd7YfVPgmX9TJijjclDgzUWaZNmzaZ/fJib4JpUH0W93cuLMn8vNwUdnJ0DrW3dwm8fvXmUa9smY+mNVyVHNPajut6FYE4IoA78z6W4TwSO5qvWbOmVP369ZtRtH+aYR7opMqQEKGQ5TH5QIz20ugYz10YxBlrywNr5h5lIAepv1soGq24aTNByulxDT7XoEEDiT3ujuPlp9nDIT8XiK8AbuwI6hp3kgw1m/3wx8UalS0MEd4H66gkZDRzb5HFehrPwOurV6+uj8XpFXjrtoN33kLBZcqUPhR4K+itjJ4e/6QlMJUc09Ju61oVgXgiAPH54RYdtW3btl8nTpzYFxfcLpJmVhNP/L/Mm0e+SLCRrMf/1EXGZnoI8hLEOuKff/6pitRZfdFphRyLzJw58zMs1k5YrBp7jAWQ1DE6BAcHu1CfGoL1fpT9cgDLqCRMiNMVq7IW1rkne3mjTJkyO3CbF6FHZz32NF316tUDTp487b5x/ba8O3bsyhoZaf0q+Pbdd9wzuF2NxdSp4hDNVk0V26iLUARsi4BkrWJ5bCBh5gwP0dz0YHwHN2cOW80KAQbiWp1TqlSpm2LZkKBjT6PlUhSza91jLEGH5O4R971FzDeEl5U7WJC3sOIjIUl76aKCCtEAER9nT/fgbh2HK/Vi3rx59+GC/b1NmzavvDpw4Ccvv/zyYa+sWSyUgpS6fj0gfyynThWHKTmmim3URSgCtkeAeN91lGzmEJu6gwxZGSkux5KzSdE4D/LbRYoUWUHpx3FpfSWlIBSx58fl9zrW0AP5OduvOuXOwH4FQ3rnJRMV/MQlnUWsQizKnLiqu2CNlyLWeI09/RFrfR+YL0ZS7g1egkYTp9yaM1fO5VWqVlyQJUvmkFuBtxxj7RtPuZD968qVHFPJRuoyFAFbIyCC4yTjzCH2t5+kjYx0z3iVh+2/1G5MXgM1eedQdJlIfPMq30d19yBztQaWayWT86TWsSDGsNy5cx8Q1zfJUhV5kWnCWotjhbc4e/Zsfdyt1xo3bjwEMtyInNxtZOVuEnsMBGvJZA1nv+/cux/iTvKOtWiRooEZPNKOS1XuCSXH1PqXoetSBGyAAO65S2SuzuJBemvBggXlIawyknhjg6lEPEASSRbVq1dvHzEz6TtogRjz0gHkDVyA3raYM7WNSaPptRBfIPyWHndqZfaqEcTYnP9HgOuntCAb/3DW8cPrlybXQbeDc7q5pQ+uWq3aTnf39NdSGz5PW4+SY1rabV2rIpBABISwqHncTCzwOASVhVrE94k92kzBBjK+gijArHLlyp0XBR6yZiU5pyz1eY0TuJQ0cTo1qufBbg0qOGH0bayMO7wjJHkPKbk/qG1cIio5TwLi+vUbJXC/FuRF6FyZ0iXnuqRzTlNNkZUc08SfiC5SETCHADHAf9BTnVeoUKFb9F6siW5qMbIf3czN8P9HkkQg5Ok2EHs8iAUU1QqLuseslJT0wPrJaos5U9OY7NV9YorfkpE6EQtxDwk4+6kjHQ0xrgfPJ4YRwTk74u8DwxGSJw45J3eenHtSEy66FkVAEVAEbIIASTH5if+Nox4xkELyJRTrl7LJRAwq4tmouHR/4403/sFNaOXhbuWBf5WavPq2mjM1jotr1SE2XTdwlRfAI/D76NFj9x49dPLToNv3yqRGPJ61JrUcn4WQ/l4RUAT+gwAJG/7EHkdjPQbyIK1Cu6P6UnRuC6hIKAmFFDc8//zzSylUl1IEC/NlpQ3TW7hZc9liztQ4prjEpbzjaWvDGs9JfelA4pKNy5cvF1SgYP6LbulcXe7eCcmeGjF52pqUHNPajut6FQEDCJDJGEH93BGyHXejwiLdMzpAWhkMDP3YIcigPE9XiVnEOi9AzFE9IilYr0pM7DlUXhxsNW9aGpdyj0xY4y/htm5O+Ue24sWKuaKrWivgVlA9P78LXU+f9K+alvCwSZZZWgJQ16oIpFUEiGEFodc5nASZCtQfFkdVpSGxqhUk0fynX2NCMZLYI4k/x+rWrbuPZJy8JJhYKGLPtmjRojf79u0rknVHEjqHLc7HlRllgES7NJ0R9XYU4W+IyIVsUGdeKByl1IJYYCjZuPekvlOOkXMgKMHRKmu3xbU9PCbXYn/8+PE2kydP7kYMORceAafg4LuFrZFOOfl3nfv3790lscfrwvmrJ3LnyXbL1teTHMZXckwOu6DXoAikQATkoY3VdqR58+ZLf//991505HirV69eh1iKcXIUeMisDCDWOJJOHeVwp3pLY+XZs2cjpFO+NWRzht/HW1YOwnJn3BbUAGYl2ehvycaNzZZAetLb0g5CcxZxAhFbp8g+I+7JbOLypewkB//PBk6e0rRZyBLLF06McObfjiLpJvNIk2F+FyEtMSDLMEhSFG1uo3Djv2vXrktYzldRt7lIgs1Vzr8izaVNkiYvOpG84Nznei5yXSFYkI4HDx6y3r8XbmHuUB+fwpeyZM68M60Qo+yJkmNs/gL0GEVAEXgsAjxUr0jmKoX6z2PJFaFovyGkdRarJ8g0ZNKIF6I5ioW6g5ijkI8rYgTpKVFox/zzmU8syDh/cb1OxNmqIU/3llhQFMKfZ5CnkiNk7E5hfe7Tp0/7UNJSiO/zQYrZ+D4f1+TBx5kkJQfpawlhRkgrqJgGw+B1T0oosBal4bAVQrITDVTOcaJVlxNjO0B8zoznJOUrZJVGUOcZijLRbU9PT3/Ua05R4H8AbdTzENc1PpcZ+3acF/7ICWjnTkd7dTF4ZAkLC8+YPn26uxHhVnsHxB8iIu2Ds2XPlKbqHJUcE3pH6fmKQBpGQB7yEIMvqjkLv/7661dwsXahDnILkOyyBSwQwwVKC0YjmJ2fRsiVhTyYs7C/v38lLK/j8bGmINqyaIf2YJySEOMFyOZf3UZkHeLqJOHIQ0gRAnUjzpqXNlr96VRSEivLCWKLkGJ6JO8C+Jz29va+S33mJYjND0I7Ja5mfi/WXiTf35OYrRiJYklGX7OVf9sztpMU32NpZoeoimCB5oIkvXgRyEppRUZ6MxZm7tJg3AyBhBCI9iqfxcy/hXFvgcctrMq78cFB1omlGsz/5JPmv5Qc0/wtoAAoAglDAFefPw/xP3hYN1u6dCn8Urgp1pDIlsWrK8fTrkZcjhDUjrZt2/5CtupfCJF78skwfPjwD7CmJO4oTZFj/QXpZF+4cGH7sWPHtoDk3CG0cNyZd2MGEBcprtYSO3furMVLQIG1a9eKfF06LDxHCCqE46/2799/HWteRMH9RYkbYhGGRGeGJmj9EOcqruOB2xb3tTsE7SwdNVhzRdzAvSnq9x4/fvwgCDicl4YgMoj3UuA/mWv1j3G/xhoMPfBfCCg56g2hCCgCCUYAayeiS5cuUyCpt+kF2AJVlSVxJarYXgTW0W1clofbt2+/748//qgnjXuxIovR/7EzbswLkNSV2IxFPV9mylDa//nnnz2x0jIT07NAvo5YcG6MUwAC8oE4X4A0q5CNm13igU2bNj2NW3cfxLiXspIdENANCPEGFu3N2MwZl2NiLMrocySe+iCmCjlfb9269d5mzZqJC7ccLu3OJNTknj9/fkMs1Fok1NxAOGE5xy0Bj3PSkSMuc+uxGnPUe0ARUAQMIMAD+AJW2Aysxw6QVEEsmIa2Ike5XCylf0Q0e9asWaUvX77sBdE5HD58mNq88gv49TPJkbhaBlyijf766683cVPmglBEbMBC7C8jLttOZMNmx0osi3vTlZZOxyH+Nbgcz1JvuQNL+YokxmAhJpmcGvFHcf1GuX8lixeiXkeyUlmwqI/rtSJEmZ196E/XjU6tWrWajiU5W/pkPqvO0cCtkGqGUMsx1WylLkQRSFoEsE5uEnucvHnz5sG4IVvy0B5Doohxi0pWKa5PEl02NWnS5CDlHHVwdTqQGVoS8noDN+hVElhOPQkNifURX2yFlfsxcbwiWGhRdZPyodNIDlpxdUay7iplI3twl64nhrgRYjzNeFYIMd4ZsbbaHTC+z9h+8mFtK6gHzYnVW5W1dWUfvD/66KMBvKwISS7HTTwES/ueiQQeW60nuYyr5JhcdkKvQxFI4QhAWAG4IxfTLLcT8bCCJKx052E9XLJMbbE0xg164YUXfsfKK4hbND+Zo46UkzSCIHdhBQ55XMxTkl24rnY//fTTF1iIBaVPJD+ziOUoXT+o6ZOPS/78+S/hQv2TOOY2yNMm128jTEKEJCVjmDWsxAXsQx/M/iQc1R46dGhvLMnW7dq1W4ordiKuYMkqfhBftcX1pOQxVSEnJe+eXrsikMwQENcdwgBTSBpxwpLrTRbpc7a6RMgsBHfiIco4jtCb0CqZq5Q3ZMZd2gY34r9k5bgeOymzoGaw92+//fatdJvAiopypWINSjaquCctHGfBNem6atWqclOnTv0VwYHuuFZzclyKelZCelY+tyDDPejf/q9z586/derU6RBE7zZ9+vRufKbghn6DNat4+xNuULUcbfWXq+MqAmkQAYgmmPjfWoroe5IkUxQXX3fcn0coM7hhCziwfi6TpTkbIi6LOzUP7kQL9YrFiRNKos6EmJIGrMMsZHa+Bin0JAknm7hSJZFHpOjk/0KSYkEKSZLsYyGRJQO1j2VZy2DWUJUmz8O5fhE4SHFfEh/lZWEcjY+XUWLSc8OGDS2IR3oTmxzQsmXL0sSKP+WYM/Et/0hxgMTygpUcYwmUHqYIKAKxQwAivPzSSy8NHjhw4BSIqC5JOtU4c2nszo7bUVI7yMN9La7CJSSh9ON7JzI3s+BG7EVbplWQ3nVciEVGjhz53bx58xoiqO0iRCgWorhRhRhjLEiIUXpVBkMg9+R7iPc+ZH8ZgqRS5U6Kdj9CfuIaPs96fyCeOpWM4ldlb2hYXR28pvMysYSXmKHsnU1ixHHb1eRxtJJj8tgHvQpFINUgIA9YyGUzneZPkfhSCqLqCiH9bYu6RwGN+S6RmPPnnDlzGhN3LChxQxJryuNufZOs1sPIovWcMGFCLdylzlKuIVYjiTbBtL66wb+lOD8YIrwu2ack8lyEIP0ZNkTk6uiDeBT35AWOvZUaNkjqL1nHWUjyI+ohi4HNj5BkqSlTpvTGYi5Mtu4gRBAupYa1JnQNSo4JRVDPVwQUgf8gQCzLFXKciPvuKxJgylOTmJuD/rEFVJBaOA97X6TrjhBXzCPSbcTTMlDm8RKkd4cYZDrcpyKSHogFFUSc8gbF+3uxoPaiYHMWCzIQkhQJtkQT+rYFDnEZM5okj2AVDyRe+ykEWZrSlSq8xPxBnPiXvHnz7ojLeKnxWCXH1LiruiZFIIkRgIxukUG6gdq7Y8S4SqFmMwgCe1Xk02xxaRIvhIB/PHHiRAke7j7iKsWN6unj4+NSu3btfZRjbMJa3E194Fmsw7Nc33WuI1E6XthivabGlJcDXmTeJq6aFxH3n4nJVqPu82cSlj4jmWcr1rOUieiXIqAIKAKKgCkEpGMFSR/t+vXr9w9F9EeJ99ksc1WuGUL0xD04lfjjPcoYrMQOrYMHD/6HbNP80jLK1LpS6zgk7eSYOHHiHOTwjr3zzju7Kcd5U7qMpNb1PmtdKSo9+VmL0d8rAopA8kFAsh/JkNyDO3MrCS2ZyBZ9mf/brKM85Hgf2bplWIhR7ltJtsEC8iLu+WLyQSX5Xgku58sIBbyFBb6AvbMnA7gvLvH38AB4J9+rtt2VKTnaDlsdWRFI8wiQ3OFfv379odJuiRKLmiR9lLUVKMQN79OhYjmZl4v5f3B0xw533IUtpN+ireZNTeOiBHSel5kfe/To8TOx2zsiyo6u7BvSHSQ1rTM2a1FyjA1KeowioAjECwHpY0hyx05Uc3ZRh5iFpI83KaNIH6/BYnGSyNVVqVJlBnWJIvcWVdhPskmhlStXvivqOLEYIs0fQjw2oEyZMrMGDBjwCZq5N3BVd0DQfDQEKUlVaeZLyTHNbLUuVBFIGgQkM5JC/elYc4G46cqSSdqeB63NiArJt4M1a9ZcKeUaWKzSbDj9kiVL2pOZWShpEEh5s4rkH9m8m2gN9iPlLFdwiRdHXehtymFKpLzVxO+KlRzjh5uepQgoAnFAgPKJ7YgBHIKgMq5Zs6Y31klYHE6P06FCxrRrmk4G5gmxHCnvkNijaL12QlQ8TVk/cQLukYOleTPZvqvatGnzK/HI8zNnzmyNmLlN48YJuV7T5yo5mkZUx1MEFIH/IIC78wZF+RMosL+CFVcEF2tpauqkka9NvoidneGhPhWL9RqWo2iuZqB7RzfKPGrZZMJUOqh0/EBpaO7bb7/dj+8vQ5BNcVO/iYs6XSpd8oNlKTmm9h3W9SkCyQQBumVsfv755+eTOOMyevToX5B6K2CrSyNTNQirZz1dKU4R87SQXGJBMq0gMc++aeHBbhJXhBTC2bMzlHh8gTUuBNmeDOCBJDklWZ08LzxuyAU22rZtWytespxMrjdmLCVHW6CqYyoCisB/EBCRcEot5mPNnYWkCuPqrEENorstoEL1xop03BkSS5bQAFkK/kVM3MJDvZh0CrGl1WqL9ST1mJBjBBJ6W8lkHY71H7RixYoexI5foOWXzWLHT1ozJTsO9O+syzV8gvzdADKgbfKSpeSY1Hedzq8IpCEEvLy8ROZtAm/+jjRF7oUVl9lWy6eUIxCX4DJKO/YxryTmWOjhmBe3YC+sHptlzNpqPUk9LnHiu4grrGrdurX00HRE9egNuqBUSuzrIo5cgJer99jHoiR2ufPJZotrUHK0Bao6piKgCDwWARH4Rtd0frNmzfyQlSuO9dHMllBBikepsxxBT8PzMc2McQvWR6C8PhaIiy3nTo1jY43frFSp0lQIchEtvbKA5c9YcdJ1JVG+sPjTMecvixcvLsF9dKFDhw7jpaenLSZXcrQFqjqmIqAIPBEBygSCIKyZkJXTsmXLeuJatVnDXekEgjtwM9bjYTRVo1pVkXGZW9R6kEsrqNsUdwRE+Yj9+xPd3J24xvOxh9/QCcXmKjrnz58vRjLXbxBjZfY0sEWLFr8TA53JC1dg3Ffx7DOUHJ+NkR6hCCgCBhHAPXeb5Jz1xAPP00swH2LhTXCv2syKg4Rv0Hx5CS7Wa6KaI+5VXHIVcLHWJWaW6rMuDW7dg6HYw6vEH/+i65UfLxvF+HTjZSOLLeaSMUUbl4SqXij2NKWLSEjnzp0nU4f5t7QZs9WcSo62QlbHVQQUgScigHvuLK7OmVghTlgDr6HfWdhWcEknELpyrKI7xx7mlf6PFkg5x6pVq3rwQM9rq3lT87jUQEZive3EPf61uFopk+lNuUwTW6wZYrQ/evRoSxoztyW+aN+pU6cF7OX3EPRlW8wXM6aSoy3R1bEVAUXgsQhAULcgrKXNmzc/gMB1AazHRhTr2yw5Bxm0U1g6I+vWrXsKvVcLZGwhqaMoD92GWJKJnnGZGm4LCPI+KkTLUdH5E7eqA9mjb+NmrW9ybcQYXXx9fZv88MMPnyPgkB5R9L/Zxz944Qk3Oc/jxlJytDXCOr4ioAg8FgFiRWcaNGjwI27P8N27d3dHGKCCraCSOBkyaHuJU82mh+E9slUtPNAzr1u3rhvkmMdW86b2ccUqJ+43vWHDhnshxjyIy38ghGZi3ZLRTC1jyxkzZnxJTWwWkm/Wkek8BLUePxPjP2sMJcdnIaS/VwQUAZsgQO3cXSntwEV2gmLu3NQf1iBhxs0mkzEoFuMFrNVlxMn+EXKUL6TsipF1+RyxR5vNa6v1JJdxifsFlytXbiwx3bN08CjIPtaDzDIk9PrIgi2Hu/YdNF1zQL6HSQIagm7uvoSOG9vzlRxji5QepwgoAsYRQObtLBbB98SSQiEq0T4tZXyS6AHJko0gY/UocbIlpP/fE91VHuaZ6djRH6u1qK3mTQvjkhyzoXHjxt/iBbg/duzYr0mwSrCGLZZoBVyqGdDJPYXr9guIcXdiYqnkmJho61yKgCLwHwTIXN2FZXCa+F9uxMF7QFqZbAWTtLSiBGF6vXr1fCHLqOQc6i1L4b5rzLwZbTVvah8X6/G+t7f3JuQBpxM/zrpp06aPcFsnKNmJhJ8djDeJzNSPIca97Jc1MXFUckxMtHUuRUAR+A8CQlhkrk4laSYE6/F52iLZrCGyTE7M8RSu3OU8fG/zULfgVs2IWk9n3IGVdXvijwBu65vIA04jBulHLLc6ll8zMk3jLS5PF5cDtB77haSfLST/hMb/yuJ3ppJj/HDTsxQBRcAgAlgd20i22Ltz504vLMgmxAA9DA7/r6EkRoa+6yyyHo9K7FHqHsmYLbZ37942Uk9nq3nTwri4rc/SDeUb1IeCli5d2o8M5ASV6OTJkyciqXBTckwq5HVeRUAReIAAGYjHKbP4gYSZu2Q8dsQ119SW8BDrPIXLbmzp0qUDUNER69GVOrrnmfd5W86b2scW1yeJORvJCl519uzZLFu2bHkntl1QeEnx5GUl2bycKDmm9rtV16cIpAAEKOuIoKjbj4zEXSjXeBEDbGtLWTmUcoKwVrcjK3dQyFHcq6i8FNi3b19bU6UIKQB2m1yi1D8SR16DAtJl3OTVqCkt9jTSI9brxstJ/SNHjvRgz/PZ5KLiMaiSYzxA01MUAUXAPAJYj/6Q47eQ023qHqvR+cGmgtbEyPzbtWv3E67Aa1g3FlofOZAQVJ3WVjaNeZpHLvmNmDt37u3EHqdiiacn47QV7tUntpUiQ7kseqk/jBs37jVejGpCkPGOU5pEQsnRJJo6liKgCMQbATJHI8hKPNK0adOD1LhlQt7tLR6UNmlHJBeJpRpIzeNKXIAHpaWV6K6SmFOETMuXb968mT/eC9ETLSRXBYHtEhKffGfNmtWdLijSlPg/4gAk7VSlyP9X4pOFcMeeh1T3si+JmpX6pO1SctQbWRFQBJINArjk7jZp0uQnYoK3iT2Wwb1q09gjD2wHEkhG8GC+LGUdPKydaKDbWGKeFLKrKHkC7gxedM6B7Y/S+xHd1RaiRBQcHOwYMyS1pfmI836NCHwx2mD5denS5YNs2bIdTsCURk9VcjQKpw6mCCgCCUUA62EPafzHqJPzIIO0qy0zSCHjEArYNxUvXvwkij0WyFJEyfMQ/2rLvDazWhOKUUo5n9jjXvounqSjRj4SdFpTtuOKC9sB0Qcv2oYNoMa0BLHfS4iJ/0aJTbIhRsFXyTGl3GV6nYpAGkFAkmWobxsDQZ4lBliEmFULHqjOtlq+1FlS1rGU+S5jsVp4iFuQsytBl/syWDvJJnvSVuu35biyly1btvwDLO8g9N6dEp2CYFqA0pkPpk+f3gmloisdO3YcRn3kLEnkseW16NiKgCKgCKR4BIg1elFI/h4WxYVffvllPS5OmzbTlZZZPKxnUWsZDkFaiZdZf/zxxzVYONlTPJhJvAD2Msvs2bOHde3a9SJSfatxpa6AMM/hRj1IAk5tW+rpJmTpajkmBD09VxFQBGyCAEkZ1ykFWODj43MFF2dRaVtEOYDNnlfEG/2Je01EjeWS9HwkIUdEyUsSK6sq3SFsssg0Mih7eaN69eoTc+TIEULiTWUyU6vSsDisT58+0wsVKrSJMpq7yREKm91syXGxek2KgCKQchAgBnUa0ellkJMTnRnEJWezfo+4Vu8jJ7epYsWKu1FliZTMVaya7MTFXmT+ZFN7l3J2799XSvbqDeKPgWQCZyARJ6RVq1aLKdv5XVqJJdc1KTkm153R61IE0jgC8uDE4pgKWflLiQUWZHusR5tZcYgB3EGlZyzxr9M8zC24Ay3Lly+vRuZqAxJ1bDZvWthmCLEghf7uWOXXevbsOY8Y7whijPeS89qVHJPz7ui1KQJpHAFS+49DkIuJ/TkQt3oZzc4stoIEcoygpGMlyUDrKUO4J6o51OdlpcN9HwQCitlq3rQwLnWrPijh3O7bt+9qGlz/ivDCieS+biXH5L5Den2KQBpGQKxHYo9LUVs5hwWXn0+noKAgm7WWQhs0jNKDhVWqVDmJq9VCOYkFIfTCKPZ0VOsx/jci1viS1q1bj6Bd2Peiaxv/kfRMRUARUARSIAJIr3lT9F0BUvEmAzQPn/QJXQak5Ix782MsjsBff/11N5mrhRI65tPOFyWXZcuWfUVMLJC4p7VUqVLW/v3778VqtRkp23I9Onb8EFA/evxw07MUAUXgEQRwnWUmVb8PNWwtKaTPJF3hIbRx8+bN+wMN0/D4Aoa7M5Q6uYV00WhJgkzhRo0aNYSorjP+rfiO+bTzmC8Egl+AjF09/l8DXVCpeyyKnN27lB18n1yzK22BRVoeU92qaXn3de2KgEEEiA9aKYU4j4B4VgjFW7I+qRs8kRBijLk8LDg/kjjG4PaMpP7xFUotShi89P8MJbFOOnZMZz0BzGmRWjysyVY0YrbpvLZcU2KNTVaxHTFiD8kyTqw5bTGPkqMtUNUxFYE0iACWXCCJFjelDALLzkpvxtPUKZ40AQVjB5Ms8zfj+aO5WozMx5Zkrtrs4Yt1eAdJuVXEO08yd1RLK3oTFiL+2BhizmFiTalxDIjRBX3a+pRsDMSlXiQlr1HJMSXvnl67IpCMEICsXIg5liJt353+jHfKly+/C53Uq6YukTKA87g6JzHePQrJO0BSpUyN/bhxmO80Ltw5EOQN1mbBtZt+0aJFPRAkqGfLeVPq2IiKu/j7+5ebNGnSt7ig2+KSfmKbqpSwRiXHlLBLeo2KQApAgFT9rJQ+1Ll69Zq7l1dWaSZ8ApIMMHXpuDcjyCSdTy3iLiyTHHTsaENyTi5T4z86DpmykRD8fEo7DrC2qJZWxB59Tp06VQ+Xoc0ECWy1HluOi/atHTHn2iNGjPiDLht5nnvuuVWIKuy35Zy2HlvJ0dYI6/iKQBpAIDL8rp01ItT9wNFTea8E3HPOV7jMdc+suS6YXjrW3NnKlSrNzp0jR/CKZcteuBsc6GN6jofHg9wvUWc5k4f9RQhRSjucSDiqjcswRVtFpjEjFlsSub03cDvnwto+KOINxG3Pm54nMcdTckxMtHUuRSCVIhAZfj/jneDAfGfOXfC8fT8iskCRsv4ZsmT1t8Vy8+TLt+H55xvvOHhgX46jh/Z3C751Lb8t5pExJfZIS6utZN0eimlpdfDgwcJYrn2lVMVW86akcbEYy0ycOHHojh07yiL3d5pC//dxpyf7Iv9nYazk+CyE9PeKgCIQCwTsXHxPnmoUcDPAM10613tFihTYnzFDuuuxODHOh+TNndu3Tt26v9Pu6NaC+QubXLl6tWKcB4nDCQhnX6TWcSEW0WUSTiwigD5u3LhWqOaU5N9p+hlKVnJOFITeR1C8JG7US7169fooZ86cyaovYxy2+l+HpumNjS9oep4ioAj8fwSsYRddrHYWh6NHjlS6fuOGs5dXlnve+XKc8HC0t1l/vpy5cx2uWKniLpJjMh05dLhDyP17XrbaE1yrN7EeN9SuXXunu7u7hTIFy6FDh/KgmtMFcrCpW9dWazIx7o0bN3LTo/Ed4rA1KLO51KxZs0mU7+wzMXZyGEPJMTnsgl6DIpCSEYiMdLNaLU7Em3Ig7WYhEedmNq9MF+OzJKvVasfHPiQ8Iv298HDXJ43h5uZ+vfpzz010z+AeuGnjxlrnzp5tJOfGZ87YnEOs05dkoCmUk1ym5tEi8UcECeqeP3++Mmt+4nXGZuyUeAwJOC68HPQka7gN34d26NDhVzqaTEVMPCQlrudx16wKOallJ3UdikASIRB5555XcGi49wlfXy8HeztLyRIljlLveCYulxNyL8j96vUbxTasX9vk+q3bhbNly34hV+7cmwPv3t+d0c31seUgRYoW3disabMdc+bMabZl65aX8+bLv5o5r8Vl3tgeS6ZsOIS4gSa9eyghaUz2qhN1j/kgzF5YS3sZ53hsx0rpx2E5e9IlpfusWbN6IrVnR0PqOYglrESL9lZKX9vD16/kmJp2U9eiCCQyAtaQ8053bgbmOHLUtzP1jZly5CwQ7FOo0D53j/SxJqm7wbfS7929s8++vQc7rt+4scC5S1eyembK4pg7T95uXbp2HR1htX7nYGcX8ejSnJ3T3f7n5LFhu3btrrBjx84SFSpV6QhpTeQhfccWMDDuNfRW/6LI3Yd6zmKs14JaT7lixYo1ob3VOWKTybJpr2ksKGWpPH369Bd5YXB+4YUX5oDJL2BjrGTH9PXGdzx1q8YXOT1PEVAELBYHJ8f7ERa3I0ePVQ0LDbPkypXzdubMnhcc7S2x0lK9FnzP9fzZsxWOHD7SxMnZOaRN2zbrBw4YsLxggQK3qJfzXr9+Y5v7oeGeT4I6S9asR6l7XIdb1eXY0aNtsO5y2mpbpEMI3ez3UaawkqSTYFHNocdkNhR7OlFvmWZKO3Ar2+NmDqhXr94acTWnRmKUe0gtR1v9Jem4ikDaQMDlfmhoZjJVs0VGWi05c+QKxGqULNX/WHoPw3Hh0kWvuxH2HjcDboWf9fPLnDtX7tllK1bemTV7Dn+rxc4hR85cP547f+El//Pns128dLkc5655HJwZPL2uXrt07qfR4yfVOXT4cGEK9gvi6juDeHikLeBHN/YCluNcpPHqXLx4sRwqMBbE1ouQjFKRLNZjov1qi3mT05i0n9qaLl26d9G7vU15yz/J6dpMXotajibR1LEUgTSGgPV+mMdVv3PVTx4/kfn+/RBLmbKljufMkeXMkzJjIiND7C9fvlR08+Ztg69cut4ko0fGkOIlSixu2rr9hFx5vI86OTkHOTk63iaOt4MM0VsWkmyIcT1VjSZj5syXPvnfJ6OWLF6chezJQViPeW25DViPvv369RtN5uodLCgLkmlZaKn1EvJypW05b3IZG2IMgiD3Yj2fwpX81Jeg5HLN8bkOJcf4oKbnKAKKALwVYR96P9TT/9z50oGBt508PDJYaGQb4ers5BBptboHRUS63QsPSxcRGeYUHno3/f07N7JfuXy58rZtWz84dep0TScnezs3V8fbeQsU/pe1JTqmfOyoIbTmyJkzIG/ePDufBrezi/vtYkWLLStRosRNygrK7du3rzfnO9hqiyCEK+XKlZuPas4ZESWXrh1kbpagEXMjiNndVvPquImLgJJj4uKtsykCqQaB8NBQ9+DrN33+Of1Prvv3QiwZM2QMt1ojs4SHhRcJDL5TOjAouGR4eFjWyIgwz7t3gwudP+vXfNP6DZ8vW7qilbOTI67T7PsyuDr/pxbSzt7e7py/fyViWfcqVqi4PYN7+kvPAi1rtmynULHZCkG579y5sxXEalPtU6ynq9T2bc6ePXswsUjLnj17MkPMHa5fv17sWdeakn5PdxV3Yowez7LeU9KaYnutGnOMLVJ6nCKgCPwLgUsXL+aYNW7cgDXrN7mQuXnT9V5IxMxZs/Js37X77dDQexa39OkjnSJDQu8HBbgE3QrIEHDlssfFKzcyRNg5W5u2aL7fw93tsfJyd+7czXrkyNGKRYsWPtn8+fqfYmCGPgt6BwfHEIrSv8RqLA85FiKDsiN1jyMkieZZ58bn94wbgRt1LELrFebOnVv15MmTFrRFS5C52hViPoFIeVB8xk1O50CMGSD9nnw6NG/e/EuubW1yuj5bX4uSo60R1vEVgVSKgJu7x+X2PXp/17hF29whDm6hEVZ7u8j07uGubunuhITdz+ji5Hzf1T4iLOx+cKZ7QUHZ7CPC7a32TmHhFlerd758u5ydnf5T7hEUGJBz2fJlP+fMmeNKkWLFZ4fbOdyKLXwZM2Y82759+9lDhgx5F6LqXbp06Ymca5OyDrkmLy+v4zRznoNKT0GUcrLSY9IDUfKmCAUIiSyJ7XUnx+Mo7Hfdv39/h/Hjx7+H2LpLixYtUn2i0aP7oOSYHO9MvSZFIAUg4JU1220uc731fpCTxTl9hIU007sWfIz2lsiwiAhHvrWmt48Md7SG2+FedXXgAIuDc2REpJNDWLg1NCTM7l/lHjevXym4c8eONwlmZi1VqvSUXHnyrMuY7r9u1ydBgzrLPRRr5mO9ddy7d29BBMIl9jhSCvhtAaeIkvv5+W2jrdVx3LlefG/HnPmRlmuO1bpMWl7ZYl5bj0mtaEYs4rpTp079gO8zkAG8l1jyaVvPm9zG15hjctsRvR5FIIUhYOfqEUacMNLOwT4ivYNdeHpIwdPRMdTTwSHMyc7JamefLtLJOcNde+eMd+0d0t13cnK845bOKSyTm4M14G6ks9Ua7hQWEpzr5KmTr9HhoUbZsmXXFCtSeJWXZ4ZLwaFhGa7dCnaOLSSUWpxt0qTJBOoO7bEe+5IgkyO258bnOLJVj5CYMy1//vyXJDEHcnYlY7YORPlcfMZL6nOIL7qxB7UWLFjwOXWmuZ5//vm1WOMfEf99Ztw3qa/d9PxqOZpGVMdTBBSBWCNA/2Cn+8G3C+zbu++TA4eOVM/r7Q3P2nsjYF7j7r37doeOHqudKVNmqXFcGJtBca3exNoZW7x48e67du0qThulN3ERfipWZWzOj+sxkOMt5puN9diZ5su5cEFaIMdiuHTfYN7dzGsz8fW4XmtsjofUa0ybNu1r4rb5unfvvhNy/JIXjuOQo02s79hcU1Ido+SYVMjrvIqAImBxiIxw3rFnb88F8xbUOnXmTM48efKGrd2wqTPJIGScom6dLl0wBfYH4wIV7s4gXIFbqD8sgrxbm0KFCi3m/I1xGSMux1LOcUtUcyDiMhBkJjJW7SDmcogF1GQc0XtNEV/ETfNPmDBhMALy+YmlHkdMfDDkfww8w1LEAgxfpJKjYUB1OEVAEYg9Ag52lmAHR9d9+XwKF3Zxc8cT6xApn8iICCcXZ+dILMCdRXwKLI39iIQ1HRxCcG+O3759eyMIKs+xY8faEAPcbKsYoGSuQoiL6ErRCtWcamTNWkjO8SbLU2TljqEicyEu158Ux1KqkXP16tWv8TJRAgGGq61atfoJsYNdtsIsKdYY1zmVHOOKmB6vCCgCxhCItkqmQ14zHzOoNb6lGNQfHsF6XLVo0aLumzZtakJccAjj20zqjISVU02bNp0IGXsTs8tFI2QX3KuNad+1m6Sg0biKbVJSYmIjIPD80pdx8uTJ7VG9CSLGOBli3JaWidEErjqGIqAIKALJEgGsudJDhw7d26ZNmztYRT9Tf+hhywsl9ph10qRJC6tUqRJBmYe1UqVK1sGDB2/Gkky2ouR0E8k6b968YV26dLnco0eP82Ta9gOnjLbEKaWMrdmqKWWn9DoVAUUgTgggjH28TJkyy9IjRkD/wWZYSIXiNEAcD6bwP4DEnJl8zpGIY5HkHFyrRYlDPh/HoRLtcNzAJclKrYtb1aF169ZrcWPPZB2BiXYByXgiJcdkvDl6aYqAIhB/BHBlhpGMswCCPEmCTF6IqhdWUYb4j/j0M6Wekvn+lhZaNHsOxSqz0LXDa+PGjZ2xKjPZat6EjBscHJwOl/Dltm3brsfCfpVEqDTRkzIhmOm5ioAioAikeASIZdofOHCgb7t27W68/vrrfiTKNLH1opCVq/Taa68dhyit1Gxaq1atenPFihXvQ0TpbT13XMfHYnTD/ZxfFH7iem5qP14tx9S+w7o+RSANIyBJJfny5VtLacIJ3Jw5sOLesqX1KFBjNR5FlHw75EgxSrjl8uXLmbZs2dIWEiqS3LYCl/Nd4qN+1If+R8ovuV1rYl+PkmNiI67zKQKKQKIiQCmFf40aNaZBAEEUt5cgk7SSLS+AeONdWlrNpYWWH+5UC82XLSS6FCaTtS4KNLFW+7HlNerYz0ZAyfHZGOkRioAikIIRIBYYUapUqVkU6h9AMzQLxfp9AwIC8tlySRJ7pIXWcko57go50rXDa+HChV2xXvPbct6njS2tp5i/KHHQssRDlaSfsRFKjkl1p+q8ioAikGgIoGJzDUHyRUWKFLlL54xaEIVNY2wQYjiZn8saNWrki+UaZT0ihl50/fr1L9qyEfOTAJVaRgr8P/n4449nEF8sTkaqzZpBJ9qm2ngiJUcbA6zDKwKKQNIjIGICefPmXUtyjFiP2XBz9rp69WpRW10Z5BOeK1euPcQ6p0DINyVzldijtLRqFBQUlMdW8z5uXGKsnrSf6k7fyS7EQJ3RSb1qK63ZxFyXredScrQ1wjq+IqAIJAsEqHs8RYH+CGKPwbNnz25HcX4FIQtbXRwkdAPrcQnJOQfpDhJlPW7btq0YFmQnyDKLreZ9eFyydR14Eeg8bNiwl4i1OnTu3Hky6kH7E2NunUMRUAQUAUUghSBAHV+W6dOnz69Wrdr9UaNGrSH2aFNhAFyojpSSdMaCvEYTZCvEZKXM4xiE1drWkEHI0pexCco3J5o3b35xyZIlv0GWKhkaS+DVcowlUHqYIqAIpHwEsN6CyVwdSv3hDeJ/Zc+ePVvDlqsSYQAfH58tCHkfT5cunUWUc3bv3l308OHDbbBc89pqbixil1OnTrUaO3bsz8yT5aWXXlpCQtIY3MtprvVUfDFWcowvcnqeIqAIpDgE3NzcQhDX3tWwYcOdxBwz7tu37wWSc9xtuRBqCS9CyLPpdnHD3d1dYo92Bw8erI1AeV3I2ibPYIQIKpOA8+by5cu9Ub/ZVa9evV+yZMlyxJbrTG1j22RjUhtIuh5FQBFIPQjQCeQ2knKzKO+4gnJNSfRFq9hyddLSqkCBAmvp2nFUyFHij7TTKogF2YMsUuMlJbIeykZ+3rBhQ6HatWufpmlxP+KsJ2y5xtQ4tpJjatxVXZMioAg8FQFUbPZQZrEU12MGWlr1I/boY0vIPDw8zhPnnF65cuWLopqD1WhZuXJlVeZvjOXqZGpukm7KQYy/owRUskKFCueJb35JYtBlU+OnpXGUHNPSbutaFQFFIAoBLKlTZJLOKVmyZADtrOqhuVrbltDgzr2FwPeeJk2arGFuixAkQugZcK92JHM1p4m5IcaCWKQfrVmzphTiAzcREh9CX0abNXk2cc3JeQwlx+S8O3ptioAiYBMEHBwcIok9HujZs+dEskk9qAPsivVY2CaTRQ/KfEew5kaVLl36HFmsFkS/hSBLQmoVIMgExz3Pnz9fAmKsgGRdUMuWLSdQ17kMi1U1U225qTq2IqAIKAKpEQFKG5yIyR3t06fPNXo+vse/7Wy5Tqk7nDJlyhh6PkZmy5bNyv+tf/zxxz5fX98E93wk87bIokWLvoEgP9CSDVvuoo6tCCgCikAqRwD3ptvatWs/pjj+xg8//LBbZNZsvWRqD+v07dv3LC5dKyo6VmoQrSQGDSFRxyuhc2ONulDLqbWMCQWS89WtagBEHUIRUARSJgLSQaNixYrTc+fOfYns0ULHjx9vQYKMTXVHIcQjlHbsJy4YKZmrWI3yqUe/xwTLylE2EoKOrNYyGrgdlRwNgKhDKAKKQMpFADK5+fzzzy+hY4UDVmRP4oEZbLkaxACu07HjVzJXT0JmUbJyuHSLE3/sxdyxzlyVRs62dgPbEofkPraSY3LfIb0+RUARsCkClDrcIvY3AcI6DkEV3Lp166uIdSc4QeZpF0288Qiaq7PpFBIpqjlHjhyxx7XaFoGACrFZLFamN5mu/Sn2r4n16RGbc/SYuCGg5Bg3vPRoRUARSIUIkNV5oW7dumOJ10VS99jp+vXrRWy5TEo7rlNKMpuGyL5YfxasVmlplU9k5Z5mPfI7e7JRs0Gkv/z+++/fbdmy5W0sT1dbXmtaHVvJMa3uvK5bEVAEHiCA9RiE3upsVHOOY5HlR1auh61dlp6enuc7duz4F/HOUAgvKvaI1doGYi71pK0hYagoJPo+4umtUfqJoI5xF/8P1K00j4CSo3lMdURFQBFIgQgQC7xB1upv9GK8iyh5c7RXy9tyGViPgYULF16Hcs4ZknMsiJRbkHwrhibqQCzYjI/OTaJQBkj7zREjRryGwk8w5Sc/4g4eS8w01JbXmVbHVnJMqzuv61YEFIH/IICrcyWuzlPUDObCZfmKSetROmUI6UFyHnyfnskdiDdaa9asuYV2VncRJoiSldu1a1cjPz+/f3ULwe2aDYvxtfnz53chxuhEl4+Z6MNORqv1qm6jbRDQehjb4KqjKgKKQApEAOvtPq2dZp08edIH67Eecm85WMal+CxFsknF2qP2MDuElvnMmTN5+N6HDNUrjBdOnPMc1mMADZgXEmtscvToUbegoCALij35yF7tzvkrEC0nzBjpcPPmzeyjR49+BbdqejRhN1WtWvVPxonXdcVnLWnxHCXHtLjrumZFQBF4LAIiK4eM3Awp1MdKa7hq1arPIadXpS9jbCETaxNJuIpYnt2pm6zDJ+u1a9fSQ5SSOOMsc0jiD+7bENpI3SPWeQcSzERLKwsydtLv0YIOaw1aTRXFwvTjWqohJv4tMclM/fr1W9msWbPBnHcsttejx8UPASXH+OGmZykCikAqRQBiuoolNxb3ZqUFCxY0wn0pLs4NsVkuyTSFsTj7Q6ov4CLNCwEK0V2l8P+GkCFuUKpEQkVkwMr/nSjdyIjweS7+7UJ5RlTcUZoiQ4Tec+fOHUEG7YhJkyZ9TJeNfK+++upcxAOGEW88EJtr0WMShoCSY8Lw07MVAUUgFSKASPhOXJcbly1b1nzbtm2vQlzSi/GJIt4Ih3tgLdaAFAdDZJVwf6YrWLDgeYTGd2EZjsaFepqs0jtYjeEQoJUkmnu4WDOQ9FOc7NjOtK6S5J9CkGsGSNMi7tUlS5bUCQwMLIA1mYm+jAcgyp+yZ8+uDYsT6X5TckwkoHUaRUARSDkI4La8fuzYsRHE/6oQ/6sBUQp5rXrcCsSNShF/W9ywnx86dCg/Lakude3adV6lSpWGM85h6hBDKRW5/5hzg4hFXi5UqNBG3K7FObc9ccV+kHEu3KwW/m2RYn+6ePj26NHjK8hZXakp5xbSK1UEFAFFIHUiIAX3M2bM+LNDhw5BQ4YMWScdNR5dKcTneOLEidYffvjhWRR2rN99991e3Km1H3fss1CSThr0YxxIOclVSjuiRMnbt28fiWrP11iTmZ51vv7eLAJqOZrFU0dTBBSBVIIA7s9IslankSDTHFdpUUiyKmS4C9doWMwSaZJcZd68eT9gOebBultLJuknSMPtw/KLiCsMnBOOO3U+XTqqQZQN+T4n2axWYpV2cUkIiuu8evzjEdA6R70zFAFFQBF4AgKZM2c+hdvzAISYEYL8DHJ8oGOKyzMLMcbPkJsrVK9evX0NGzb8lOMPElt8nAs1VhgTm7yECPqn77///uctWrTYQoZrKKIAbYhNVorVAHqQMQTUcjQGpQ6kCCgCqQ0BiT3i1pyCBVmezNWK9evXL0mphz9xxfNks7Zcvnx5FSzFSxTlf4oM3FasP2tCMWA8P1y64/j/oYsXL44mBpnPx8enBz/bjAX5wGpN6Dx6/tMRUMtR7xBFQBFQBJ6CAFmnG1GxkZZW6RcvXvw71lxBPpnJJv0IizJdp06d5kFeK59GjP7+/kVQvamF8k4tYpRNccfWvHDhgs+TphU3KmS7FzJeLOUflIeUozYys25U4iGglmPiYa0zKQKKQApEgDrF6xDbFCTemmIpliYLtTtC4fspzs9Py6mLFO9ve1KMEUJzIxO15NKlS7+ndrIYLaZcccfa5c2b9y7KOAdRzfmZspE91Db+Rzwc4g1hjlX58uVrivXoQblINuATdR39SgQElBwTAWSdQhFQBFI2AmSOHsGKm/f999+/QYyxLfWL1SA9Z+KDu3B/7n7c6kiocaccpBNxybdwyZY+f/68RWoYcY9KmUYmXLW5sSCLElv868aNGxNw4f6njhLi3IfW63os1o5Yn1UhW39qJG+lbDRTxtUrOaaMfdKrVAQUgSREgIzRYPRNx0KQbRYtWlQYYvQk8cZSpEiRzSjWnHvcpWEl1l+5cuUH06ZNKyKC4tQ6Wki4sYhqDgIAFmTlRGi8IGQ5kLrIy4wx+dFxyFa9xXGLChQo0Hzt2rXdsVJFqUfJMRHuBY05JgLIOoUioAikfAQyZMjgjyt0m5DbmjVrLBDWLay9f3B//qdlFAo5uSgBeZFM0yhipHejhfMtFP1bINkokkQ43IICjgWRgfx03OjI9+I2/c8Xx13ApRuEpFx23LmeKR/JlLECJceUsU96lYqAIpDECECC94gxLocgUYq7YiFueAviuvG4y8IyzIobtDhuUwtuUAt1ixbKQKJcqoiJR/1fvsSaJCPVwrH5Ic6sjxuLY25RTnINt6wrbtkMSQxDmpleyTHNbLUuVBFQBBKCAORmlyNHjoMlS5Y8QwaphSSd9BDaY8mKbNb0EKQLll4UOYobVeKNYjHKh9hhlH6qfMnPsRrdONbrcddHz8cwLy+vi9Q6OnGs9IHUr0RAQMkxEUDWKRQBRSDlI0BGqjPZoy3JPC1L5qh02xAR8ccuDEvRinUYIb+XJsYxsUZIM8pyFO1Ucc9CfFHfQ5b2jCktrf7zJV08+H06jhfVHbuUj2TKWIGSY8rYJ71KRUARSEIEpMZRahTnzJnzMlmmbhCjhQ4ZISTl/J9/9JEvEmkuccwFcZuKS1Xii5LAI5akEKR8L62phDjFCuXYQI69+rixON6N1lY5cePexwr9P3NTv2yOgGar2hxinUARUARSAQI5J0yY8ANJNrnoqXgd68+dGkVPahbzS1eORwUASMCRbhurKOQvRkuqLEKIYinKR4hRrEeSdqIsx8KFC9+iXGMTJSFnnmA5ZmWMzMQ7gyDdgFSAZYpYglqOKWKb9CIVAUUgqRCgJKP0woULv6H5cAnExw907979z+eee24vRf3uxAHLYg3+J8tU9FXLlSs3qWPHjov4/zUhRyFDsRSFHCXeKARZvHjxm4y5pHr16sOxIP8jBMAxzsQjfZCqy4QKzxnIVC3HRLoR1HJMJKB1GkVAEUh5CECMhSHFH1asWFGdgv9zTZo0+QZd1ZOs5AoxwnJYj9Ww/ArLvx9dHco2fmSifkMh/3mK+DtTr5if2KGTuFlJsAnj95fRZJ2LNN1Ijjn+OHRI+MlCxmtdsUxxq+6CHJ/YcDnloZu8r1jJMXnvj16dIqAIJBECJMK4IxfXizrEClh1t7t06fInblGx3i6jt7qQGsdBuFkLYBnWg/BEdPw/8UeUdU5jMQ7BzXr66NGjdVDC8cbSdIQM/eHUreXLl18EUV540hKpkaxJj8f61FTezp8//0aI+T/WZRLBo9MqAoqAIqAIpDUEhBi3bt3ar1u3bqcHDBhwBuHvj6QZcQwOlHW40Ah5aJ06dW798ccfuzn+sWUYD+NG9qoT7lV3XKp5sCA9pVHy03DleOeJEycuRZUn4Icfflguc6a1fUjK9arlmJTo69yKgCKQ7BDAssuIss3A6dOn96MEw4muG+MQG58szYhjLjZaFHwS7azqIApeGMtuOG7Wd0iYOf+kBUW3m5KWU8HPWjRjeWGVdsOdWx73awAEOVfmfNZ5+ntzCGhCjjksdSRFQBFI4Qhg0bkj5dYJTdR+WIOe7dq1m1u2bNlpuFX/Q3pkoh4iDjkHbdWg+fPnN4TM3oXUcicUAuKMmRAsbzNp0qQ3Sd6xQ5h8JZmqixM6rp4fNwSUHOOGlx6tCCgCqRgBGhn7kJn6yqlTp7LUrl17X8WKFcdRfygJOP/54uf3kJIbSabpchJ3wjivA0k3fXCHuvJxiA9MuG4dSMCph7j5W1ilmej+cYDr+BMLVltVxQdQPUcRUAQUAUUgYQgIMb788svbGzdufIN44gySZ8pixaV71qiidwqZfd+sWbMrvXv3voaCzmTExaOaEzOm07POl99DivYcW4TOG5+++eabx7BIrw4ZMmQVGq5lYnO+HmMeAY05msdUR1QEFIEUhgDqN9VoLfUJSjRFmjdvfhRrcBQZpsce13Hj0aWRwXobMhwGkXosW7aszYgRI9rQQaMMYgGzyWpdgq7qFY4JxEV699FziW9moZYx/YkTJyoRu3wN67MkyjnhnTt33livXr3fUOE5mMKgTDWXqzp9qWYrdSGKgCIQHwQo5C9FzPBryjZqVatWza9t27ZfIjC+ibKJm3EZ7/r1697ECjvSDLkLRFeA5JxISjXOk8yzkbjkXiTkLuMevU7rqvMQoiuSdDlxwzanwL8R5+XCckxHf8hLJN+swJ06hTIQJca4bIDhY5UcDQOqwykCikDKQQBCKjh79uxvlyxZ0hC5t6v9+vX7DCWa1cQT4yXThpycJyRZjJrGlpDe81iEeWiM7C7WIOQo2qj3yFrF4xpiRfnGmQQeN4g4jAL/GyTdHCa+OJHs1C3UUt5LOSimzitVckyd+6qrUgQUgWcggLszG8o1g6dMmfIC2qa3XnjhhR/LlCkzC/fnnYSCB/llgvwKkVzT+O+//x4wa9as3BcuXIjqwIEVGdmoUaOzpUqVOi2NjCnu30MpyHZ+ftTE3Am9dj3//xDQmKPeCYqAIpDmECDW50npRQe6bLSGnIKQcRuO5bbMFDlhIQZAkKco98iMFXpfdFSlC4eQY+vWrU/wGUOJyHTmC+J34fzufprbhGS+YCXHZL5BenmKgCJgFgFRv6GWse3MmTNfhZxCyTKdUrp06flYccbKJaRTB0k6eTds2NCPJBtv6f9Igk+kxB3RZx2L63aBtLUyuzIdTRFQBBQBRUARiAcCZJRmpIaxfs+ePQ+1bNnyzJo1a94kMSZfPIZ66inSrWPcuHGLKAu5QysqK25bK4ICF0aNGjUGd2tB0/PpeIqAIqAIKAKKQLwQkPZPfn5+td5///1dENXpyZMnD6V0o0S8BnvKSZBtgTFjxsykVvEO4uJWXKvWhg0bXh4/fvwoEoCkg4d+KQKKgCKgCCgCSY8Aot1OdLio89dffy2hTOIajYv/wrorafrKRFCcBJzBuE4l+9RKaYaVno1BP//881xUdMqZnk/HUwQUAUVAEVAE4o0ASjOVhg0b9jcWnP9HH320BuvOuGtTlHJ27tz5Ml08Tou1SJ2iuFPvfPjhh6vo61iOJKB4ScrFe9F6oiKgCCgCioAi8CQEIMJiWIqLcKWe+/zzz1cR8ytgGi2s0FwU/789cODAU9RLWiXOiEs1dPDgwWuQoStGrFOJ0TToNh5PhcdtDLAOrwgoAkmHADHFcvRifB/FmtIlS5Y8S3/GnyitOGvyishE9Thy5Egn9FVf3b9/f36EACyZM2cOa9OmzW7aXQ2jo8c/lGpEmJxTx7I9AkqOtsdYZ1AEFIEkQID4n9eZM2eep9C/Jm7V27R+GklN4xZqECNNXY7EMinZKH3w4MGuxBrzkwnrQLmGBQm4Qx06dBiO9biG+bQPoynAdRxFQBFQBBSB+CMAabkhAv5Tx44dT7Rv3/4AQuD1+ZlL/Ed8/JmQb81vv/12U506de7lyZPHigycFaUdXyzVF8PCwtxNz6fjJR4CKgKQeFjrTIqAIpAICNBL0WXHjh0vIQvXmkL78F69eo2HtA7QYcOoBScuW8ozvkJDtdz58+ddIV9LgwYN/OmoMa9o0aIrERgIToTl6hQ2QkDdqjYCVodVBBSBxEdA2j9BWjVRv+lNIo4dGqaraUg8i5jfDZNXAwE74659DwuxPOLi7rdv37agsnO1adOma+nsMYmYo7/J+XQsRUARUAQUAUUgXggIYVHL2PzLL7/cSczv9KRJk4aTmZo/XoM95SQScLKjrPMhHTSuIVQemSlTJiv9H29CyKOpZSyLO1WNDtOg63iKgCKgCCgCcUcAYnQirtjus88+24MyjR/F/lODgoLyxn2kp59BJmoutFJ/ILnnHK5TK82IrfRsDIaIp2E9FjI9n46XdAhozDHpsNeZFQFFwAACWGrOyLKVnjdv3nt79uzJVrNmzSPopv5JY2Gjrk0p8sdi7L9gwYIXDh06lBdxcUvOnDlD6LCxr169eqOY77SB5egQyQQBNf+TyUboZSgCikDcEZDuF1hzxdatW/cm2am5kWzzJTv1T9RpdsZ9tCefIZYpscWm9GXsRpwxSqhc2k8hE7efesYhkOQO/m01OaeOpQgoAoqAIqAIxAsBkm+qQ4ojyRI9JWo01Bk2JCnHaMkGFqPHsWPH2r3zzjuHChYsaJWSDfk//9594MCBLmJRxuvi9SRFQBFQBBQBRcA0AiTG5Bk7duzc/v37+/br128rMcfGlFM4m5yHOTJQ4N/+u+++24tVGimycCThSC3jicOHD3fk99lMzqdjJR8E1K2afPZCr0QRUARiiYAU+QsZrlq1quQdvrp37z4e1+YeahlDYzlErA5DF7XMxo0b32aeEtevX7ejJMQiMnRdunRZQELOCuoor8ZqID0oxSGg5JjitkwvWBFI2whgreX09/evN3HixP4k49xHUHxGuXLllpMQY7SWUZoSIwn3xtKlS8vQBxIVOBcLNYznScD5mzKOCRT5B6XtndDVKwKKgCKgCCQLBLDkcu/evXvABx98sIv2U8dXr17dn5KNXKYv7tq1a8VIvhki9YtSruHj42Nt3LjxNeKbv6OlWsr0fDpe8kNALcfktyd6RYqAIvAYBPCeukNalVGm6bNv375MdNhYWalSpVVYjBdNAob7tADtp/rMmDGjHa2oMnl6elroz3ibLNjdzDeN+XxNzqdjJU8ElByT577oVSkCisAjCNATsTCxv4FHjx7NUrZs2SNItY2GuPxMAkWma7q9e/e2wWrsiGZqLko4LCThBGGl7mW+X7JkyXIAd6rRuKbJ69exFAFFQBFQBNIQAhT5lxw9evQsMkUv/vrrr3NwbRYxvXyI0HHnzp0vkGxzjNZW1hw5cliJZd5Djm4TsnT1qanUhsWmQdfxFAFFQBFQBOKHAK7UkiTfTGvbtu3Jb775ZgW1hfXiN9KTz0JIwJ3SjOchxoMSXxRpOLJSI7744osdFP+3QcQ8i+k5dbzkjYC6VZP3/ujVKQJpGgFKNtLv37+/y4YNG8rRRPgmajS/Y9VtMwkKCT0uJPqUIsb4P0QEikrrKeKblooVK/rSD/LXAgUKrMN9azQT1uT161iKgCKgCCgCaQgByjQyomX6vx49ehzs2bPnrpUrV/ZFjcZ4A+ELFy5UxHW6hszUIC8vL6u3t7eVHpCnIeSPpDdkGoJcl6oIKAKKgCKQnBEg+SYHGqZv9e7de3/fvn2FGPvbghjJTC02aNCgNZUrVw6Wko18+fJZX3rppTOUbPyARRmloapfaRMBdaumzX3XVSsCyRYBXJq5iSt2nTt3bh9I0r5Vq1ZTKKFY4OzsHGzyoi9evFiCAv/3sRArU7KR3t7e3gJJXsR1Ox+X6gRKNs6anE/HSlkIKDmmrP3Sq1UEUjUC4saEqCpBjN1JkElHb8ZldevWnUMJhVGZNgg4G6Ua3SjZaEofRg/psFGoUKGA5s2br6tSpcoErMhjqRpoXZwioAgoAopAykCAjNHMp0+fbv3JJ5/sJDPVd8iQIWNwbeY0ffXEMt3oyfgFmamn0WO15s2b10oN442RI0fOg5jLmZ5Px1MEFAFFQBFQBOKFAO5TV0o2KlGqsblOnTpnhw4dOlkSZeI12FNOwmL0ovfjK2Sh+pYqVcoqccYSJUqE/Pnnn8vPnj1by/R8Ol7KRUDdqil37/TKFYFUgwDJNt5r1659kw4YuRD3PlGvXr2JZI7uNbnAkJAQj0uXLpWePHlyf/RZC6OGY8FdG0HD4j3MN5Q+jdtNzqdjKQKKgCKgCCgC8UYA0spM7G9Ehw4dTrz88svrqTWsy89c4z3gY06UBsj0ZWyFZbqJjNSITJkyWUuXLh36yiuv7CK22QyXbkaT8+lYioAioAgoAopAvBGAtNzmzJnzMxmpJyCqLeiatkamzS7eAz7mRBmP7NeWjL+zSJEioUKMKOBE0iR53549ezrZokTE5PXrWEmDgGPSTKuzKgKKQFpHQNpPkTHaCGWaxmiYXqdH4jQyRreQOWo1hQ2ZqA6XL18uDQG/vX79+vKQsaO7u7uFgv+jnTt3HodE3CrTJSKmrl3HSVoENOaYtPjr7IpAmkSAkg0nxLyrjx07diCWm6V8+fILIch5GTJkuG4SEDJTC9LJYwD1jBX43pHsV0uFChX+ISFnCtbjQldX11sm59OxFAFFQBFQBBIJgZD7oU64Bu3lk0hT2nQaWQdtp5q+8847Gxs0aHBk4cKF7wYGBuYxPSnJN0UmTZo0lGSbS/RjtGKVWmvVqnVx5syZP0CU6U3Pp+OlLgTUrZq69lNXk8oQuHnzena/s2dLhYaGZLWzOISePuV31qdQ/j0pdZmUbLhQMlFt+PDhH6JQ44WG6bxGjRpNdHNzM2ox0tIq3/z581+dN29em3/++SdHunTpLIULF75CbeNCejOOpSfjnZSKoV534iCg5Jg4OOssikC8EDh8+FC16dPnfHjk8FGfdOnSB1esWHnXrp17X61cpYJRMonXxcXxJDJCHSmyr7Zo0aL36bThjUybWI7TTBPj/fv3M1IW0gbR8hbnz5/PKSUblIXcbty48TaIeHTGjBlPxvHS9fA0iECqcNOkwX3TJacRBPIXyH/x5o2bWc+cOZ01PDzMvWLF8seLFS9yNyUuH2uuMrG/dxH1LlG/fv3d7du3/x1351GTayGW6XDkyJH606ZNe3HLli0FScaxJwHnfrt27Tbx+ZkGxvscHR2NJfyYvHYdSxFQBBQBRSCWCNy9dztHt649TpUtW9H6ztsf+Z48fqZpLE9NVocFBAQU/fXXX+dRcH/6448/XnL37t3spi+QOKIr1mLnfv367RFJOGk/VaxYsfsfffTROqzWXJKQY3pOHS/1IqA3S+rdW11ZCkfgzp1A1wv+F8pevXbVI316dwvF69cyeGa6mNKWhWRbriVLlgzYtGlTKeoMz5Mp+geu1Csm1yElGseOHROX7VtYjOWkYTF43Ue0/DDiAiNdXFwCiDOGm5xTx0rdCKhbNXXvr64uBSMQFhruedL3dO3790Pd3T0y3MmVN+cxD0+PcylpSWSmOiLV1m78+PGNcKFe6969+59Yc1tNr4G+jEVHjx792ebNm8tAxva4Vy1ly5b1bd269QSUcJZCjPdMz6njpW4E1HJM3furq0vBCITeD8t2/OjxmrduBbr5FC56IWfuXAedXRyCUsqShBipMXx/ypQpnXBx3qfofhT9EudT5B9pcg3+/v5lqJf8HEHxKtQxphOrkfINkaITIl5OkX+KwcwkLjpWwhBQckwYfnq2ImAzBG7fDsx2+szpXIG3b1soWL+Y1SvncUc7uxThGiS+544iTf+pU6e+QJG/w4svvjiWQv8VpomRzh1FKdl4bcWKFTVJ+HGjZEO6bFygRGQqRDyZBsahNtsgHThVI6Bu1VS9vbq4lIpAeOg9B1yFBS5eupSRB35YkSKF9mXKnOl4SlgP8b90fn5+tckY7YqAuAu9EtdAVPPSp09vNM5IUk+WHTt2dCae2YQSES8p2ShQoMA1slLX0LB4uhJjSrhbku81Kjkm373RK0vDCISFhWY+c+ZMtatXrnjmzZsnKE+eXPsyeKS7mtwhwaXpQvlENVRo3seq86CucH3Lli2HeXp6Go2Vopmak8SbrnPnzu3q6+ubF6vRDlm4iyT7rCIj9tfMmTOfSu5Y6fUlbwTUrZq890evLo0icO/O3ay0WKp048Z1pybVat3KnDnLBVcn+/vJGQ6RhTtx4kQzEfnetm1b9q5du65q1qzZEIjKaNE9UnO5SLzpQkPklxETKOzh4WGhfjFw4MCBk2iUPBJ9Vr/kjJNeW8pAQMkxZeyTXmUaQsBqDbM7cfhIMYS5KfwPl3jjJY8MGc/HFQJifW4kqBTGxelDm6ajBQsWtJlbFsJyR8u0PDqpb+LqzPvcc88dRpFmLMToG9frftrxrCm9dPJYvnx5b9pQFZbkm6xZswZCwluZc7ISo0m00/ZYSo5pe/919ckRAavVyc/vbHVijhmdnJwjChUuuMXD3eNCXC4VEnGBXBtAIP0gk4JVq1ZdRYzuW+oLb8ZlnNgeC0kVgLA+gBjz83WOEopRkNaB2J4fm+OkLyPWdD0I+FUs06JCjFiM94gvHkBt5weI+FhsxtFjFIHYIKAxx9igpMcoAomIQFhoqMfRI4er37t7Nx0P/4B83nl3ubk63IjLJSDqnYMO9803bNhQmcL4YpBkWRJUjDYRjrkeSDcXBNxxxIgRpbFOzw8YMOA3+iQuNdmXUWThEBCvgSt1MG7b8leuXHGiPOQeRf57yEz9nkScPSbniwvWemzqREAtx9S5r7qqFIxA8K3APHSozxlyP8SucpWqgR4ZPC9HWi1PJDaEtp1IgsmHyLZXxYoV90h2K+7Ye1iL84nHFSB5pSYWo6P0UDQNC7JseYj/9Rs3blwHiu6lyH+4t7e3NCw2VsvIWpxJuqk1ffr0/wnZYzE6sp5w2k8deuWVV76CkLdpw2LTO6vjqeWo94AikIwQCAsJSh8cHOR9+fKVTBY7OwuqMnfd3FxuQY6P/YLwnNEtrY4LtSdEVQui9JAD6V14FTfjIUS3z6MOEylWlel+kIzncOjQoWYo03RijoiXXnppNPJwq5nTaFYtscwyuGzfxp1alebEjsxlyZMnz7lu3br9xf/3IA2nRf7J6B5OLZei5JhadlLXkSoQCLl7twBEVw+3YSZnZycLAtoR6dO73XK0tziEE3OTRUbwf4hJGiCngxCL49J8e+/evU0pl7gvVmMMEFhTN3GlBkCgGFsRVpPWnBAj11gZWbi+xEZdaD21kVKKGVh0RomREg0fNFl7r1y5suqpU6dcmUsSlPzQS11K7eRcLOM4uZtTxU2ii0gUBNStmigw6ySKwLMRuHf3lvfN69fLrF+/ocX9+//Xleoaxe0XL159wdk53cFIizXU//It++vXA8Pu372dy9//XG0SYOoQT/T28fH5B2WYv7GsHraiIknMsaMQ3yrkyHBGWjXRsNgTt2/ryZMn9z958mTmTz/99E9cuDMh48BnrzL2R2AxFsOV+hFiAk1xG3vlypUrkhjseVypo4g1TsRivB370fRIRSBuCCg5xg0vPVoRsAkCp08dzbNv9+5m586e7XDw0IEs6d09rEiwWXfu3OlqdXB5wcHRuUnwnXv2kfYODi4OEXYX/M9kJqPVC+JzpXzhLhamn4htP/olGZ1YeRYHBwcrVmSCpeeI/7kePXq0MZqprxw/fjx7jx491pYqVWqt6S4bKN4UZO1dsRgbIoaQFeIVV+p19FLnVqtWbR4WY4rrTmKTG0cHtRkCSo42g1YHVgRij4CXV9agdC4uezJnymyXM0eufREWC50l7O34z5I5W45L9o4O928H389g4Sfp0zncvR1Q0osaRk8sxWAsqJuUT+yEoPwfmdEKKYbR3FfIEa9qwpJkIF87kn6qL1iw4DVKKnJQQnGsVatWv5E1eiT2K332kSQQ5Ub9pjNxxm4QcS4heOKnt6tXr76XesY/cR/7PXsUPUIRSBgCSo4Jw0/PVgSMIJDRM6u4JHdZraH7i5Yqx7fRyamRxBnt7eBKi+V+mMXF4mCJdLQjdZXSBr5C5OdYj+4QXyDW1aNuUzvpei/kyO/lbz1BpRzENwsi8P3W1q1b80s7qFdfffVj08RIu6msdNfoOnv27D7UMhYUYqTlVADKNzvJhP0WizHOYghGNkgHSXMIKDmmuS3XBSdnBOzsnB8k1DzmOv8vEPnfr1tP+Lkk7rhK6QMuWldcom4cFy8RAGJ+FSCs95cuXVq6du3avoh7/549e/b9JrEklpmR+Glj6jL7kGRUCAvSwhx369evv5MEnB9oXrydF4IEu4ZNXrOOlXoR0GzV1Lu3ujJFICqrVaxH4o0ukGNUmUdcvyCpAtQyvvT3339XoUTkStu2bYdAVBtMFt1DjG64bCsQy3ydJKOiCAtY6OIRiSv1YIsWLf6gyF+I8WkvDnFdlh6vCDwVASVHvUEUgVSKAFZYKYS5C50+fTqcMggX/l2X/2eMy3KlYfH27dt7khhTD33WYLpejIcYt1AyYrS2kMzUCrNmzfoMAi5L+YY9rmJxpx7r3bv3H2XKlFmBy/heXK5bj1UEEoqAulUTiqCerwgkXwQuQmQLaBkVRELLZRJ2jmNB3ont5WLNZd23b18LGhZ3IvHH0rlz52nEGudDjNdjO0ZsjsNirIiQwKc0La4CSbpmzJgxAovRt2fPnqMoEZll0kKNzfXoMYqAIqAIKAJpAAGsME9iju7EHmPtKRKpOTJSu7/xxhsHsN5OoU7z+7Vr10qahoui/qKjRo0aT3lGIBm3VsTKrW3atPEltvnerVu3cpmeT8dTBBQBRUARUATihYDIzOGKbf7tt9/uonTiHMX+E3B1FovXYE856ezZs8UhwU+aN29+Adk5K8k31po1a16kUfKXNErOZ3o+HU8RUAQUAUVAEYgXAliXzrg5aw8ePHg3xHjpr7/+mk+vxoLxGuwpJ0G2BWfMmPEzVuI5BAys8kE0/drw4cP/kjpH0/PpeIqAIqAIKAKKQLwQwPWaDmuu4ddff70L0rr+448/boAoa+JijbU7NjYTQ345582b93nXrl39EFa35syZ00ps8QbEOI6SkeKxGUOPUQRsjYDRm97WF6vjKwKKgG0QkLZXSLZVJFv0g927dxeArHyxHIdLw2KSeIy1n6LIP/OxY8ekYXFnsmfzibQd5HibOsb1iJcPRztVGxbbZot11DgioOQYR8D0cEUgNSKAdZgNUuwOaZUkG/V869atfyxcuPByk+2gEEF3o+NIFRRwXqbI34cEHwvjhz733HM7me8X+jLuTY3Y6poUAUVAEVAEUiACkFYmkm5mUGx/uUuXLodwbVY03ftRGhZjKbZ4++23tyE5Z6XDhrV8+fJ3cK1ux82qWakp8L5J7ZesdY6pfYd1fYrAUxBAvDw/ijTd58yZU4euF8GdOnWagLD3mYSKlD88pbhscaU2oMj/Q+aqgJiACKGHkZl6pEmTJqOwVOMlaacbqwjYEgElR1uiq2MrAskYASTackJaLdFM7Q0Z3kPDdAkNi+dT8B9g8rJJ9PFavXr1i3Pnzq0EUTpLay3EBE6gz/oX8y1xcnK6b3I+HUsRUAQUAUVAEYgXAhTYFyTu9/agQYNOQorn16xZ8y7lFUXiNdhTTrpx44YPFuMPtWrVuopFas2SJYuVgv8zxB17ooaj7lTTgOt4ioAioAgoAvFDAMtN4n/9XnvttVPdunW7NG7cuGlYdF7xG+3JZ128eLHw2LFjhzRt2vS8lGzIh44e/pDlx1itmU3Pp+MpAiYR0GxVk2jqWIpAMkcAEnS9cuVKNRoJv4rl5oEVd4C431BcqUb1UknycaeTR7fFixe3Ruw8qqgfebhrCJcvpzfjXHReNc6YzO+VtH55So5p/Q7Q9acZBMhAtcOdWoFyja9wa+aoVKnSUTJUfyVzdKtJEKhlzCKZqQsWLOhy5MiRvNKw2NvbO4BaxlWtWrUaBTGeMDmfjqUIKAKKgCKgCMQbAdRu6o4YMWI9JHXx008/3SxqOLhYHeI94GNOpGTDhYzUrn379j0oQuIxJRu//PLLfNys5bEo9YXcJOA6ls0Q0BvVZtDqwIpA8kGAWsJCiHx/uGHDhmLomF6j/dSf/H8D6jcRpq4SC9Hp6NGjjYkpvoNlWhqitNAy6z7JOIfr1q07EWHxQ/RlNKa2Y+q6dRxF4HEIKDnqfaEIpHIEpMh/27Zt/SinKO7h4RFAgsyCokWLLoYYw0wtnQQbVyzTyoiJf0TmaznmtLi7u1srV658HPWb8T4+PpuobQw3NZ+OowgoAoqAIqAIxBsBqWXcuHHjIFypx3B1HiZJZhA/M1pCQdcOV6TgSvzvf/9bhwSctVixYtbSpUuHY50eWbJkyfsIDeSI9wL0REVAEVAEFAFFwCQCNDnOtHXr1jf69OlzmIL7E8QCX+NnWUzOQYG/vb+/f5Xff/99Pj0Zw6X1FJqsVhJvTkHELzJfBpPz6ViKQGIhoAo5iYW0zqMIJCICkFJG3Jw1UKXpHRwc7Nq7d+8lZcqUmYvQ9w2Tl8HY+deuXduHOGNdVHYcULuxUOx/o0ePHrPp7DGdf98xOZ+OpQgkFgIac0wspHUeRSCRECDel54EnCKIiX+0b9++zA0bNtzL5yc0TC+ZvASsxvTEMtsTZ2xFiYgnc1oyZswY0L179+X16tWbqMRoEm0dSxFQBBQBRSDeCJAh6kqJRqOvvvpqA10vLkyaNGkcEm5lIC6jL8LEEXNt2rTpFZmjXLlyESINV7x48cBFixZ9wVx5470APVERSCYIqFs1mWyEXoYikFAEqFm09/X1bUic8U16M3pjwR0QCw71myPp06c3VkJB8k1e4pedV65c2YvaxVziSi1UqNAd2l2tJTt1QYYMGfwTuhY9XxFIagSUHJN6B3R+RcAQAijTFCD+N4BEmEIFChQ4RxJOlPoNJRTGahnFMt2/f39dyjX6IA1XHLUbS+bMme/TsHhP27Ztf8uWLdshQ8vRYRQBRUARUAQUgYQhQMyv6N9///0FHTbOfvDBB1toRdXGdMNiGe/kyZPPv/vuu/so1YgSEsditH7xxRebkIlrIvJ0CVuFnq0IJB8E1HJMPnuhV6IIxAsBiDE/1lybv/76qxMZotcoo5hKveF6kw2Lhfj8/PzqjBkz5gtEy8tS2xh1rW3atNlN0+LxzLeN+azxWoCepAgkQwSUHJPhpuglKQKxRYDM1AxbtmzpMGfOnG7EFa3PP//8LFG/oWTjVmzHeNZxIgt39erV0limr82bN68iZSJ2WI2hzHe+ffv2f6Ch+jeZsP/HlvqlCCgCioAioAgkJQLi5jx+/HjTV199dRfdNU5NnTp1BFmk+UxeE8ToSPZpPizGWSTbBKOPKlmp1ubNm/9DZuogWmB5mpxPx1IEFAFFQBFQBOKNgLg5EfluTkbqbgr8j0FUP1LCUSHeAz7hRMgvy6+//rqIko07OXLkiIoxtmzZ8tyUKVN+4BqMdvQwfe06niKgCCgCikAaQkDcmiTcNPnyyy/XEe87P3PmzBHEAAubhoBYZkGUb4Yyx608efJYRRqO7hrXJk6cOIxGySVMz6fjKQLJCQGjhcHJaWF6LYpAakUAYqpKhw2pZSxI8s2+atWqTUKZ5qTJ9SILl4v2Vi/Onz+/XUBAQEYZm44e93CnbiKuOSpnzpxHTc6nYykCyQ0BTchJbjui16MIPAWBK1eulCP55gPpy1iyZMkz/fv3f48eib4mQSNumfvAgQPtmKfrnj17ckpfRsgwuEmTJls7der0c5YsWY6YnE/HUgSSIwJKjslxV/SaFIHHIICQeMkFCxYMpgVVGZJi/Dt27PgHFqOvyRIKEnBcKO7vvWLFij7UNObDSrV4e3uH0n5qI8T4NUX+e1DE0b6MeoemegSUHFP9FusCUwMCuDnzUErRC8m28vRLvEJ94UhIa6NJYpT2UsjBlcGVKhajD30fLWSnWho3brwPGboxlG/spEGyMbWd1LAvuobUi4CSY+rdW11ZKkFA3Jy7du1qC2k1wYV6h7KNMfRMXIWG6U1TS7x3714GcdliMQ7evn17CSFGR0dHS/Xq1Y8gQzfSx8dngxKjKbR1HEVAEVAEFIEEISDlEuvXrx/YrFmzw127dj1IrHGAFP4naNBHToYY3c+dO1cTGbgtlGqEIyJgRZvV2rp161NYq2+Lq9XkfDqWIpASEFDLMSXskl5jmkSA7hdZ/vnnn3KUavRAgcYeNZr5CHxPJuYXbAqQCxcuuEGOeadNm/blwoULK+FadcBCtFC+4Ucm7PwKFSrMQ7g8xNR8Oo4ikFIQUHJMKTul15mmEJD43+HDhxuQMfoaBObZoUOHFRDWJJPEKIBCfAVx2XaePXt2BeZxdnd3t5CNegPX7WJqGkfz/dk0BbwuVhFQBBQBRSB5IkBfRodDhw61xs25Hsm20xTd/0KRv1FZOFk56jeZyXx9h4Qbf5GFQyNVpOGCR44cOfHmzZtFkic6elWKgCKgCCgCaQ4Bagrtzpw5U//jjz9eQyLMCYhqDERlXP2GhJusM2bM+JE5zopWqhBjnTp1An/55ZelkpiT5oDXBSsCjyCgCjl6SygCyQgBRL6L0ay4B4LieXCjHqGEYjzNhI2q32CZOlLDWG/ZsmWt6cOYl5hjVMPiSpUqHUT95lcvL6/DyQgSvRRFIEkQUHJMEth1UkXgvwhQsuG9adOmboh61yBr1I/GxX+RNbrTJFZYpq70ZaxNks97lGz4YJXaEWe8T93kDlG/KVKkyHbikFrkbxJ0HUsRUAQUAUUgfghIkf+kSZNGkZF65MMPP1xJ8+Kmd+7ccYvfaI8/Szp5iGD54MGDt9CcOCRXrlzWUqVKhdLyasepU6caUiKS3uR8OpYikJIR0GzVlLx7eu2pAgFIUES++yMNVytr1qw3qWccggW3ydXV9a6pBeI6TXf69OlqNCv+aPny5RUgY2ek4MJw2x7DahxDx42dIjBgaj4dRxFI6QioWzWl76Bef4pGANLK6u/vXx1Xaivcm8GUUEyjCH8DxGislpEifnvIsODcuXMHLV26tML169ddpWSjdOnS/+C6nUescZmLi8vtFA2kXrwioAgoAopA6kCAWkZPEm/avfvuu9ubNm16gLKKHsQdc5heHXqppSZMmDCSspAAcaXmy5dPGhb7LVmy5HPEzAuZnk/HUwQUAUVAEVAE4oUAiTHp9u7d2/Ptt9/ehWvzJILiIgvnHq/BnnISCTcFxo4dO6RKlSpXhBjRSLXWqFHj2tSpU4dQzpHN9Hw6niKQWhBQt2pq2UldR4pBICwsLB1qNNWJMb5y4sQJL/ok7kIWbiExP2OuVAFDyBZd1hdojNyM1lPZsFSlL2NA27Ztt0PIE93c3K6mGND0QhUBRUARUARSNwIQVdU///xzBaTo9/nnny+mtKKq6RULAe/cubMdsnNH6eARSXaqZKYG/e9//1tx9uzZmpK5anpOHU8RUAQUAUVAEYgXAliM1YYOHbqoUaNGfl9//fVShMVrxWugp5wkXTb27dvXlOSeA5BiZI4cOawlSpQIZt7FEGNtLEijJSKmr1/HUwSSAwJaypEcdkGvIU0gQJZoSYTE3922bVvJqlWrnqZk4yeK/DeZXDyxTGdimbXosvEJxFsU/VQ7Yo13IcpDaKiOxK26F/etsRIRk9euYykCyQkBjTkmp93Qa0m1CEBa6detW/cSGanliPXdatCgwQSyRreYXjDZp5XowfjewYMHywQEBLjQEDm0YsWKZ4gxTqWWcZvpuKbp69fxFAFFQBFQBNIIAlhvWXbs2NFf4n+9e/feR2bq6yLjZnr5iAlkQ11nebVq1W5JZiqC4vdRvzm4YsWKQdQ55jQ9n46nCCgCioAioAjECwEplyBb9JO+ffsehBj3kz06ELLMFK/BnnISST6lhg8fPqZs2bK3cJ1aUb+xvvbaa8d37979IqSpxGgacB0v1SOgMcdUv8W6wKRCgFKKDLg3W69ataojKjUOHTt2nEPG6CLUbwJMXpMU+WONDqR2saW9vX3GdOnSWUjEuVK7du2/aUW1Nn369JdMzqdjKQJpAQGNOaaFXdY1JjoCZIRmJDP1ObpfvEwc0BWi2lSrVq2JtIM6b/JiiCsWIJbZb+HChS0PHz6c7dq1axaSfK537tx5HcX+45jvjMn5dCxFQBFQBBQBRSBeCEjxPYRYe9CgQduQhTs1efLkv2zRsBj3rCdaqR+S+XqeZBtrsWLFoko2xowZM/3GjRul4nXxepIioAgoAoqAImALBBASr/3zzz+vp3TCb/To0VP493Om56Epck4sxtdeeOGFk1LgL3FG4o13mG8OtYx1SfjRkIlp0HW8NIWAulXT1HbrYm2NAKSVX9pC0YKqYLly5f6R2kKK8I02LEbdxuHIkSNN6eQxgGL/QjQntmTJkiW0evXqB7FUfyNTdYejo6M2LLb1Zuv4ioAioAgoAs9GgDhjJpJiRtIf8cwrr7yyjRhgS35mtIEwxGgPIXaik8cBSjWs2bNnt0LC919//fXdhw4damuLEpFnr1yPUAQUAUVAEVAEHoMAMb4SWIy/NW/e/OTgwYM3b9mypW9kZKRR1yYZr05YjC0HDhy4D0KMzJMnj+ilhr355pt7Nm/e/JJYlLo5ioAiYAYBdauawVFHScMIiMW4f//+djQTbpYpU6ZgXJsTypQps5iyCmOuTZJ8XCDg4osWLRokKjsk+NhBvhYyYI926tRpVMmSJRfZ2dlFpOFt0KUrAoqAIqAIJBcEsNYct2/fPoC+jAfRLz26bNmytxH+zmz6+q5evVqGrNfJ9evXDxYhcVHAqVu37jmk4t7BonQxPZ+OpwgoAoqAIqAIxAsBLMYMxBXbon6zr1WrVkcRFf/MtGsTonVAsLw46jdz6Pl4W0o2aEFlxTo9i7j4TyIZF6+L15MUAUVAEVAEFAHTCEBKbqdPn27y8ccfb2ndurXv9OnTv5OCfNPzQI5ZqFscX7NmzdsIlUdZjMQ1LyAu8BNu1iKm59PxFAFF4P8QMJowoKAqAmkBgaCgIIfLly/XWrt27VtkiObA1bnt+eefH0u88R+T60csPMeePXvazJo1qyntpzxcXFykZOMOvSA31qlTZzLf+5qcT8dSBBQBRUARUATijQBWY+5Ro0bNow3UuTfeeGMFFlzheA/2hBNJtnGiL2Nnkm1OQbrWQoUKiTs1nBKO1VeuXFH1G9OA63iKgCKgCCgC8UdAivx//fXX+fRjPPfee++t9fPzqxL/0R5/ZlhYmBtJPr27dOniK5JwuXPnFmm4sG+++WY13TfKm55Px1MEFIH/IqBuVb0rFIFYIkBMsTBapu9SU1ia5Jh/WrZsOYRawz2xPD1Wh9Hiyv3kyZP1xo0b9z6WY2FcuBYK/cMh48O4b6cgJH48VgPpQYqAIpAgBLTOMUHw6clpBQFpPwVZtaNUoxaxv0CIajyF+KuQaTNWW4jF6Er9YmlaXL1NiUYJknEsEmcsX7784fbt2w/DtbrMycnpXlrBXNepCCgCioAikIwRIP7nTPLNu127dj1Mw+LdJMm0lzIOk5dMCYjduXPnauA63QQZhov6jdQzUjt5ElWcFlrLaBJtHUsReDYC6lZ9NkZ6RBpGADenl6+vb41Jkyb1cHZ2tseVuoS2UOuw6G6bggWidYQYq9OT8TOaFlej4N+BhsiWhg0bXmvXrt0CGhbvQVw8xNR8Oo4ioAg8GwF1qz4bIz0ijSKAWzMDmaHlJ0yYMJh4oxvlE+uINU5Nly7dTZOQQI65cKO+tmDBgpr0gXTEhWuhpjGC2kb/KlWqLHZzc7ticj4dSxFQBJ6NgJLjszHSI9IgAoGBgemw4Cpgyb1JnDEPMb/lzZo1+4u+iSdNwnHt2rXiO3fu7IG6ToMDBw64oMdqodD/Xtu2bQ9SS2lZv359OzptuNPYOAvJOR4m59axFAFF4MkI2Ck4ioAi8G8EiO+JZFsZahl/paQiP0X3O5CIez9Dhgz+JrG6detW/tWrV7+Gy7YbwuU5SO6xMMftt956aw6C4rM2bdrUgszY2iThhGJBnqpQocLSAgUKbMaSvMixoSavRcdSBBSBfyOgMUe9IxSBRxCgqL8U3S8+xpLzoWfiqY4dO/5smhhRv8m+Y8eODlilnejPmAPr0ALx3a1WrdoudFN/J6bpjxv3CoIDGYcNG9YSDdcyEGiNqlWr7uQzDpfvbuKSNyBye4gyTDdREVAEzCKg5GgWTx0thSMgbaHITO1Hb8YKlGqc6dChw19kjR4wuSxiiumRnatPjPGlXbt25YUoxZV6Hwt1Mwk/PyELdwzCC4cAD+PKHXbs2LECixcvrnnmzJm8fJ/jxIkTZYhJ/uPt7b2Lz17crxczZ858AgvztratMrlTOlZaRkDdqml593Xt/0IAN2dBeiW+NHbs2E6Q1dXXXnvte5RplpEpaswyk5KNo0ePNkdM/KsVK1aUwzK0CKFBwltef/31QcQ092A1PugDKQ2OT506VevHH38cumbNmuKSrAMJWrgmC8dKDeRlrvUWJHmR/++ia8fqjBkzbs6WLdt93V5FQBGIPwJqOcYfOz0zFSGAleaF+s0by5cvb4kVFkyMcYiPj88Gk8RIkb8TxNgQK/CDrVu3liIDVoTEI3Cf7qWG8hfm3f8wMQq8Mj8EuZmEoHGc/86GDRtySpNjiU/6+/vLJwdkmYNDi3G9FTiuIvHKO/x7WyraHl2KIpDoCCg5JjrkOmFyQ4B4XzoK7ZtQZ9gCkoyEqBZjkc2HgIyq0aCLWo5Y5jtkwFa8ePGiI3WTljJlypzAlToBF+7yJxExPw/F3buAzNbCZ8+e7YWe64PmxkKUYkVCjBZPT89wknUisESdkxvGej2KQEpDQMkxpe2YXq9RBCjyz0pfxlpz5859i9idXbdu3ZaTEPObaWLESsxHHLM31mklCC4di7CWLVv2RJs2bSZXqlRpzrMsVCzMU8ePH59NUk5Fzq9IaYdFyFXk5SpWrGjp3r37RQj2Z/69g2s/aBQkHUwRUAQUAUUg7SCAxeh68ODBLoMGDdrbpEmTU2SOfkItYR7TCGAl5qM58ZcICFwgNmgVaTiRhSO+2QtL1TO280n8kQzXrmTPnkM1x1qwYEFr5cqVrRC6lTpJX+KXNbAkhXj1SxFQBBKIgIoAJBBAPT1lIhCd6NKUOsPXsRgzI9W2n9jfGA8Pj/MmV4QrNQck2BOXbVfig7lIyLFAkJdpjrwCl+pq1HZuxXY+sS6RrltLzeN2Skui6hyxPq38OwghAU/imP1Zl2tsx9PjFAFF4MkIKDnq3ZHmEJAif9ySOUmMeRPSykeW54levXp9lj59+ssmwZDMVDJN65Jl+gKJND4SHySL9Frz5s3XvvDCC38SI7wQ1/kg78t169adjgvVlybIoY0bNz6I9bgCK/g68czy0m9SiD+u4+rxioAioAgoAmkcAUo2ig0dOnRF7dq1L/zwww/L0TOtbhoSXJyOxDIrCXkRL7QiJmAtXbr0TQr6R2FNlkzIfJCfM3qvP2F9HoF4fyCLNSt1k1169Ohx5Msvv1yPhVoHItYyrYSArOcqAoqAIpCWEIAYi06fPn02JQ/nIZItWHbNqR00mphG3NKZgv3KWKOb6cEYKvFBPve++uqrRRTw1zSBNw2RS5Dc8yLk2Jy4ZUYSi3Jgnb5JveQZ6jSXkdmaIAI2cY06hiKQkhEw+lBIyUDotad+BLCwMuJKfYdmwlVwT97CqpuE0sx66gQfFN0nFAWsOjvKQmqRIPMRzZHLQ1xO7u7u90nG2UfJxl/EG3cndA45v3Dhwkcp7zgmVmn0eIEQ/0JKOjqgulOySJEibej2cV4aM5uYT8dQBNIaAhpzTGs7nkbXK50tII0+U6dOrU8s8G7nzp3nErebDTFKwbyxLzp5lCIz9QPmqcWcbnTZiKhevfqh/v37D8W1upEEHGPKNQ8RY9T1U9pxiVjmMFkTLwHtkKXLBznrC7Cx3dWBFAFFQBFIRQjgNvXEmutOG6hjPXv29KV34hf8LKPpJRK7LPvJJ58sJkHmNpmoVqzS8D59+uylu0YfrNZEKbGQ8hS0YT9mnacgyFH0oyxtep06niKQFhDQt8q0sMtpeI3E//JS5tCTGsauWIzp2rVrt5ii+RlYWUbdjSTBFKEspA/zVJe+i7gzI0uWLPkPSTJjSpUqtQxrzqjazpO2FAGA+xDiIgi6IdfSUNy4uHqPP0tkIA3fIrp0ReCxCKhbVW+MVIsAZOhIwk1T9FK70xfRs3Xr1tsogxiChukxk4vGlepDjWEvZOHaEPfLIuLgkON1VGvm0IJqJiUXV0zO96yxKEk5R83mSAjbkcSdFpStZH/WOfp7RUAR+DcCajnqHZEqESAZJSMyazWxngYg9u1BMsw+6gt/onj+pMkFU7KRhdZTfYgzdt2zZ08+6ZhRtGjRS8jCreTzC1qnN0zOF5uxSAAKZP0raIHVb/fu3SVpudWFF4Wf0VyNSd6JzTB6jCKgCCgCikBqQkDibpRStPj555+3IdPmP3z48IVkdpaGMIy+DFI+kYm43rtkvZ4WKTeK+q0VKlQIGD9+/BisySQtpaDO0Z6ykRYDBgzw/eOPP9bfvHmzeGraY12LImBrBIw+LGx9sTq+IhAbBCCC0rhRX9myZUsu4n2+uFN/ILPzUGzOje0xJNi4HjhwoAGC5X34f8Ho/oqh9evXP4BLczxKOEdiO5YtjiNLNjIwMPBggQIF/NF2zf/PP//UZh6j7mRbXLeOqQgkFwQ05phcdkKvwwgCkFaG7du3d50/f35pLLkrX3zxRSf+v8fI4NGDCDESy6tDLeN7kHBJIUZijCICfog44y8kwewyOV98xxKd2Bo1asyhnMPu8OHDTaW0JL5j6XmKgCKgCCgCKRQBKc+gwP9TOmycfuWVVw6QpdqbWr/MJpcjeqm0jWpJ3eKuYsWKRaDLaqXgPuL111/fTR2lZMQmqxdOWmUV/u6777a+/fbbByH0piax0LEUgdSMQLL6Q07NQOvabIuAyKehSNODxJgXyA4NQx5uNokx60lOuWlqZixGO1yUFcRipHaxPHPa466NxDo7Sg3leGobF5P0EmlqPhPjcD3Xady8mmt3JgbZECsyk4lxdQxFILUjoOSY2nc4DaxP2jTx4G8Cab1IbC09KjELcHHOyJgxo5/J5RPLLLl+/foeNC2uSPcLB1dXVwuWoz/9FafQNmoOrtUgk/OZGAuXcgCkPZ/yjjsIoVfEks5rYtzHjQEBu+G6TSfWta3m0HEVgcRCQBNyEgtpnccmCJCV6bRt27YXJ02a9BJWXQbEvpdStvEFcUCjRfcQow+k+MaoUaPaXbhwIX3OnDmlZON8165dZ9Ad43fmC7HJAg0MyrUeRHP1HORYnNrHKgx50MCwD4bAGs1MSUsO/h+OAEFJLy+v4+yLr0jnmZxHx1IEEhMBJcfERFvnMoqAlGz4+vo2I2O0L7G1TK1atdpCV4pvTBMjpOuzYsWKV+n92AqCyYK1aCHeeJ26yTV8/kjOxCiA41qNIB66knrP0nzqYuFNN6UpS8lKXrKCuyKdVxNLPZR9yJE3b96DWKt/MfUBoxuugykCiYiAkmMigq1TmUOA5BsHHsi1lixZ8gY1jVlQvtnfsGHD4bgPL5qbxWLBfZobV2pXXLadIOLsEIAla9asgTVr1txZr1690cQ0L5mcz1Zj0TprAyQ5AKzy4lrNxTwJFkNAJi8PCVBvoMBTjPrOtViMJ8CoA67tquDiT13pP7iab9tqTTquImBLBDTmaEt0dWybIMDD2B43XlEsubcgx8KQ1KFu3bp9Tk3fJpMTMo8nllYjXLZ9yFDNjcvQgvTcPTp6bESj9Rd6NO40OZ8txyL2eEqUe4gHZsASLpXQuZDJK0BS0otYjhXQkP2bsafgvv0bi3oyJOxEDLgBLxbeCZ1Hz1cEkgoBJcekQl7njTcCly9frjJr1qzviDUWJxHmJK7U77Dm9sZ7wMecKPJzuAt7Dh06dPChQ4cKkJlqQQUnFEk2kaH7DWJcl8LEvCNKlCixCXJ0Q1KuaUKSZoi5FqKO9LNFixZ1JvFpEcQ4GwvxGjCGg0kgFqUd1mMuLNRsJvdEx1IEEhMBJcfERFvnSjACxBk9sFhexmosT5LJFRJiRmbPnt1okT9EmJEWVy3QTB2AoEBhlGbEYrQ0aNDgBHJ0k5hvd0rTKZUSE1po7YAUwxEEkDZW8frbJzPYBXd244MHDzZEp9bCHqyhw4kQo8Q2rSTiRF6/ft0ZK9uTBJ2sHO+U4E3XARSBJEAgXn8gSXCdOqUiYCGRxIPuF/3QM62GPNstyGoO8nALpU2TKXh4tjvwUPfGMn1748aNxfjeIgo4zz333DHEBSaXLVt2ASUcya5kIzbrB7OjXPudS5cuuUv5S2zOefQYiPE5BNZ74071EqsdgvQDn/CY46RvJS5XNwjSnZeKPKrKEx+U9ZzkgICSY3LYBb2GZyIgD1nI6mVEtF/k4MiBAwcOrVSp0myI8e4zT47lAeJq9PPzazB69Oi/SMCpSOalRawjEn18Udz5pXr16hNJNEnU9lOxvPRYHQYxXieT9AZrcGKd9WN10kMHSQ3jtWvXymE1FiExKRyX6jLRcAU3B1EGkhZhxIK9RV4P3MJIjgri9w+IM67z6fGKQFIioNmqSYm+zh0rBOThS3yxx/Tp07vxsHXs16/fDBI/VvEAPherAWJxkFiM586dq0OLq8+mTp1aVZJviCtaSpcu7U/D4qnlypWbbpKIY3FJxg8BRwtZq/tYp8+xY8ek3nFxXCYhQSnb8ePHmxODzYh+rBX39quUhLTBCr2YLl26i7TnckelqDEZq1mwsM9hqUqTZWNWfVyuVY9VBBKKgJJjQhHU822KAA9kN4iqzIwZM3rL92SJrhELTtx5JifGTVjx77///t/atWsrYP048KCXBJyrJN+srVix4pSUTozRWEUQLz2CIHlb6jWLyUuH1EDGFkfcpHnpkZmHcyz0iLzJfgTyCefFIh1WZQ5wy06yjzcuVQuyereJRd5WIYDYoqvHJTcElByT247o9TxAQMiQzNRaJN+8J6UUL7/88krifn9CjP+YhImHfuENGzb0J85YBavKVSwsithv0ax4HS7VX9FqPWNyvqQaS4iKFw1/3J7hlHNk5TokrBJrcmQ/MvFxIs4bDDYLqlat+hlZquJmlibKdtIqbN26dfMo6chDZqwvLxiXZa3irsYd60OWa25cukcLFy4clcCjX4pAckZAyTE5704avjZp1kvBen3KBd7B1VkYIfH9NBUeDlEdNwkLySllIMY3ESxvBQG7iV4qNYGhffv2XYbizgfEzc6bnC+px8KaC4AkQ0ma8SDZSEotLsTmmoTg6FuZmSxeN1yodyE+6Q0ZhBUZFVOU/eIlIyMk6EhW7A1qH5dAnDch42y4YStTFvMO5R1e9Lr8k8PHxmZOPUYRSEoENCEnKdHXuZ+IAA/vEitXrhwIcRWCFH2xGMfgDjTaQBg3YC5k1V5Ffq4V7kAviMOSJ0+eMDps7EEBZ0RqI0YBW6y53LlzX5F6R4irQmxvweikGynXsGAZ3iQeu5kXiQfqN0K0KAn1g3g9sChPopazj3rHTLhvS9AqqwP4loFYvYlB5ojtnHqcIpCUCCg5JiX6OvdjEaDOMBfuuRfJGC1DHd0FXJuTif+t5mEcagoykkjSYdG8gFXafN++fV48yC0iDYdlcwQh8bHEzPaZmis5jSOWI5axuDwdeQEpCKmlj831SdYpFmMAscZ7nB+CVRjw8HmM5UXj59qUvPgTo53M8ddwid+DJM9DlpPYx0Dc4S7Mby9WZmzm1GMUgaREQN2qSYm+zv0fBFBV8SYLst/PP//cgTq6i3TZGEGMa5bJrEdpinzq1KnGw4YNe426ydxCjGRdWijw34XVOJISkUk83MNS6fZEQPyHETVoTIywEETlxjrvxGatuLTP4TK9ycuLE0k3BTnHV84TFy0u6YbgGsmeTSWTdSkvGjHu2tvMcZ45AyDUPHzvSvKOA6clq76XsVm/HpO2EFByTFv7naxXC0nlW7NmzRskxrQhoSOAuN8wkjdWmiRGqdVD97Ml8meDcKkWhIwtPPQt6LMe7tmz57e4VdenYmKMUrHB1XkC8roPqeVjrXFRsLmGS9WP+s/cvExYBUtk9kKIDecG0wrEaBdg4S/EsvxXHFOEAbBQrZBnVC0kc2q/x2T9l6gXJwgoOep9kCwQ4KHphMXYHiHxllxQOEQ1mZq81bj/jBXdSy0jWZpVkYV7l3lEQs1CXNECEfshQzcWIl4r5QfJAhAbXgSY3qQ0JZTkmSxg4hLbqSgDucAezcUl3QXLsRAvLZdJwgmHZHNAtptr1aq1AvL8T+0pc93jEyFKQ3witbwjtojrcUmJgJJjUqKvc0chINYE1sfzY8eOlb6MDi+++OI8YlcjsU4CTUKE5eJF9uun9GYsReakhQQfS/ny5S907NhxabVq1calBWIUPFnnPTCPoPGxB4afZ1wwJna4nG4bkXQryUf2ag1KM/yKFClyHHfrVojxsQ2mxRKHFKPKPURrVdR0+D7WJSRxuT49VhEwhYCSoykkdZx4IQBheRD/azBixIj/kcCR4dVXX51NQswPpomRko1Ks2fPHjxmzJjniJk5ot4iWZfXaT+1pGnTpt+nFWKUTQJbiadasRwl/hdry1HOpdHzLf43E/m5dEJ4yNE9UwFHxMohYXvcq1LyIVJzEnNMrTHdeP0d6EnJDwElx+S3J2nmiuRByUO2FqT1AZJjOSCq7bVr1x5L4sZ1kyAQy/Smu0ZnVHbqk4QiGZNiNd6ldnIH843E+klVtYzPwg5yvA+xRUCMeDsd45UBTCnHY63Ex80dbSlGimuVuUNVb/VZO6S/Tw4IaEp1ctiFNHoNJMMUnDx58vvUwOUjXnUcC+5X0v2NFvmTCOKFUHZ7CLgTrsCMEIKIid+DFPeIhUocLVWWbDztluLlI5CkmWCwcMJFmsfWtx/zuEKIcKRVWlo5S/ssW8+p4ysCCUVALceEIqjnxwsB3GzZ6H7x844dO4pQF+dPpqP0Zdxm8sEpFsvOnTtb0cnjdeJjeaXLBoLl94gx7qBk40tchLvidfEp/CTRUyUpJwh3pyMu5iy2Xg7W4j0IOUIScWS+6DZWwbaeV8dXBBKCgJJjQtDTc+OFACLflbHk3lm6dGkFiu79UcAZD1GtM0mMqN+kI85Y+ocffnifGrwCYjFSwB7ZsmXLA3x+LlCgwAaT88ULiCQ8SfRj+bIHA4kF2klphi0uh7IRF8TceyK4kI19d6CrRyHqICsz1zpbzKdjKgKmEFByNIWkjhMrBHBz5qT7RW9qGWtSE3cLV6qUUCzCkjEmRg0xutA9osG8efMGU+RfTMo1sFwsuFGP0mXjr6xZsxq1UGO18OR3kNQaSlhFkmNslj0qMU2wv4h3YCv7fBpiPIoFmerLZZLfdusVxRUBJce4IqbHxxsBrBVnJMa6khjTBIslpEuXLlPolyhSY8/MeIztpMTQnKi7K4ss3CDcttWlWbFYSfRjPE3Cz2gEsedhJQXFdrxUelwMMQopysdmRfmUeIhFuhDrdBVEGUJ2cnrIMq3jn0pvq9S1LCXH1LWfyXY1FIt7E/9r/uuvv/ZHSiyyd+/ec6gtHGGSGGXxN27cqDRp0qTvKfSvTvKHCG1bqMM7R+3kdAhyhhLjg1tELEYhRZsR48M3o8Qdo/+txJhs/0r1wh5GQLNV9X6wOQJkpeakM0OzkSNHvoHF6IjFOKNChQozsCSMutco0yhMa6QXcdlWhYwdxZ2K5XK1e/fu89H8nIhw9lWbLzblTBBjMSYKOaYcWPRKFYH/Q0DJUe8EmyJARqQztYwNIK0+x44dywIxrsCVuoAOGwdNTgwx+mzbtq07fRlb4Fp1YV4LHSGCyILdQPupkZQunDI5XyoYS//2U8Em6hJsh4C6VW2HbZofWaTCKJ8oQfzvleXLlxfs1q3bVjrID6abfBCF98ayI0nyybJw4cI3UL+RWsZs0nOQ7Nd7ZKVuRry8G/9WNZZ/340xMceon4oYeZq/WRUAReARBJQc9ZawCQLUMUaJfE+ZMuVrxKqLNGjQ4HCHDh2+QZklCHUaY0XgqN/kgnjfojSkI3qpOaRkg1rGu9Qybn7hhRc+ljZKNllgCh+UeKxjdDmHVckxhW+mXr5NEFDXik1gTduDEmN0pMt89T179nSkbKMEIuJHKdkYL30EScAxRlZYjJmZoxMlGy9QP5cTi1QsxkjKNXYy32+0ojohxedpezcev3qsetE4jcrklcQl/VIEFIF/I6CWo94RxhHgYZsXLdOeZI22pPD+MhajFN1vImPxrqnJRJIMwfLn6LLRd+PGjd4QpcjCWerXr7+HpsV/koiz0eR8pq47uYwDfvair0pS1F1wUnZMLhuj15FsEFByTDZbkTouBHdqJlpCDaRfYnPk4K69++67H1NKsdJkA2ERLEcvtTUtrj7CMi0txChdNpo0abLvpZde+py2ShuUGJ98P0lXDKxsZ5KiQon9Xkodd56uQhEwi4C6Vc3imaZHE5FvFGlemjhxYnc6X4RQQjERC263SWKU1ke4bMtTx/jOrl27yoorFfephZrJM82aNZtJt4htEOOdNL0Rz1g8cdgM7JW0qoog3hiuWCkCisB/EVBy1LvCCAKQVsbDhw+3JjHmJSEwrLjFlStXnkkR/mUjEzAID3U7EnCKr1mz5q2VK1eWPXfunPzMUqlSJT+yYGeWKlVqJtZQgKn5Uus40uAYxRpn3Krh0Uk5qXWpui5FIN4IqFs13tDpiTEIyMOWEorW06ZNG0QD3TxvvfXW9Bo1avxGMsxNyMsTN6h0YIiUrgwJQQ31m/Lr1q17fdiwYW3JTHWJLvK/hizcLLJh/4CIryRk/LRyLta2G7FGe+LB93mZCEwr69Z1KgJxQUDJMS5o6bH/QYAWRNnFYkSV5m0IsgjZouF0X6hAzPEXslYjIchbuFYPZcyY8eL58+cv8ntxs8a5wS5F/sWoZfx47ty5jRAVhwfdLGXLlr1Bss+S6tWrT1JijP3NyQuLvFhEEG+8h/vbqEpR7K9Cj1QEkjcCSo7Je3+S7dVJr0QsQldk4erRsPi9VatWFcYasRDvs6Ou0YuHr6OUbciDmGzShliXERDkLSy8NWfOnPmbBJqjPJwvxmaBjJGR8V9GTKDBiRMnPBjXQvZrMK2udtHyahRdNo7EZhw95v8QoIwjnTQeRjUoSAUS9K5QBB6PgJKj3hlxRoDnqiP1hb2Qa+u8e/fuYkeOHMmWJ0+ea3S8OE+m6D8kyPhRVnFBsiHROM0DoZVHECAz33tg/XXivAbEB3fTb3EMrr29T+uriGWajX6MHXDZdmaejMQcLcwl6jfb6tatOyxz5swH4ryANH4CLxtZsOrtseJvAEWMIHgaR0WXrwj8GwElR70jYo0A5GbPQ7XCgQMHyhL3e+/ChQvZsQBvvvzyy0uqVq26EPfpNkjRjwGlbk4+UTJlUjog1h/EVmDx4sWfYFmWpkaxBXHDovRYHM/PV6Ga85/EHREsx2Xb6q+//vqAzNQcknyTM2dOaXW1mTjjp8x1EDFxfbjHegctUvRvv2PHjiKXL192JmHqDNa+sXZhcbgMPVQRSPYIKDkm+y1KVhdYEIux59KlS5tzVc60nVpevnz5+bg4NxBbDKCwPPIRK1A0O4Ukw3Hl3cCtKhbf/7Aaq2IFtqJDfFkSeN5FzcYbgpwAQZ6PWS0WY5T6DZbma7S68kZMXITEI3GlHmSM3xjrMMRoTFQgWaFs24txILGpMHFhJ6zuE2Ss6suFbfHW0VMoAkqOKXTjEvuySf33wOJouX79+qYkxDj26tVrGbWFC3DNbZOkm2ddj6ixcIz08tsPifrmzZv3CPHJAUi/1SPJpjsxykDikpNlLLIp05OAUxQr80USewoJMXKshbZTvkjDTStYsOB6LB59qD8L9Mf/3o5m0Hmwyu14wfADxzgnR8VvWj1LEVAEFIFUhgDE6EbcsDVC3sd69OhxnMSYz7EE3XDRxbsXoJzLxxli/IOayIt0z9iHq6+KxDOxJssNGTJkKRapNXfu3FbpJi9zQ8xv37lzJ2cqgzdRlwMpFgTb3V27dj3G9wUSdXKdTBFQBBSB1IQApFXxu+++W0cCzKU5c+b8hgs0n4n1CUFiRWYg2WYCmqhXmWM9JNxl3Lhx80jsCSOeaSXJxwp5nt27d283XK05TMyblsegnKb2jz/+eGTQoEE75QUnLWOha1cEnoaAulX1/ngqAlhq2Yn91cSlWqhRo0ZHSOJYCKk9swSD8xyJP9pRf/jEXorSKolykHu1atWaTElIJWKLlclq9ZGmyBCwI108LLhfbyMkvrN48eJ/E2O8qtuVMATYF3nBcCTjN9CkrF/CrkrPVgSSHwJKjslvT5LNFUFcdv7+/sUgrY7EAC1t27b9g5rCg08iPI534uMshIr+qQ/6nemxOv2JIwZR1nEFcvuPGos8oDnuUIUKFdZCwi8iC5eH86P0UslGvYks3PpOnTp9BihSdqBfCUSAuG5OMHeQLGOG0ibHCcRTT0+9CCg5pt69NbEyx0OHDj2/evXqIhDUZlydW0QS7nEDE7/Kg+h425kzZ/bYsGFDAaxCZ37mACHeweL0RRR8Dv+e/bjCfx7WgfR8HIV1Wmffvn1liHFKZmrAZ5999hslIjNIHDllYjFpfQwpqUFMoYzUOBYuXHg3eGirqrR+U+j6n4iAkqPeHE9EAIsuG3G+ghBaGOUXOyGtdI87WDJZp0+f/imZp20QA88qLaTkIxmmPIjT80DORsZpbrIkM1Gr+AuSZZK1+uALwg0h/nUa1+lR3KhlsD7Dpf1UiRIlNmClPijv0K1KGALg6oInIB9xRwfJVH2a+ELCZtKzFYGUj4CSY8rfQ5utgLif9+nTp4viirsPUa2WxriPTiZJNcePH2+EtdjI19c3Kwk2UZ3lReKN8o2oDzV1ls2bNxcICAjoQJ3iRJGSgxAfjAWRihSdI1mph+n9eJtzAikV+RnX30EIVovUDe2wZAdfv37dk321I577j6FhdRhFIFUikKTkKP3/eFBm4S32LP/PEF0vFxUHkYcl1oTzs3rzieIH1o2XNLfFIpHuDw9/STakq7wh88B9uJ4rtrGWxx0XVb4gpBD95h31b1FzEctKuhywjkD5nXxkHVhL7nJtEEaceufJtUsZBePdlnNlLDDLgqvy5sNjibtMrkHaRlEjmBlr6+ojgtKPXa+M95RrciBJJj+xxiwUi4cQazzOFGGS4fhwIoc0N6Ye8WXihfmFCKW/IiRokWQa1m9hbyxYnlE/J3ZZkuO60mJqBtd8TvZc9k/2TvaH+sU9lG8EYH3aSf0d53jx+9j2ZnzWntrJ/QSe6aP3QtbiEoOr7OcjajHPGu+xDwRZz8P3xUP/jusDJFbzR2vcOsnaZC2yBlkX95wH90lUnFb2iGuSvxNv1u5JbaoLggvXOVc8AXJPylz/mY/7L52M+eg9ErMm+b/ce9H3Q0xZj1Uk/9jTYBU1j+uW6/HJCYF416kldBHyh4XG5muk7ffiwegqRcl8SfPVSP64rWJ5yMP1cX+00XNLnZy47qyQh3xv5TwLDz87Hgz2/GE78Mcpv7OINSMfeXhLhqQ8CDk26nz5krn4xDwcHvtQ4ny5PgvkJ9cY1VuQhzfPIkcrP4vkI/9mCocIYUTpaSjHSVKLXA/XEiHXI9f4rC+5Nlm3jC3nyznyM9ZiZYyoBcj4Mg4/ixTBb/k3x8j8cm7UNUTP8/B6HnwfxeyMLdcoeMjhskaZlzGsPFhlDdkRCc8mMcAyZcocZ48iWKdV1h69bqaMcIZE8/n5+bnJGFxflOUoWItblTGi9lEwlnVQmhGARRggliOuVgcZR65d9pHzPJGUi6pjLFq06Flxv4qWqhwj+8aP5fpiPjEwPukefvDAl32OwY+x7GQ+sVblmphDoIq6H2SPHsLsqfdD9HX86xpkHvlEjyfEYSf3huyb4CoZvHKe7Ncj5z96S8Rc+6P/j/p7EHzlPucj90OkdCiR8QRruTdYl6zHgZ9LmzC5/xy5DnuOz3Dw4MHsco0IOPhHgQt38nn0Xolau+xhtHi8WPZy30XJAfL9gz6w0fd41N9h9N+TlXnvtmvXbnPt2rVHMO9F1vvEjOVn/S3o7xWBpEIgKcnRCYtj5Ntvv91H4lNiXfDwjXm4WOQPXh6uoqf5/5/z/4UpxnUn58rDV8hQHj5iqciXjCMPd3lwyO/kgShfMSQV4/57FmnFPATkWuQhIPPK93Ke/E6uVb5kbplP1iREAclEHS8/k7liCPlJGx79cI06TsaUa5bvBQexwuQrhvBjCEh+JuuXLyyCqHnk+OiXi/9MFUNWcpxcl7w4xFy7jBn9khH1sxh8Y/ZC/k/sUF4Son4v65MxYtYneMvP5HoEHzlOrjvmWnHrReEiHzlHfi97I1/yvcwt1yU/EyxlHBkvZt/i84ci1yHjxVyb3BuSEStjCpYxe/skvGI7p5wv1ywfmVPmkb2Tf8tcck/EHBPbMR93nIwpeyZYCTaCm/z74b8BOS/m3hacZe1yTwgOco7sh/z7aV8P36vRL5BR50W/bET9X9Yj65LxBVP5O5a9Jfv4KgIOh1q1ajWMUp35CVmvnqsIJAUCSepWZcFRVhFJGGHdu3ffxh/aff7gIsUIlLdN/nid+GMMk88j4Dwg9Zg3df5Axd3nwoMiM+flIwaWiUxLC2LZlnr16l2g+e5Rfh/Cw12eCFEWmfyfn4m5JdqfUa7Jh77+ZUHKNYh1wcNF3FeRPACEHYpQk1dC5sHCiiIzLKwruA1PihyaHCdWGHPJ2DLX41xY/5pHriPaLRfJw9WZh3cEhOfIvN60fipJFwxHWRMW2L2KFSuewkV2nWsJkWMFT8FNXJSMETPXw2uKevOX4+TD9QrGDjw87WV9YuXwfR7KMIoiLu5JN4yoBzsu1bvome4ng/S24IbB4SLWAXO68qANpZfjc/RyzCDNh4UI5WEsWMjDUkhCHqzybxmfvbhcunTpc7hd7zGnBxqrJYlZpkOSLuqhLWTFOJLhupc5pNegWNyynhgrSqycx7kBH7Uqo8TPuT8Ez3Tgmpu9KobKjrvcc6K+wz1xPH/+/BeZ8070HsXcVzHC6bGdM8qq5cuJtXpSqymdSrIiXBBFQN7e3iGQxRnmPCeyd9FrkX14YIFF70nMXsl4MeuMseoeXp9YvS6sLSt7VZwsX1eE3KNejCCiS9wb50R3Npq8rBCnHC+WnXgj5G8rgr0RT0TMfDKHWM0xc4l16CCeELE82Q8niNcb/PITOxbxeQvWv6VYsWIX2M/jMhaYupKU9Zy8OIlBynHZOL86WbH+TLsw+p5OimeczqkIxAuBpCRHeQCEysMTcjzZv3//9jwEpQ4uVrGWx6xWHh6O/OGWpvRgJLJkmeQNFtfOqVdfffUP1F1GPmHs+MwXRTJ0iviIzL+3+OP3pC4vDAHt3RSsT6QsYdwjcz2Ix8Rjl8Rd6k53ilchxgKQTAZic7d4mVjKXL9AWIefMOaT1vU0b4E92YxNVqxY8T1zeUb3Z5SyikvvvPNOexEXj54rhjSicIAQl9J+qr5YJWJZCEGKNSMPa/k+xr0KaYazF3/WrFnzL8YOIVGnNkQyivXlYw4LIuahuFrteLCfGTx4cMOHCCIesP3rFAeShTqxVz9K/BeLJgK338Zu3bp9wsvFzof2KiH7FEVeXH/R+fPnTwC/rEIi6MFeb9++/SISkUZJo+eELiT6fJnLASKqjGLRBEjIR15MaPp8Enw/hxznPER0sZ3y4fslBoeoNUmLK0IgX+M+70Q82Z11hKFxe4i615Hs2STBj2MyIUi/iwSuPLL3cu9IR2ruGfH5JpmHKraL1+MUgUcRSFJyFCtErAz+sCTu5Mof0vX4bpGEWtDkLLNgwYLvsGTK8Edqadiw4Uk0JEfy1i5vrkbiHjzIHXkTd8NSrD9y5MheWFeeEEAED7/t6H/+zNv0BlNzSYyHB2B+6gf7QfY9eUBlwOIKEGKE9EeTyHTUxFyyJrEsaEFVBezexd1djNifhcxRiR+FY5U7YK3mojnuXfYqDPIK4+EX5YsV3CG7GdQn+nB9+cS9J641sVrEMhHCjHF3g40fscS1Yh1jhUjHjVewhnPy70heXq5gUYYzhhdziqi4xHafHaB9xg0DcXhybZ1mz5791t9//03Hq5wWHuxb+PyB9bMv2sKO72334DyxtCQpi3kGcw+WwhoWL8ItOpeMgrRm07fysIn1yITsQXpivLXXrVv3AfvlIxY6L2T/UIs6ghenVcxjTExckuawtgcwT1NajbmjrBPCfb6VVmMjIOGl4u2Ra5Jr4BMS46qWF6Jod32cktASvBE6gCJgCIGH3TqGhozTMHbRSRFhCX1wSJYmHRxe5cFeETenPe6lY/wRj+XNXYrI/eN0VU85mAe5C1ZI/RkzZnzMA76AxJV4ez6EIPeP1OmtkGxVk3Ph3mwMiXTkQZgL6+A2ijGreWP/kYL8jeJONTUXD8HMCIoLCVfFerQUKlToJmvaXKdOndPimsTqKi4kijV4L4YYZW5xl1EDuYQXkZWcc1liUDExSLGc5Hux4DnGv0OHDmsgiQOo5pSm9rHb8uXLS4sLGPI4yJr+gnT9cMmF4Em4YGJdkIgbFncD1jSA+YoLYSNGsA5i/B2SXsED3EhnD0mOoQ2Uz/bt2zsggtAUYnTBEr5DvG0huIzEUt0vrnsTa5IxsNILQ1Q92a/KvNBIfM+vdevW47jXJ/JiEe8XzEevD7Jz5W+pPvdf+y1btuTkBSCc9ezEY/ED+C14pLRHsrsiJPYYcw9Ex0Vj3MOmlq/jKAKJgkBSWo5Rz9boVcbHtfkAIKya/Lytv0m3gXaSwo7+57HXX3/9+3Llyv2NBNklU0hKZiZWSGtiKx8tWrSoFCUO4sraCwmPgSBXPiY2Gu+pIatMxJLaTJgw4Q2sKR9IKQg34DII5pfs2bMfivfAj5wo1imuzfI8/DqPHTu2PRaJc9myZS907NhxIZbItzyEXyN+25UsxzpYfmuEIB990GMpXqL84k/BGoJohLu5AIk3GcTqlDglcadzvKxs4uG9kId55cmTJ3+K67YCVmU4scX9fOZghSxjrla47cIgEykbSdA9wYM9MyLmlcmG/gQ3ezlx87Gm9WD4P8bfaXKvcA+XgXwHYjW2lVgtVtw11rSIzxis7XOm9krG4cWiGPf6B7gwW7FvbmSdnuP++5N7fRp4P1a9KD7zg19G9rwlezUIcYcS3OuR3A87aTT9G3HadbwEPs4T86j7NCaWGZ9L0HMUgSRFIKnJ8eHFxysuwVt0eazFN0eMGNGOP2gPrDffgQMHDuGhMe8xdY/xBpu3YBfIqvvo0aP/R/JJPiwgK5bS/ldeeeVb3IGrTD5ssbiyQzBt/vzzz8EQozcP8xAe7GveeOONPsxjrCheiA6LsBLWzld8alPT6AyJXcAymIPVM5QH4GXW+DcSblWmTp1aH9fxGImt8lAOIO70L+kxkk6OYEWf5/yZxKaqQYJFpU4TN9wJrMbVYiGKi+6XX375GSKpIFYI1s4u5hmF+3YrRNYIKyUXrkg/LKFlCUngwBWdk2SYFtwXr9NQuTQEZeGlYj2fL9m3fab2CotR4n5FiPt9xqcZHgUXrj+IeOYMiPEvXLhH433DPeZEXN3lcW9+Cgm3kVguOF3Gxf4HL2hjHlUdSsi8vNh48UL0Ei+A/XmxyE9CloWErIPM9RsvMU9Krnm0xEYuIUEvOAlZg56rCCQUgaQmx5iYUlTmaFwWIw8mMvUqrVmz5nUsuZaSLccf7nESe4ZixS0wSYxixfHArwGBfMBDNx9uWgtvz0ffe++9D3n47xFh7bhc+9OOFfcm1ldnXIGvQRbeqMaE87Bd2adPnw9NEqNkMGKlFWaej7BE6vG9AyR/kRjtGOKZU7EUovRMSTDxJaY4k2O+gNRehDj/wL0rNSX/cUlGu5QDIckzPLil7lHuL8nSjcRVWxlR8f7sV1nIKlJc0WLxYI2uxiVZSMbGknRhrkXEAo/FF89oi7sjcw3kwV5UxAhw2W6AhH+EwLdKIlB8x370PDwWPszzFtg0gSRdeJG417Nnz8mQ1QyTxAie9tI2jNjfm4QOmkt8jzmukAA2mczoqSaJUQQ1eCHrSVLRq3gTcktSFQlFe4Xsybb9+xkvLY+GaR5O7DEFu46jCCQKAsmJHOO0YB5GJXigfsgbe0NUV9yJgfhBVl/y/9W48q7FabCnHIwVl400+Zq8RX8KaRWW+Bnuw9Mvv/zyT1g8m0zFraJes4ntkeXYfMqUKe/w0PWGRKy4AefjzvqCh/wJU2uScXiwFxISnjhx4vNg6YAleIuH4ExiSqNZ34OYH+u7AqbbsR79J02a1EoEq3Eb+mJdOIHzY5OcIEkhoCgSErctVmFDrLiBvMQ0Iq5oBbdjuOdGYlEu5iXHnTW3Rj2nMP/25QVnTXxfAmQurKtyEMhALJ+iJGhZiJvugBy/gRg3myRGYqM58SS05uWiPe7HdLxY3AW7tULC7NtZk3vF/pTm/vuGNdXF0nfCPX2a2PM4Snmm86JyxdRcvAhlJ47eEPzE4s4t41KqcYS5JMa49FlqVRz+OO9PUuc1mIJHx1EEEgcBIQLeuP+QTu+4uw7IwyY2M/MwdeEBUY0H7XjenkOIv0mX+BM8OERMIFNsxojtMZIVyNv6W8QvxRKy8oCwIlqwB+tRYpvpYztObI6T9ZN08yZW22Vcw1bIKHLo0KFzRIpL1H5iM0ZsjsHCdgK/ysOGDZuOpXOXxB4r5HuJBKOfeBF4bDNhyUglyaQZrrWzuEL9yDB9TVym4pZ92pyCEWRV47XXXtuPhRhJLDiEkpDNZPrWERk8SaIinvUjhHKtb9++vIOcaiqScqLAE5u1PHyMzEU8uDNu7iPi8mYu61dffbWZ+snaJvdK9gL3c8FRo0aN5SXhFi5HK9d/k3jteCzgwnG97qcdL3NxX+T+8ssvN3CvW7ESrWB5lCSjNrInJudinjwk+HyO6/QCL0pWtHStNJ/ewb63Zq8yPmsuaVNGKOMMyVRWqSHFs2Ll+0hivpPlb/1Z5+vvFYHkhkBSWo7iRo2zW5WHbU3cZe/zZludP1pn4mCnsa5GYnGswCqJqcNLMM68RWfDmumExfMWlmlUiQIuxT2dO3f+FetJMkVjq/n5zGvBMvCmXKPHtGnTXmV92Rk/HItnLm6zH3kZCCDRIsElDXIR8mIhVjAW91tYIvWxpNKR+n8N/EYRK5xEYs3lx12suNIg6V24dmdwjT15MRmIdRfCA3AHZHYGt/KjmrZSbuAGMVXCMv0Oy7AsrtJISP8YLxfvEreM0tIlriruz064qe3Yx5Vi3YlQg8jFPRO0hw5gLA/G6o4V9w4vM4VwRVsgrF28dP2Ae3OPyb0Ch+ys/yvmaon17MF9d5t5ZlDaMAzr/mRcrvtpx0r5jLxYcJ9LQtZzUhrBC9MZrOBhkM/6hMRkH51XYtwU7feT0hrmyi7lLtzr+7j/hvDy9Ldo38ZyXWo5xhIoPSz5I2D07TMey41K6hBpkdi8CcvbKdZBWzL1ahAPycAf7ilxz/HGOlsK1eMx/2NPEQFxHuw1qYt7lYdGPlGkIRvwOBbqb7j+lolos6m5hCQk0Yc19SdbU+rwImjXtIHY2wSs4n0Qh5H6TLFCiCsWIub3IgkdTVifG3HF2xDjNMGP708/bU0i0MA1TSL+OQ9ScKfGcxCk156XCHlxcOVh/uDBKMlLjP8cLxaDsEaqS6YoajSHX3zxxT9Z30H2MRsk1hfr623ixq6sdyHuu9EicsqxcarRk/sGV2BzLNC3IP1CIkKAe3iTlGtAImtNEiP45ee+60mmbWOsXw+sxttY3fMpD/mN+89Y8o1ol2KdVoCoXsbF2YK5HLHkzkDAY4nVzsGVesvU/QcxZiWe3pAYYz/2JLsk+rAXu0kA+5q/r8VxIMbHvlfJn3f0x9Ql6ziKQOpGQB5quFV/IqHFysPsiFhPz3iTzozVMoR4S5C4Yhs0aODHw/A1065UiVvhtmr1ySefHCbzMMq9RJboPh5UveWhb3JXpDQEsnqHB/lNcaUyVxgx1D+JlZVmXY/tnRjf+aVcAxfXWCydcCwrK4R0k8zbMZBbntiOiTWYjuPzQhCv8lLiW79+/etYgvtlDTzMC/FQF/Vp6ebx/AcffLCbFworcTHrRx99dAXL+GPW64b7e+BLL710HLK8TVbxYXAdAFnmFNxjex0xx8lLDDJtbXClnsRFbOXFxfr5559vJoO5kvwuruM97XixrsjY/Q3crvIiYYWoblDm8Mez7tu4XgMYSfJNuZ9//nk9+EaKEAP33yG8GD0grsxxHe9px8tLCnHnFwkbnJb4NveGFWWiPZDx87y0xSlsEO1W9XvErWrlnpsmqnUmr1vHUgQSA4EkvWmjtUefKJAdA4A8eCVTlISQjsR13ClMP0FW6s/EAZeYdKWKygkP677USw4mLhfVgokH1F7iMD9Q+7fYZEIHJJMLi7EFsb/3UfPJRBKMhUzHJcw3DMv0jOiemrgBRI0GsqiAZfA+cbG2oqVKPO6qlBvgyhzBvLFuJowVdg+MLmBpjsZ6uYo6UBdczpWxIt/n4foSlto1aVxMgkph6iW9pRgcwrcQA7QnntqXB/4rWIoeJK8EktA0C1fuNFypW8RFG9e1SvNkSPoFKfDHNVtIXIEkjmzFuh/MfHui9UvjOux/jpcCfwiwKA/5L3A7isWdgbjwNeKvC7gPJ5qsYxR9XEpgpDRJ6kBri2Ypc53Gxf4dxLUc97rJsEEuXLYvc1/0Ya68xNPFFb0bK/h3Xp7WSelNgsHTARSBFIxAkpKjWI/RXS1EKeexCiJiqRDj+Z4YWQOyHjNicZxAkms4xLiIB/tVU9jzYMpAnVqN8ePHf0TZQX7pSQgJHMFCEkm45SazUnHT5oYYu/Fgf5VyjRzEqiJwz60l2eVniPEkc/2rhjAha+TBXhCX4yfyYAdLR97sb2CpT8ZFOhVXoBTbx+lLXmg4IRTLYgXnX8TirU6CUlfIsCj1n8WwUC2SJSrKQeJOBVPRW3UjnhnB3LewvHZgUa6ESLdhgfnG5yEsknBYUi/wUH8d0s1PDFPq8HZC9sPxRIiAfZxilk8DAGstD9h9yP3XghigG2QeJDFG7sPJuFX3xwm8pxwsLy0SY8SSewVybCTEyAuZvyjfcP+tNEmM4krlxaY98/TDos8t+sYQ404+v7Evi+OzJ6Zw0HEUgeSCQJKSo2ROSqKLSMg9LsFAmq0SHxvEg6mR6Iri5jyDsPIPuOqW8rA1Rozi0sPaaYib8WuRhJNOCmQGHqMb/R/MuRzr1Fgdo4TVeAA2o5j7VRKLvIUIsRgX8HD/HfLYYvLGgKSKE/N7HcJvLr0TSaC5zpqmULM2EmJLUPKI1HZiVe0VtRmsjk08ZMdCwiWlu4YkjxAbu4zVeA6Lzp+5zvMCcJbvj2OVbJMmuIK5dESJ63ohqyzsUTNc8lKHl1+sU+JjG/h8S5blHlMF/nJd4FeUPerDPdiaRCY3EXzHnboei3ECe7U3rtf+tOPJFi0E2X9AnLsObk0nPAgnuSdExH48L0xRTYtNfPFilp0XMlF5eosYY27pzyki4pDwL7hwl5mM0UZfr7EXFRPr1zEUgWSPgFiNPEx/l7R7rLNj4maMuWhI0YkU8voQyBCsjDu8OVt5qB8WN5DpuB9v6FL0/OKbb755kmxAq8T+3n///V1YQ+1NlgDI2iSrEmLsRxbgZTJSrVi/ocStRkvMzfSGIedWkVKQ2ZBUiMR1sXYuEbP9BUKL6oxr6kvKP0iS6k+s6iqJHFJCEfnhhx/uwrLrjzu8KFZeJtlr+UhrrITMK8lLjCt7dVpijFLa8OOPP25Avq1sfGKWT7sWiLEI0n2jEEQPlBg3VtUlCOVn3J5lE7KGR88FHxf2qirKQaupkwyR+09KX/As9ABbL5Nz4Q3JRZz+A2K0Z2RN3H/hlIns4W+tncS/EzLXU2KOWsqREGD13CRDIEktR8lMjG7m++ChKQ853JoVIMJ3SU6pS4zKjbf1o/369fuVZJzZJuN+QozRHRvex/KJskKwCvZD1pKpt8HkWzQPJm+SUbqQ1DEQ9zCJqNktlIX8Tezvf8TvHltCEd+7godteeoWvyTTsRGWghPWxwXIcapkhCYw+/Bfl4S1kxF3ahVI9y3cm1nFYuQBvxe39xdYcXuxDC9LD8f4ruPh84QYyY7tiStaumsUlH6CzBUVI8O9edCkK1WEH4hvf4rbsSVuYmkRdpN7YrLEGFnXERPrkTEkK5V4c3UylQfjHanDjxyJMR7Fk/A9yUUSYzQmYi9dVfibeoW5epIVnQ+Xdhjx2d2yJl7UltjQlaqWo6kbRsdJVASSlBx5eIbJAzW6jMNOEmJEJos/3g/51CBr1I0/Xl8IZBIun6UmZdpwz2XkwVSbTMtXKWrPL6jjHjxGucHnWCWriWcaq2MUV6B0UcASfgXXWW4snjs82LcTf/uTNRlzD8sapNxAXI7EyRqKmgqWyHUe7OMgSImRRUnCmfiSlxgsjqq4Hd+EGIvLiwUJNgeojxsjdXgm5fvk/hDhBYjxbdzEBWUu3IDSNmkoruK1JomRhK+CrEdqJpvjSs2AGziQl5j5ZEePgZB9TWAnY0hWKvtTkVKhV7gHa0LIjuB3mHtiPNb+QpMxbsnoJsbYjHuiJ56LfMwt2bb7+Lv6mntig42J0cjLkSncdRxFINkjIA883pa/lLICrJrT4pbh7bYw8bElEGK4lAFgFZyAVHrh4nrgcjWxMHHNUjTe4+uvvz5AYorImVlx1e2BJPtKHNTEHDFjSPIIb+zvU094CQtE3LbhZD7OIFGmEJaX0dIQEfwGv9FYH0GiUsID8OZff/01NjY1pHFZczQxNqJsYjtJSxGyV5Rr7BCFGllvXMZ61rFSQ8lLTGPKP3zFvU6mq/Wzzz7bQvJK/YS6Ah+dm/rNwlj2v+P2vkrijZQLXf/111+ns0+PVQ561rU/6feiLEQGcdnff/99CXt0BzKMIJa+R4Qg+BswqvLEtWeXsAHlGsdF+UbuP1SKdhBjby8vo/Fdw6PniZKTdAh5pJQjgnt9vCrkmEJZx0kTCMgDVlLW5SGEtXGBJIvOxN+WQYh3Sd6w8rZ+ijfqASb/gAVYqX8jbtWT2jFfMg6jauMGDRokD4sWpomRB11eXJvfkB16Q2JkzHdP6r4kRmZ6kyGQash9rRKJNsEUJZWruAaHyTWYnAvy88BifB439yEhK8Hwp59+2oSruCkxWneTc/HClJUH+yvE4E5IjAzr10psbgMW13Om7wuRhKMLykxeLG5LjBbL9CLlQz/w8wIm1xSdlVqVEp75xDPvSZwb4t+Py7gt2BrFjzh+DtyoH7JXp4QYebEI++KLL7aTVdzWZIxWXlKwuEsS9rgs+yTScSJLKKL5vKzJy5kxEja5FzqWIvA0BJLUrcofTVS6Pw+MbLgbP+cPuQAJD868sf9Dd4jxJAwsjE9G45MWLOUauGqbSj9GEh4KSyNeLMcDzPUN5CW1XUZqC2V+KbAWSS6SjvpiUWXmQRFBUscmSOsz4nBPVaOJ6y0rD3BI9yNcjnVFEBxL7irZmzNw04032egZ/DKSSVmLJsUf8oJRSloZYS0cxUU8HEt1k0lXqnSHoIayG65AyeotBOGLK3WLuKKljtHkfSHEyBwD2KsmuPU9IMfbxONmkDE6ltjcP3Hdj6dYjA4So8WT8I5kYBNHdWWOQ2SL/oFFt4b74j8yfPGdW14sRFieOsYXuQ8Lch9E4F6XFmG/RHfXMBYLhBiL0seyA3N6iss75u+aFxi+jbu4Q3zXrOcpAiYRSFD2YEIuROJEPGzdhKBwnTnyECwqKeyQiC8i1H9ikUykfu1iQuZ4+FyxCnE71sVt9jEPpmIQYQQxxuPUF46hXGMpyQ/GYoziWiTGE/VgwlWWgweTFVfdBh7u3zPPGUpDjMVhsEKL8PDrRSePxhJjBL8A5llAucZwXFz7TeEnDznRtWVNn0GOz0n5DaS4B7KaIA9bk8QoFij1kc2J0b7FS1MhqZlkTZuIkX0r3SFMJmWBXzHIqj8WTi+s7wwkp1zH0l8D6c+A/I3FGFmTE+GBkrjuB5JQ1JBEs3QS48Z6nERp0nySsm6b2iuJcUt/TBKlBoCfD+OKJbwXr8xwrLpV3H/GSJhYaU7uv87M1QtLNSpMEEOQUqYFQcZZ+cgUDjqOIpBiEZAegRLvEzeMlHQQfzmORdJRUs5NLkqIkYfSANxLvtJdQzocIKJ9CFdWR9OuVCldoH7sfVzF1ySeirJJJI2Y5/NwfGZng7iuWcoKKNeYjms4WEpDmPMiFuQIsRriOtbTjpcYLRZPXeKyB4iPRbmiv/nmm40QWBPTcT9iZLmIB7/81ltvRZVrUAhv/fbbbzew1udMu225zwoMHz58Cq7UAHEH8kJxDaH04VjfRUziJzFGMoiroRC0UpKxpEMJbn1xpXYyLQnHteclHPHegAEDolzR3BeRxBj3QPxNTMeesXwz8jf8P8j9QvRcVpHWk79nKUnh5SwUVaYx6lY1eTfpWImFQJK6VcX6kA/uJAuxMn/cPvKgX4d1ZVLY2wP9zaaQxvu4Nwvwhh6GVXCQrNRPcJ/tNulKlQe7aLDygH2DGKoXD4cwYqerScZ5W4S7TW4qD9sKxGi/4+FUm2xEVx5Q/swzDjfxZNZorJ+luMqw6KsSf/uSUpQyUnqD23sPFvdXFPVvM5npKMpBkiiFtfMSD/iCPGTDcTluwZL7jNKXPSYtRiFGvAjf40pthivVHRK+RgnKBF6e5iFaYMxiFO+IlCZRXzgIq7suLxrOkLEv+A3F/b3Q5JrkpQj3cH9i+d2xhvNj0YcgJHAQ1+0oyGuryU4eWL758Yq0JqmoN+SfhfGlMbZFSmywJi0iYI6FGk7WrcrQmfzD17ESDYEkc6uKm06sDvkj4iEbyIN9Fq7UuSaJUWq7SMdvSL3kJ/y/gMRCmOsUggKfYtXtoFzDGAlj1XhAvl3ElSXdDXjASoznbx7snzOPn8kdFeUW5niJddUm3uNKPO4qD9spWMRTSWYyFs/kIZcZV2pd6TNJaUMVVIkiIY99rGkYxLWFfxtzz4lykHSHgBj7Ml9BUSniob4da1jaTu0ySSI82EvwEtNDZNqwqNzxWgRCwiuxHEdgrW43tVdYVi5kpVZkni8hrTpkKDtBjEfAbzTW4zKTa2LsPCjftMXl3ZW1eYvMHy5bKa2Rmsm5vIAac9tixRfFE/MGrvzX8R7kxloMRv/1ADqzYfL3LOVZ0hQ8OuYocBqLb5raGx1HEUi2CIiLhzjjD9KsmIeSH+6gUrz5GittkPEpA3nz448/PkoWXVSjYsTKD0h8ThJzTAIjxMib+kc8YK9LJw9xm1FCsUgy+CSeanIurJxSWKajeIiHSbYoc16EkH+WrhEm55FsUMiq0aeffrpHXGTSWPq9997bhkXcWAryTc4lrm0yKFuyP76S5SjlGsy7jQdvM9OuVKzszDzUh0McNySrl7jptT/++GOaaVeqFPhzP+eg4fJ65gjlvggn65Zyzb0vSGKTSfzEY8ELxfuECs5Ipi33ejjlLlvJwH4BsvIwPFceXsp+If57gRfZSPRs/cjI/hG3e0vkAq/I/R8TKgFfyc7+y7Q71+R6dCxFINkhIHEIyPF3iVXg+vEVqTFTFykJCbypfygyYyIxxsM2goftZh5MbXlgGa0j4429AF0hvmEN12UtPHTv4j4bSqJHuZgEBRPrInHJAfdwQx7kC7Cwo2KMZL76YykMlge+iTlixhCFGLDqTqzqsJRP4IYWSb1tqMVUlCbGJueS0hrcc/2JkR2TGK3MRUnKZinXME2M3GM+xP0W8jIWIHExYtyX0U39/mHpQhNr4/5zw1NRlxrJv3FB3yVrOJLWXgfxLLQ3TYx4R7whp2+Jp5+VuD2lISHUn27BIm5kOlOU/feB7EZDjBeJPYdiBfvzd/aO7JU0COBnfnIN8iIqLzn8PdyXGLiSo4m7SsdIbASMWjVxvXgsBldxdUocMD5tix43H0ThSaZeY8pC+hG/Ksi/RRLuIH/QP/FGu9pkVqo8ELBOX6OEogup7FkgrHtYctuwVKfg3jwkGbFxxeRJx+MKLMtD8COI+DlpEIzleINyjTm4OecS27lpah6skMxYATWxhN/Gyi7J3kQSjztCacMQrPyDJmO0YjGKhiiWyLvEM4tQi2eB8LdDWsOlXMOk21GIUZov47ati1tQlG9uEg+eB3FNwu1tLCtadIFFvi/6vqhJbNOVFwxf7ouJ3H/rcG8aiz1LjJEEts68ZPZgr/KIKxM36m5e1KTcZbNJ5SCpl+XvqT2Z3k2xSLNiJV5FvGMxuQLziEPfkL9liTFKhw88C5KBLu5VK3v42G47pu5XHUcRsBUCSUqOkvId/WV9UsuquCxcrBpiZFWIjw0iJldI4lb88UrbqWFkja4yKckllq/IjJHU0UMeFhJvoZh7Ou7HicRg9pkkxujuGgOYqxZWnROJPjd5MC3EXTeKBIgTccHoaceKpYF7syYPWyl3qSAPONGaxXU2kuSReSaJUawJ3Lb1SfR5A+ujSHTbpA2Q4/e447aaJEYRRych5iXc0e2oc80A2d+A7KM6oZhMvhFscXuXFWueF5k6JOK4skdHeTEbjQdjBi8axl5ixFuAGENTyl36M18e6a5B3HkX6/oK1+omXgLvmbovJAObBKm+uKN78TKTjRezS/TOXELN5K+UKfnJPFjLUcLl0XKQD8o5xL1s6jp0HEUgTSAg5EKm5XBxRfKgP4zFkjshC5cHO2+2XXAvHeeBFCZus3fffXcX6fIvmO7kITEeKdfAZXZT4nE8+EIhrrG4WH2Yy5gaiMQrRX+TUpCZuIZDxZVKMsclslSHYrXmSQhej54r+IFVDzpqHJJSF7Jfw6XjBYX43U138hC3Nw/ZvuzVCYn7SUwY5ZuNJK9UlcQck+sSmTbBj70KEPk+CPEarcnGS+zW5DzRyTflcNuuxm17XyT16H5xVITtTZfWSKYt3oovwO+0xBhxpYYSY9wO8RtVvhF82A8nlJZGgNsF9ioUq/4MRPmadC15GD8R8ccl7vuIfFyIxhxN3mU6VmIiYPRBlJgX/vBcWAZZSN4ojyTXJ7gEC+F2tEP1Zjtv0j/iPtts0gohyaYwLrO+UvTMm3smHrgRuOdWUmAtBf7/MJexAn9iPBWwrL7gQVhHumtAWJexDKZjzY3BFXjeFN4S98MVXQ/loEG4N0vhHpNElT1YPF9SCL/XZCcPSD23uAJxe79EMXyUKxUrZCdux19wBe4yWW4g8bhRo0Z9iyu1DvdHegjrBpnKk8FxJgITR03hhxXnLo2K6S/5MhZ3DQjFBcLy4x4cQfxtDfeFsX6MvIDlJ1P0ZV4spVwjN9ao9LPcDn4/ca9vMOlKlQJ/vDDvQY5tiKFmwy18nvrT4bw8zYhlVrkKAJi6yXScREcgqckxwSne8mAng7LumDFjPqfRbjEQDMcSOd69e/fPSQrYarKThyjfSB0ZhNWbB6EXxBiCJbeJB9PPPGwT1Dz44Z0XixESKcA875Ew0hBCdiQzVWKMov05ltifsQe7WNXgVp143Mc8bEvhOrXwYD/AmkZifRt9sRALFEmzjiQsvSYtwnBpWniB2YI1MgSLw2gdHglRJbDue+Airsn36dmrICy6jTzYp4DfflMvMWJx4z4tgzX1Ie7NqsQ2XdmjMygizSAePMskMUrzbyzu1twTPbBIcwkxsqb9ooaEq3ONyZcYybRlr3qyVx2YKwdhiYv8TS0kRjvlCcSoRJjoj2+dMFUiEO1WHZoQt6q04qGmqz/u06OipEK/whDpOECmZWshTZPASfkCls7/eJhflVR15gvnjXqiZNkyl8kSFDtcgRUg+2nSqFjcVBDVZeJlw0y7NyV5iazGepQbbCdpJJIHoBW36jZcqV0EW5P4iSuVOryOZBCfkHR/2S+yOddgHdc0mc3IPtlTllGMfpbDuR9uSAasdNlAqWWCNBWWhBlT65KCftze1RAsX4OMXogo+qB8c4hY9Lviejc1j4wjrlQ8Fm/RXeOUuKIFw08++WQX3ovmprN6JSsZC/g7XvzO4sq/S2zxBJ6SH7Ba8z1pTeI6xq16Ut2qJnddx0qTCDxCjkfiGnOUWkUy9AZQO3Zayg2wPu7y/U7iLg34QzXa3UAeCjwsfiDuEiAEQvzqPu66uTyIPU1vHmRVV7pc8KAJlwc7b+v+WAo/SVKJybmEGCkNaYmbbD9JSxJjjKQr/Hrcjw1Nx2jlwYm79i3256RIz5HgE0a7sG1YXHVMy89hZRdBtWUp98NtefGCtK5igf8uhGkSP5GEY6/qSNmJ3H/S+oyErGOSJGO6tEZc0axhCLH5yxI3RRwhDPm+XVh0PUy+WAg+3OuFR44cOY+SpADEF+TF4hSx6C7PakUWTY6nHkOOI1U+zuSdp2MlFgIp0q0qD3ayKpsi/fUWD/iCuJPCcQH6Dhw48H1RU8HddNcUgBJjxAXYF4LqjfvWE3IMpc5wG9bcj7hsb5mah4ePIw+mUjwEP8IVWIOEETtcgOexVCfiJp6KGs1lU3PxIpIVEqyPK/ANsjjLUnYirmhRvvlJupOY7HghRIEl34nsTWnqW4jsRnEF7uIzTCThTMrPSSE/1v2b3Bd1sX7ciPfdQnlprriiceEeN4UflporrujKrOd9rMQqIoHIC8Yp7onxeBX+NpF5HXOt0s8SV35fYn+dsLyzeXh4WCCsXcS4f4L815uM0WIFlyVc0Ic11SJ274l1f56XswUQ8mayYWNzrz8aJpF/Jzh0YmrfdBxFIC4IJDU5Rl2r1DrG9gv3XCbezhuR0PEBLtUiuBojyRiVGOOfPAy3miw3YOz0PCh6UYf3IrEeL5JTIiVuRS3Z15DVwdhe87OOE/ecuPxEHJ3UfGk7ZccbeCCW6nwehN9B/sY6hmDtSj/GuuA3SMo1KEGJwH17gKSiP6ldW2YyoUMyT3l5aQDhv8kLRmHBgYf6NokxSncNk508hBjZqwFkR3bBInXD9Sgxxu2s6z2T+GExOlAnWYYkqY95saiDu9MJy/EoXS/GEWOcbpIYxRrjJaY2JRR9Ia1soiaF1b2Pz1Bi0EtNvliwjqKs501ezJpLuQv3wlleLObxYjGe0iT/Z93D+ntFQBEwhIC4Wgj2D5EmrNQhHpKC+mcNLe4+HoCvE1c8TjzJytt6JB3ot/HH/Lzp5rdi8UAeP+PKuiFqH9KNgjjgLFLYy5icSxI6EPau+9tvv/3NwzVM4kkQ4nVaKI02HbcS/KQ0A7Wg/bhRpQQgDDWVjRBYM9OuVFGCkdICOtwfkXIDMkUjiW1uJDmmvGlXKsRYFLm+adwTAeLW46Xi8oQJE6S0xmijYnmJIR5cDrftcjKGw0UJBgH7I7Qn6yj9O591/8bl9+x9Tl6W3iS79pR0upD9Isa4A7JsatqVygtTJqzt38lOvszLksg5noH8349Lo2xZP6GAR92qopAj8nHGypvigqEeqwgkBIGkthyjTEbegJ9pOkJW6XHPtRMrhOJxH6w6IceDEOs3JA1sMukKlBpCHkyvkATTjwefJ4QVTgnFcuZ6k3muiKhzQkB/yGXmhPu0NCUU32LJVSO5xw4r5DKlDbN5+I7GhWZMuQX8MpKOXw0r+D2yKsuKew4y2Ydg9OeQ106T5S4ix4ZV/wLlBlKgXoz9CcPluJUC/29wbx40uVcSY2RNX3BfNOclw525Aon9jScGOI4HvbFGxdxvzsQYa4tcGi72xrhW7bGAT1Ku8Qtx1MXgd9/EPSFjCDESo32Vl8deZBDnIWRgwYrbxkvTD9yLm0y6UnmBkEbP/ZAlfAGLOIt0xyHpZwxEN9NQo+xn/m2bwk3HUQRMIpCk5CjSUnwskIITD8ywJy1MlG+IIZUn7vI2hf4+xBTDsTjPQFZDifFsIvZnLMYoHehxofbiwd5HYoy4siJ5sG/kQfgrbsAAXHRGiJGHrb1kuhK3GshDsCoJN3ZYItdxz82RGBnKN4dNbbRk7hKjFVf0+6Tnl6SOUdpO7YeAZxKj3Q9+xrpriMVNAkd71jQAK7+wlBvght4Mhr+TYGT0JQYrrgwxxlcgxmZ87048+Db7tAkrdQEP9lOm8MMKTsf9V04sOdZUW4gREjlLss803I/LTRMjikvtWVNP9iqP4EcseAsvMqN4iZHYn7G9wjL0EeEMkst6UBucCQ/Jedp2SbnQVF4szsUDPy3niAdoeooi8C8EorNV/xSXG0knh5+k+CIuTIkxkum4T7ICSVIJw9o5iJZpK9PlGhIj4+H3IfWENyQtX9ypkpUKiRUz7UqVrvAo3YzhgR4upSFYOgG4Uv8y7UoVty0WYwNccrvFNSzdIf73v/9FdWwwXQIg5S5Y2j0o1zgpLkfJrCSrcoOIYJueSwrUcdlNheRv8yJhhehvs1dzeMiXNylZJmORqFKVptKriPWFQoaSlXpCumCYdqUS9/Pmxay/ZPWKgLdkKyPIvl8aPZt2ReMiTs8L4K+4UKVRcTj3xnlqXT8QqzU+j6pot+rpR7JVxa06XN2q8UFUz0mzCMgfDJbgCEm3RwZrPw8Gn0fBEPKTJBUsxGP8EYeKLNcXX3yxUawgyDSLSfCk5RNzvUNN1zWRnpPSBpGEk3iMaWKUHpN0t9+EOy5cCATX3Fmsus9MP2wl+YYYVWNaTe2REorouN8GiXGa7kAvD3YI4z15sAvZs1chuOpW8WJRXDIuTe6VxBiRtlslHVBkr3i5uoKl9RcZpM+Z7ESBxZgei7GyyOhJzE9KXljfMdz7XU237ZL4HnG/n7Dc/CTxBksx7Pvvv99Ghmp705J6IjDB395w9ugKL2f3uDf8edlsmZAXMyVHk3e4jpUcEEhqt2qkKLKINNqjrin+UDOSKPI8D713ePAW5N9S2iCSZt/y8NiKfJqxDE4hRt7Y+1HU/xoWlRcd1EOJMYql8AcuxwBTGyXKNySklIIIB/OWXoOHrx0PpytYqlPQZ52JC+2qqbmIJWWChGvSxWMQrtsKxPrCsHoOEc/8GVfqblyrxtxzIk5AjLED8cVXyEr1YW8sYBclCcf3Z0zGM4nRlmA9r5IwUgOLLh0WfiBrWogr8C8SV46YyrbFPeyCJFwd3LYfsiYRD7BAxsdJ9hlHXHMN94Wx5sFSR4ukXg9k7rrw/9yU1gh+e4kxDmF9q01mwPICUYms1Nco6m/G/eFFCc8Z4plj8eDsTWCMW12qpv54dZxkgUCSkiMPMjvpxiAxnIddYeJCwj3XQtw8xP0KYX1YEN4+zMN2ssiMEQ8xRowirCyScGQ3vg4ZZ5VOIZDV3zxwv2QeY5Jwstu8sftAVm9TZF1Pyld4IF3FRTwJl+BYHuxnTN0R0R0vKuM2+4RklSrESiNxm+0l8/E7HuwbTMatZC6sm5Yo0ryCXJuP1PwRI9tK7G+oxBhNEiOElYV6yf7g143SFzdIPigmHgyhGKtjlH3AEirE/fcRRFxDtHqpbT1E5vJwcJxLGc81U3slFhf3eivIqj+iFrnl7wGy2iqdUCDG5bzEGGtxxf1XkASfV0gAa8H/s0CM53jZnMdcI2JZx2hq2TqOIqAIPAmB6FKOkeJWhSAOQYCFpKOF/FzUVIhbnZLGt+LeJEa2iQdIG0g0vUlEpY4Ma+erGDUVdCNDpHExMZ6q/M7YXJLQAck/P3z48KWsKRTL1Cqd1HmD/8C0e05k36TjBeUuhwQ/6Q4h3egp6q4l/RNN4icWI8k3cG6vqO4QlKJE4oJcD5lUFJeuybmwuItTQjGfB3mAlP9gVV0T1Ri8DvlNziMWo9Sc4tLcwH0RTrmLddCgQXtwO7Y13aiYe74A999nffr0OSuuVMgq/OOPP96OdVzJdDyd2s/KlCItpO7zJm7vSOpNz3L/vc9a/9VdI75Y8veSnfvtzGMUcqTZsZZyxBdYPS/JEEhSy1GsCmnQSvyLJFCnuzwQMpOh112Ub6iR85Z+jDygthJTkh5/mzjWmMVICYAPls6LPGD7Yvl4UFRtId64Effc71zXba4nxNSu4MqqSfr/11iolSBeEfa+inU6m4fJVJPuOYjCCxKsisX4FmsrhYUj/Rj3MNf30p3ElMtRcJE4IoXpL2KZDiRWS+i0YCT4bcbt+DMJMvtMlhtIPI7Ejm+w5BqLxYgXIQBCnoWM2oiYfoIm9kqyokWEHavqXbJta4sXgT06jiU8xHSjYpGE4yWwH/P0xDrNi3C9hRembWD4I16EYyZ7jxKS8Obe60UMvR4k6YEr/xz1mWNJcJtsUnnJxB7oGIpAckEgSclRnrHiXhSLhoetiGBXw+XzFrEQb97SLbiw9uPK+g330lrcSyabt3ry1jxQJOFIrsjM264FhZ0lWI7DiIEG8mAKNbVBUq6B6s3bWAiVyFC14Na8RbmGdKA32nZKElGwrhuwrveIk5WWcg2I/gAWwmiJkZkkRkkQEb1NXmJeJQmniMQYWdMmrLk/IeGNJokR/HwgD+mE0hCL1I0M4mASmBZAjMNRLDLWnUTc+tx/z0Ei0ui5Ji9s8mLhC1mNhUyWguctU/eE6JRy37UhKaYXYuJ5eEGS7iQ7cBH/iVdhvcmXQOLpudFg7cy93o6sbw9eLC5BwnKvTzRJjNIxRDCUl10pz5IYLS8bEjbRWKSpG0fHSRsISKyK+NH3kq2Jq+wuCRZTKTc4xQMpSg0Et+B+EiH6mVZuEVeglGuQcHNDmgdLaj5WyRzcdtL53lh3DdyKztLdQFR1eEOPkKbIPPyuMZcotxh1BUYTY0fEvPdI42DJqsSVugMrvL/pTh6S6s/DtiuWxwkp16A0JIJGxX9j0dUxnZUKGZZCOm2EKAZF3ydBlFQsIEGrkMm/EslGpk6yIl1CNvIyEYYXwUoh/GEs41dMNyoWKxhL++2XX345quwB/dLIDz74QJRvnjeNH3vvgWX6BzHM85BuGBbwKV5ovhWpPZP4saZcJEfVJS57VdYkguUSOuCl9i6x/GHqVjWJto6V6hGQBzpv6N9IPSGZmlbIKlwk4XBjRSBpto2svb6mH+w8FPJjVX2MNXpTHrbUFkYgO7ZE3E5CZqZAl7Xxlt6EGr8dsrbouOpFXJC/SOatqXmi3ZsuJBK16N+//1GJjwkxQlbrsYIa4rrzMjkXpJ4Hl+M7lDOckBgZ+IVKbA5XcXWTJRRyzbyslGTs1WSIBksdI27UKzzYh0HC1UxaI1iIbpS21KFR9uqY7hpg6SvWlmliBD9vXMNfU65xDqs3qm0Xe7UZxaemWJNGO8lwr5fCCzOBptU3yVS24lo/jXRgr4SUazzuXhJCJx7bnljpNjw9kVJaIzFhkUHkb/sOGeBDTMvdmbyndSxF4EkIJKlbVUobxH3KQ8iCleUgsmxYcgdI0PkfMZgDJpu38lDIQblBN7IqX4V4M/FmK67Adf+vvTOB13JM//hpk6IhS7YYRCl7sg7DIEv2fQtZK1qkbIksWQpRUrSQYhjrGMvfUkbJliVp02ZtL7K1n+X//b7zvn2OpuVUVx3DfT6fo3Te89zPc933c/2u63dt0FltSGFflW4gS5WpVBKKfXcaON9I7G8fqVSU7hRapz0OldWH5wrLSnVsF4p9X2jb9niJtW0Jh/X+CfVrZoo6qDiypdnmUKmn4eE3Zq2aKL9CjIzBDtolU3R0JG1r8g1lDa0AkoMwJtbBk5sPu/AahtMjgPJwzklISzIBfezYsYdApV4Di3GAMW7Khb7CU33CJuyR8WCAcWuYkAsA+PORY3WK/POIz34MePUARF6LpKKRWU3OeEO87uMw0qqSlDUFKvpJPP3XoVKnRqpDG0xQmtSc7z1tmE/Wa540sbQqhkc5DNyUjBMp8HSt378EVEyAx+1amFqbKIkCuoF8jOK9MJpeMkaGAryWZgNT9FTtFIPH+ApJOTtHS5pr1pam1Svw2VDqM1GId0RnpZoNisdxKLMf35VKdc4kWZUfohQbrWj23so+s/tBm7FGzH4cZ/YrReOF0JuvkvxzaHSBOgp2B2Jx9+Ax/mSHIhKyfmSvniORZL9I7955jHqhPXr0GADAF0gRkyE9gmzlG6ObMTiLkwzixmal2vXGhgxkYH+Ex39a9FBpW+oRd76DxhlTZSx4tknEGzvaFnFl9315n7cJO1m1e7Vv3/51jJafHL4snSqt6r559slgnkvXp67Jc4yUfLrW714CgiPe1e3GdygBKCIG8xlZo6dHv0hOoCehow11i9NVFoBWARb1YyjajSwdiRQ0YHGAg2ItaXAtEh+m4tXdEw2MpvmTfHM6MdqPs4OKi5yuYblBZNxU2Vi+wFpnMCtzjHFTS2uchIJ3slN0aQiKvU6vXr0eJTb7nbQjf86i+fujGhyR+6SMBEZkZs/SAmPcUKkjKLc5CoZhs8i1APsd8ao6MJ1konSj8oOCHMpZPy36rEOj/xl6+Hnipt/BIgiMXxE3vTSaSsV4sE3gScRoXyNuP5vzng9tO1dQ1Pj0nZZ2h535mQzZTtHPGbk/6VpJAr85CWQ9x456jU5rJ2uvFUAWOvYHSrMGNOBNKAtru4qgUecwGmqAvVIjBQL46YVYG/eOXpzPRPbrJDzjO1DsoTFG2+ZR5nIinscwwQoPaxFg9S4JEftE18bZYo4Y4xUA41g9ApKlFpq0AoicEB0PhkqtRR3oE8Qx5+hd0az8ewyLbsYeg/fKzjcH0truLdbymYpatWo1SsYiOm5q8pJeMF7cdEFDNoF1ByG/E9nHDSKfi7jvLpy3LlDC33v+yFSeRlOBJpy/bSPX4Uz8ifCEY88+IEzwE+d9DsD4JUlufQH+n613dX2/nZCCHXpnAsfIHUjXWlsSKM2Yoyne5QCWPNK/fyDG82rlypXD2qeZTMEL24hsvQuhr6o6dgpP7kWA+A7iOxOjBMz9lwOY9reg37iVJQAohRnEMvuieHtShxcWz4Se2wTFehxJRc1Zbw+tc+isEQDxrcSwhkd2o9ErJDZ2PJRwY+rxatItyEHF7/B9Hx7CG5HxYIHRQbsAyTEo88qA41zWGYjn2IGWetMC98qh0n+BOr0e0DexJ1PHyFoPQ0u/GBk3JYNzC1oRnkzS2amUbVSzxAHj7D28ufsAytcj5ScwalwCjseS4Wu5xrfEGJ/hHL5FPPirKPkRk13Xlo7sVXPipzuRJ1CW5xlDPP1ZqOI3OCMH8G87+g7wfHm8z0UlGUcXdX/pOkkCvwsJaE1Cq96rpQlojYrsdGL7Oaism0jsmW5KOXGyhdKdKMb9o4XnxAamQbyoVyCViif3PVmC966BGE9FlO1JdKD5SBpaOtUSAADs7MjG6MpHYCRR5SgzYPV49FBZ901o479Fe4z2FcW76E5s8Tu9U6ZszCae+Uz0oGKfC4qzDrTjq07X0LNp0qTJCGjHphgdoYyFvXrxrppCpY4zU9QzyN8/ocHAwdHyg/bemOSlDoDhFGoxjdF+g8d917Km3Kzq+derZv8PplzoLbKif4aJmYuXOtKesGZg2yGHM5lhGHxeqVWo8XmwASlbdVWFnn7vjymB7Miq+wUUaJkRvMzbREjCQbt4VldDmWXKNcjeXEgJRXdH9NjoO2KN3DWg5w6iXONdLPVMAgIKairJD50B+pBnya0jXQpYHUHC0gjXsjwEetOWcH+JplLN6qUO73LGMo3ScJG2pdxgAMCya/TYJJUqNPdz7NVPxhjxrGbRLKEDinbzyH3C46lEVuWhd9xxxyDLDYwxtm7d+lNjjNFgZecbyzXOO++8r/CkbAlXKIULMP41ei3ktAU9WR8iG3qme4UX9y0ecavoOlrvm9KW04nRDsJD/BngW0By2wi8x4t5j8tb/C9Tgxc+TnDU8BAgTcghOa1zolUjT3O61tqSQGnSqj5jWf9jl5yIVHapLGJH51Ku0Rx6rir03AJbwvHS9oVyDGs9h7Itx/V3A3RvQBHuZ9o6CncG9NKTKKq+kVQq2YwbEmM8CnruKv7cBZqskO4wH1Ny8HcHIke2GbOYG4/nPOjhC/GodgTwC0hkehcPoQslKJ9DkS1zIPXKHliSb3bFw7keKrA+665vxiN79Tpe6kuRVCpKuyKZrvvY+cbpGpQalMHDmWC5Bor840h6U8MCevMSDKTzHVRsuRD0+nuAf388yE8j18Kw2BEjphH5SifiqW4IaE0lNtwXluRFQDmMSpVFcJwV3n1rMm5r0w2pLGzCBNieJ6D0X+a9zXfvkbPlNZlB4Lbdy77T/ltI2c3Knq/0+SSB1ZVABpx+A1+r7dHpQfHynoUlfZnTDXipC2ks8CLKqR3xuGFRzyi9hCLYHmV7Bd1v6qOkyhBb+ZG1/o6XZSP1zyLXwuPYF4q4DRR0XYDSOryh9t+Exn3GdaPWUgnSpeVw1mqE572jsWA8uUGO7TLGGAmMgMhWyg9wbEAd3vr0Ep1Dzd8bxBjvRn6fRD1TdkRYXWLPVzsiDE+7IiAygRhjPzw6+4qGTdfQMNM7BezPIUZbHcByxNUnnj/i6c8B+GEjrpwxyhlvDGVpX+BqPgeeXH/W64ksJ0TJz7NODHMP3qlmxE1rk8hWDnD8+sILL+yWbT9XvGZyWe/wb0XHRIklXSdJYM1KIEurPiCtSjH5KBRm9VVdUe8KZXEJynWadA6JCIvwfu6QdlrVay7t9wQQagsPg2YcZParqesov29Zqz2UbdXotRjqfDRt9IbZ4s46so4dO74OgP0tejoJAL+l2Zq0hBtvrAjFt5AJGG9Az9VkrdDOLdTG7cq1X6KE4hcpOAcVW66Bd7dvpPwwlsrj3ddq27btEKj1AuszW7RoMQJ68KzoeLAZoXZ7ovPNRLv5kCm6AAryA6jwE6IpRe59M8ojHnYot1QqHvdUPOJLjPlFys/6Vc56fUqs3sOQ+AkZ/sLzDaPLzmmA84ZLrpWlVRfHHKVW2V9p1fuiZRD5nOlaSQLLkkBp06qrTbkYY0Q5nH7//fe3IZNuM/s50kvyeRI7OpOgEOYZAIxlSb7ZGyq1A9/72dkHumwSI4D6oQz7QNeFDUUGlDbBC6kLlXUrMaQ9jF2RBPERQHIThdafRTamtpkAFOoZAPwlUII74Hk4j3EIBsvN0MPjIzM4rfkjI7Ut34cBhuvi/c5kr/rxbNKOY6JeU/ZmPeT3V7zgq6CJ6/H/ZTkPo4ltdwX8X+NcfB+1Ft7UttCbTfFMz2QSyjYYe3rcH2OodSLmPSAiXJC7Vzzfvci+bgHgHEu8eyPO3Vd4cd2hogfimU6PeiYM1Y0xlk7gmRpjjO2E/CoQqx1HglsPsnoH0AHnh5VYa7VZoZVYK300SSBMAqUJjsXjEasEklirmwAejYnxXISVuxUgsoBYiCUAdwUDY3mUYE0os/Z872e7OxTSDKjUvip2qKZJUTuSTb45ECXYDupxLyizIqjUj0j26UgR+Wcopl+i1tI7QAmexVqXodh3AAwLkd37eHW9oKI/igRG5Lc9JRRX4PUcA0iuC4j84nQIYrQPk4wTBozKBu90dxJ7rieLcz9YhXJ4wmOInfYkmemFSGC0jhH5nY2x1BDacUvLFzCW3mW9/sRrB/H/YXFuanZ3xXi5jOkkx8EoVCVjeRpGzPMYaBpmYWCvl0cG9DEYS1doLGGolcFznEA8/e8wGC+swAhcEgj9/wSOUS9sus5alUBpgqMPWhwUVwog7dxC55smdP2/BO9gC8DqRzIsnyTZ4nHAKkzZsk4VvJxdiVs1p0TjUGIweVCck1mrt2OTsNjDajOlh01+wONpjXLf3bgfxfCDUUz3ECt7KRKspIhJ8DmOMpTWKkEVO7TZQDzGDoDVZ5F9WZFZHWKmV2HEHO/YJLyQmXjBL+Nh3UmC0bioE28dHmvtBth3wGiqR/1kOepahyG/B1nzqchp98QYHQV1CslfF3E2tsTzLaSMYhhZqq05f58TD14Z72q5InBQMXHglpz3wynnqUry1yTWeRbQ6hsJjL5TeIoHA4wtjDtrBHLWx9P2rht/voDxtDzvNIFg1EFO1/ljS0AL1Y4e2ZjjSJM0SioRvJA/6xmg9KbbTQVLfS5K/hnTykt6jZJ8zoQEwCozCgrvLd84Ct1OJmO93x1d1pDtfHM8Ey9GW8PIekU333zzYKZr/DW6c4tUKoDYFIAfm63NXEgd47+hjQ+IXssm4sRoX6IhwhxjjADiVADlvuhyA55pXWR1kCUudilywga1heD/yOMxOjYqyX6X9DPEaLcmxtgB0PjKRgzWuNodCWBpEH0urGOERv0H8vvJmlO8xW8A/qsj64J9bss1iCc2pFfqR5QKzcPLnk/p0Kdm3yLbFXbzsR9trpTDuH825jiPe0+9VUt6sNLnflMSCAWTlX0yU76ZsJBnp5KSKhUU05+x1JtCZZ1HnVo1km/mEbd6ASqwWy6tfGXvY2mfz8YY61lCQQu6unqMKMFpJEI8becbsjfDBiKbYINHcCweY0vif7Upm1C5fwIVeB+K5p1Ij9FG12T1noMX14xYWU2NC+jNQXg996Loh0WuRaLKDnqMxBgPhRashHc/C++0r+UukeUGyK+ymaKARmtkKMDnAZDjMJ56kTT1NlRqWDzYxBPkdj7yO4+92poEnDzOn4Oeu7NXgyLPBfLbCWr9EmO0xBurZDsv/ZNnewy6fUrEOfcavnt49EdLpfJu1eGMlOF9+hz59cbjfg4qf3WyopNHGbVR6TprVQKlCY5OCS/Li5lni6mSJC44HQJl0RDarBFJOJtB/82HBnyDMoDboLVGRknOiQ14slujLK7Fu90bQM5DyX5PQsczFFrfz1ph7ef01PBujkSxt2CtPW0zJjDyTN2dQI/xUBD1XNJmgPCJ0MNXUG5QQyoVenMgiv0eLH1jZPOi1rIlHIr2UsoATqSmsRIg/BPP9CY0p/HgsBiZ90v7tD31pgDG/fl7edawpVkvyzUigRHvfnNKJ46lBOUiPKqtHc3EM32EN9cBr/jdyBgjgL8BRllTWIrTiWtujFc2jRj3yxhmvSKB0bgztO1fSBi+hmbitZFfBViLsZz1nsQ1n2Kt71bzTKxUuGQ110q/niTwvy8BSzkAufsdc0MSw/AV0aoWWBNzaQEYTsaCtvPIPKjUpxzqGikNwYoZiQdw7SehlxaYLs+aU/r37989uvONa9kSzqnzZB5mppN07dr1Zajck1krtKVZtsD/Ess17OYjdXv77bf/GxDbM3rsFMq2Ls/xLDHZ2dKO9H6djPx6IdfQ9n14OJWhgveSSmXkWb50KqUHY0koOTd6uoZZ0fQUvZrs0PFk9Dr2rAD5DcHjOl6jI/IMWseovKjHnE4SViEMwhcYhddRO7ll5DpQqevZBJ3G9R9A2S7gvM8HgEfhEV9cEiq1+L1kadXxufZxWVp1fqJVI3csXWttSqA0PUebEy/Css/jRSy7vNo94lNb4SmexTijK6AEt+RFngdgDYSiuwRPa3Uon1/JGs+0AkX3e1FCcS9p7PVQiGUBrUkop6ccIBzZ+YZ6NcsN9gaEb8IL2dmsVOJxQ0jAuR0F80mkF2eMjB6Y5+AJX4wca9j5BiX4Fsr3TujNsXinmS4nEV9kiu5CTPFmvKv6AG9FqOjveK6nkWMvgHJUxBpZKrA8wHQYgNWG5ugHsXdlyByeyLnoQU3j05EJRVDC1THMLoMiboj8tkZ+eVDRH/J9F3MgTZTKdIaJ+LLzDckwF1KadBLrbgxVO6NNmzb3AFxPRCbfCIwaEYQnLuP81TL2jHc/kXfqQdZ6ejWp1AhRpGskCZSqBEoVHG2YLa3Kn+iXpSsYrXLKDM52OgS0z1Yopp+hfAbibV4XCYzuAok+OxBLugl6cx+A0XINJ6j3Jl3eGNnXUTtlVipe1IEkFV1F/Go36TmKrD8GhDtbxxgJjMYYoeVOhaK7SCqVTMp8koregErtjDIcHBkjAwxrOrHBGCNKvqJUNPE4syr7E0cdHSU/jKlKGDF7I7sW2UkoZQBfW8L1xyN+LBIYOQdbACKnc/7OwTDbmuxkOy85neQByzUigVF6mKHSpzDcuRHgtQHAOJWkqadgFJ6OBEYMiUqcv/qc88s5E7WQVz41mePPP//8B8mEfTYBY9RJTddJElgFCUirAkQ9SeW3YfenS+vwYYwRq/YiwPAb6VfSyX+GbuoNRbjdKiy53F9h1M6uxHfucyK8SSrQdDOJl3WOngrvoF3iVifeddddQ+x6gzJfRBPs951usCama+BdHUMG7DgblpvtyBzIISQX7Rk9FJlr7oQXcg8xuBnSjnja3zmfkb36c+Re2fmGvapLw/d3qMmc78QQG7JjAFwq9Rm5FgBfHQBuRmedcQ4qJgZcdMUVV3yEx18/uusLyTd1KEv6B2d9uqOe8Eq/JI56DWGD0NmjMBZVuf9jacI+FKNlEbHMuXxPgMo/Fip6lbN6s7TqhKXQqmkqR+ShTNf6/UtAcMTD6CnoYbEO02sr/tQoi22gl67Akp2sAiR+9SO06mPQr3+KlA4gsQ7dRvZDWQwAPBbZFo4+lRNI7rgxus2Yw4OJ8TQArEYIVHg780mdfxP6rHb0dA3XslyDcoPPbWlGIsciYnNvOM8wei2zUinX+CdA/1O2NGcyhs99awAY1yW5Zw9k9rbxRbxtp2sMsydsNFhB5W/NM3SEpv1WYISqLWDc1Ss0mzgczzW0pR77vwvNEfpikP3gdBJA/xvo22YmhUWedViYjTAiml177bWfETPNp3a2ABp1OCUcJ61sjHHJ+9K4FWSXAMcFxBwTOEZuYrrWWpNAqdKqxhyhi/Kg/sqbjp97aoByOxT7pYBnQzySLXmJf7To2XINqNSwBs62xbI2jvjiLdCB9bh2eajAKVC2D6Lon8SCnxW1E3ghVa25s1wD6mwXEhby8URGkCDTpkqVKmORRVjcSioa5doI+V2OMtweIC40nolXdzedb0LjmSj2HVHsd0BvHoaCXJ/2bLMBFLN67yNGG0ZFA/b2+jyExJTWyK+e3hUxxjHEaPuQNPVJJL0plcr5u4BnOouEqeoYcIVkpL7L+XuIfXsnkvaGHt6VzkFXQ9s2YN0qZIpOgUp9DJAZyLn4Nur8Ib+NAcFzMTibcCZqYBTKjowEiB9hz/4dRKUurWwjlXJEbWK6zlqVQKl3zDfmiCdTlsScH6QVeWkr2wQbEGlIrLE6nsj3KMCBeAkPo6TCpmtYx4jHswvlBs0obTiADMt1iCsaI3tMYOTvYS3hjDHisR1Cc/RLqZvcgzhfPpb7J9DJXUy+wUAIA0Y9KL1TKOImAMn2JNsUQtW9QYzsHuvwMADCyjVsCQf1Z1/Rw/C+18dD/Z4SilepmewSWcdoyQ+e3M4AVhNipwfiKa4LTTySko0+eHRPAZRhpSFmRdMwvD5gdR7nb2snoTDt4mMMphsAxoGRwGhjfNY6VcOCc7gRCUuTiWe+wHrdORdhXZ5kaYhnHoQBeDH7VZOzXo5WcJ9TxtPV9ofEUX8I0joJHIMEmS7zB5ZAtpTjAVP9UahjnDYAtbMxSSqdAcI52XKN2Sioq6LpJcVuuQZU4BvGGE07t1wDD6hLNJVquQYxxhOYtTcKD9i4aSH03HN6QbZwizwCUoEkjTTCy54gFQjIFxDbHACI7bQG1tqmW7duT9CdaLaN0fGspgH8t1NuED2o2Ibve0KlDkaRFxg7vfrqqz9yUDHnJZRiN6uXJJVbAcJM5xuebRF0+xD26sjoeDCguwm1hQ/jjc6Q9sag+Jazf+PqTKdZ2lky+QZ2pAHy+8TpLsZNKUcZRS/YM0raeGNFZxT6vIL3TeLaF8rNmH22S84C4qgP+K6v6Brp50kCvzUJlCatWoQHNRerP49sucrEkg6hC8jB1D6eStZjZV6wfCzbAZQCvBBJL7kBUFn74Fndjsd4sN1UoLImAY5PEQN8MJJKld5ECR1HacPV/FmHRJVCPLjBKJF+DtqNnJGIzKQ3b8RbPIzkii2gUvN4pjehU28lU3RsZOcbk28oQbkLj+dvJIysZ/ISBs6/zKqkJGVa1CEHQNZ1niUNxK8lq3I/5FUWMLFAvQvK932owDCK3XIhPKuWeMGn06t3a8eRkRTzLvRwV4yntyObMWCAVcOQuPGRRx45jn3bGBbhm3bt2t0NeP0fZz2MsQD81iXTtlG/fv2akuldh0zlPAy0iTAWj2BkvBSVqQzrU5G9WgcZlbeJhV9cW0bI7jsJGKNeiHSdtSqB0qRV7ZyxwPZxAFQ1mjhfi7I4hxjPpqSVzwdE3kbp9kCxhzWmVrImv1CvdgvfB9pYmRjcbDyFRwHIPiRDjI+Svp6G9BzKtg3e764o8kI8kaFQxHejeN+ESv05ai2zeonDNQQYGwDCsM9bLKTN3SBjZNDSQyOBETDcAcV+vcAIVbwe1/8REHmehJ8H6RwUNugZxVpOY8mMTdY6FOXr2KQJxMgeJ0Hrtcgm4lKpgMdpeI1nYVhkOt/gyb3P+evm2Cmo1LlRe6WHRYyxLYbMqXh0mxAvnXrppZc+ybM9Q+Z25KDictDPR2MENiNjuTb7Vo5ks/EYnH1Jcns8spuPXjC07X6wBhv4PmfzCHyvrWUO6/AUtQfpOkkCv3kJOD0B5WPWpgXwhdKbeB/fE+/pRlzkwGgqEGVet0ePHs+YpWe2KGtOQXncEz0o1jIJFNIReAMfW67BMxXeeuutg1DAJ0UPKrbzjQN8yTr80kxBPIJFeHVPo6z2RWmF0o5493XIPuzDbMQf7bJDgs9MqNVn+Pc9ow8bRszOyGwIALXAAcytWrUaQVlFS4Esci2zou3JCtU4USoar34h2ZzvOejXZtyRa9lEnCSpLhhjky1hwniZZANzzl/oM+kxQkUfQqbycAyyfIr68+lSZOebpiYbRT4T57kKsfSm7M9I3yn3SjlKr2IEzsNrTbRqpMDTtf4YEsCrutHYonVxtmlD2U6njrEPCr9GtASIMe5L/Ggw4FGgYicu9zXe423RCpB73wCP8XBq4z7FQrfNWNGNN944GC9oX2JkocpWoCXGeCHP8qXPRCr9wrvvvvt1vISdo+UHlVqLWOmTeNi/5Frqodjv5N93sYlD1HoASGU8nvodO3Z8G8Ve4MQLagtx6IafGj1dAzn92TOAYfENDEIRIFJoKzqo3PBJKBhm+xBj7I+H/Z1GIIODJ8IotImOMXK9ahhhl7Rt2/Yzn8c4NxnRo6FXG5rsFrVPXod9rwBb0RKae5xGrmVZAqTlPIIj1Lfg2C3FHCOlnq61tiRQmjHHPGsMzVYlTpVHYswPWLfP0XS7NyUAYY29FaQeI4kB9xC7OgDlW4Y1viEe9zh/9omkzCywtg6OWOb1xK12t9wABf8+GYgdHFQcmSkKKG0FhXo09Fwb4nHo223nEUt6+YgjjuhKgkwYPaf88K62x8NuT5H/ccTmKqP0ZrPWY4DxoySThGVVSkWTaFMfGrUtySn7SNFR3zqajj6dOR8DIqlUY4yUNTQH4M/EwNgKT85BxW+xXi/A//1IKhrPenf2qAle93Fk9W4A4E8GHJ1O0jOyNEmPkYzei1nrPLzhWu4dyW3jSZZ6HEr1NWL7YfQwFOpmAO5RdPNpSiikhlSqcUbfZ6ftGN/EGCyDAaeOSc3H15ZGT+uESaDUYo5mceK1retAXxIRfiGhY7ATB0xUCXs6LkSvz51JtGiLl7o/nVXKQPtMo1zjUUDLGNkXUWvh1egxHgUAX0dMaXfjLTzP+1jV95Ah+HokMFquQbzqBPqXXkPPz1qCCM/0EjKUpn4bJbgg6rkA4R3xDpoDjA3w6CqzP5a7vOyg50hgNHEDI2ZfvKkr+bavbR7g+xnUt+Uaz0YCo9TsqFGjToDWP5N60K1U5pSFfITB1B4QCUtUcQ+gN/egNKkp+3Qk52MDaPYpnImXYTCejQRGy4UA3iMA/PNYqyaZt1Kcn2PE9MCD7A1YzYw6E9ZMkoF9HEage7UDsfpFGGUzMWoz4ChIGrf17xjApaZjop43XSdJYK1KQAVPbPEuKTqU7XgU46H2zIy8CSzaY+67777XpBuz2YeT8bTCO3bYjQYq63Tov9G5Qbs33XTT26NHjz4yeniwvVLNQKQzzBi7+VCukQ8F+Rpgsg3yC80MxJioTUzx78TGfpC2JclnmjFHnnfTyH3SSJJ2tGwCoyUzMYQY1jDb7BGP2yRyLcpatsFYuo4uSF/YjQbgLaLMwUHFtoQLo4e9Z7NSjf+SXPYde2X29QTXtnFC5DOZEEOBfxOeYwRAWGTJBvHGkZyTczgTG0auZakTANyKln2jMJQWst6PTGB5C4+/Ffs2w3ijoRLj33zPhUq+N7p7UeTzpGslCfzmJOALA6XlHEFT5kdh6f6qfdzq3jBW+qH0Ef1ERWs8xCQI2oF1dljy6l67+O8LjPRFvYTau9HGx/CoCkgkedvOO9EJRY5hwotrQ4zsK8EezzSfCfRvORQ38pm8FiUGOxB/e44Y4xxr1tijqXjftwIuofFgaO6KNi3AiBlsOzj3i3itdXhnQsmFtmkzGYWEmE4YY5OMixmTow50MGelQTQw2lIPz74HyUs/ZHv1ToHqvBIg2zhyrzAs1gcEm15//fWfKzsTwC6//PKxJN9cHj2KjL3akCYM1/AujWedBTI+GJv9iNEeydncFsNwYq59nPLl3PxCzPHuBI6RO56utbYkUJqUh8OOK1oLZRcXqMCwzi3OXUQJ3oiVviexpTworOnWMeKV9KQ0JKylmQkxeBxHQmM1o6NPbWJ9Dir+DA/rXhTi0Mg6RkEY78DpEI2h6f6s1wNgDYRK7cgzhZWgZIFxe2Tn8OXD8XKkUn8mbvVPwLgnyVNh8WCHSqNYD3ZWIfL7i6U1ZC6PY68egop+Bdrxl6gXQWBEfmcgv0yM0ZgY9OYQJqF0wEAbEhlj5MxtSwZnE0afnQLwZ2KM9A/+J17qc9QEru7w4MUiMSGGrOgT2KfmnIkdMFw8fxOQ3yN2DoocRSYwQkUfY+cgwHhb9mYhZ+8jaO/2nMVPuKlFnPdMpydDCtY7anBEJmtFnYV0nSSBkkigVBNyuMHQDjE+MDGeXVC2F5H1ejAvtPHMWSj2FygJCG1plu18Ux/v4Dqs9F0B90KybYdA4T6FpzooMu6XbVh+DM/UinKG7YzpAIyDUO43kmX5UWSBupMtAKpmJFo0JMO2Cl1pZuEND8Kr6wughPX6NFED73QXYrTXs1/74mmVRbGPxbDopWKPLPA3eYRyl5Oh+FoQD94a6i8PULTm9D5o/Q8i15LitH9pnz59GpJhuyke1iQo3H7GaCnwn1ySl7IknxEYKXf6K890tYYZe7OIGOMkEn26Ib8naAkXFmN04gZ9gY8kKasVMcYdMQIX8D59ShZsRxLabN33E4aO5SiLaxoFyKw3XpoGeElEmT6TJPDbkoDp3Vi8vbNTHEZAy2y1undIucbeHTp0+DfxnYVO8iBL9GsSSTpHU1l6jNCmB0NvjszWMRZQQvGaCSXRbcYcm0TfzSuJ8YyX3gRA8hmE+woZkPusgeka2zPd/iUA8UfpbsBjJvK7H09o+9Xdm+K/733jcR/h2CmpQONkzZs3/xwq9RzbnUWuRUJRDej7Wy3dMb5tacMtt9zybrZcI1RxW69Ikko36lpnSy9iKE0FIE8RMCOfyck0UPlNW7Zs+RleaSHedj7e4ng8uvM4f/9pURP05VBkwP4qEns+55ksrZlDSc/LnInaxelSAZSz6Wcy7eP8Jk49j8YeXRKtGrQZ6TJrVQKl7TmGPSwe4669e/e+lzKA/VCw5VC635CU0INaw79HUlmAeKaOkfq4a1BQO9sSDrpxqPQc5QAjIr04gHEr6LKL8K4aQdNtS6LDfKisN+kScweZosMiaVv7shI/uhWD5W+sW5n6zFnE5v4OcD2OpxCZ1VuJrMpD8OBuIH61P56H7fvG4zH2xst/JZJeNysVxd44O6h4SyehwCIMxYuzp+/wyEkeMhZ4VQ05g6dxBiqzVzNoJtCFur93OH9h010EKxLNztSLo2xDL24RgP8FccBeeI6vs/bCqJcK5sXkrzOYa9qYNbfjfC/CyHiP0prr8EzHLUV+ZbIeY+YWsp5jaJJT1LOl6yQJrEgCvxVwXK0XyEHF1HY1heLcF6u6HN7oTF7gvk6gh24Ko7Kwjjd00K2eHMppb2J9BYDHMACrq70+I8FKa5sY2aEAyLkowW2liOnz6YDf220JF7kWYLgtdO0FgGMDZFkZr3s2tNlbpOffTa1mWK9P9mYdOvfsBQC3pw60rjEy2rSNABgflQqkXGP2ig5sSX/OtatDBTaAcjwNA2NLQRgPaxhr3YR38z4xsbD2fdCbewKMV7BXhwMm1chO/YIYY18MjOcAkbBes9DrG+DxHoBh1oyzYQJbEVTtN9QH3wtAvhDZ19bON87JJG7aDNq7BsA4T8MC2vY6zv2IpcRofYd/5YlbIrPkv5V0/9LnkgT+sBLI0qo9s7TqqFWhVQ3244Xsz3QNBxVnMvVIl/8WKrDT6g5vXXJjbAlHacax0H+jLKGgzdj8m2+++U08hrrR9Cb3XgXl1xDP7QvlA8gXkJU6iLX29z4iD41jp6DJnsB7y5RrAPTTAckexB5DB+2afON0FUpQPkR2RXYPuuqqqz6xNjRqOkROLnjB1QGQ2/GmJtmpxSzie++9dwjJMSdFd0RCfjUpb3kWw+VngKoIBuFrslKvsowjcp/sbkPc9KLrrrtupOUntmnjfIw1q9e6w8i1fHcAxGt4l8axzkL2ak6nTp3eIjlr32XtlS0YOUMTpa49R9KqeOrzab5hh5xQ+jryWdO1kgSWJYHS9hxXeY4hL3BZsucaUF5gE+x9nO6BEvyCOOBDeoxBw1szciP7tRpgdSLTNVpCpdYhCaaAuNynAGVj1v0arySSytrAQc94po1J9NmOkg2Tb94ipnQDiv7TyEQfwGoLYqV9oDj35xkrQkVPx+N2DNWDkck3KM71yKo8nK43VyLH3fXiAMjRgFcnFOh7UdMh3CuBkezhK6BSz0KOW2o04S2+S1blzSjswawV1iABL24vsqKvxxM+ApBcD8908pVXXunczFc4FzOi1A77tCm0+iWAbqbzjdQlTQvGYcj0gop+A487LAPWeCbya02iz/l4wdvQKOOXa6655nneqX6cvTHL2auMm+i9ZdxFGlPoOWa9xyhRpOskCaw1CZS2RbfK4Ejnm72hzG4wxkjWY1ms1elO15Cew4KfGiVBPKhNSfQ5ynINlG0daLJ8LORPWes+6KUJKKYwYDSZB/A9D4V7GWvVIKuyAFD8N17JA/St/DBy0C5U6jZ42LfwXHujfCs6VJps25cERkB4bJT88HgqkDy0L7T3lYDjgaxbgYSVsdCpjxGXGxhpxGSna5zhdA3KNTJUKs/0PuB4N88kFR0GjNZ7Ypyd4XQSmhWsB8hPw7B4ybFd0LZh7fv0uqA3TyZ2eiEAWcvSJLN6AcaHoW37RgIjWb1bYrw0wus+F490G873QpKyPsUQfJSzOJj/X9GIMLDwP4CY/RYpVytkEnUO03WSBP5nJCCtSvuuzLBj6JuRvJglnhZAjKcenVv+z04gFvgT45lGmUOP6OkaKiaURCMSKz63gbjDg6FwB0FvnRmdlWoGLNc9nVjVRDuMONQXKvD1bFZqaMNoAGo7irN7UJ4x2+kQDiom6aJ7dIG/MsK72p/ON+/RZafQwdIOKma81gVmN0YeVoER8GjGdI0vfSapVBq+f2AdpTV6kWtJmSKvXgDvLJttA/RTiHd3xfsObTABhVkRw28vZJZpYi+VyvkYgwF1kRM+Ip8JI2Y94s5Xcf2vDBtgZC7s0qXLm7xrh7PWCjOIzdQlO/eLXBMAM6vx1BeQrfpgajweuVPpWr97CQg8WPhdfZkEx5LGHJ1uQbu0IU40V9kSd/nGNnQl/f2SCtbYFIkcl5EuP8FyA6z1RYDVq3gLxzo/saTXKcnnzErFM7jGsVPGbA455JBFgP9rKMY9SvL7K/MZEmJ2Q36vQ2v+IuVIreRUgTG6pZmdb4gH/5W13nMkmW31mjVrNgJ69choYO8PxwAAJAhJREFUsGK6xrZ4wffizU8VrBzThBHzLvHM46LjXQIWNaDP0PnmJ+NqAOQkvNRLqNPcdmX2YUWftaQFEGxCLeEIn0fjjOzrcZzJS9fAM1UixtieTNRJAjCx+0U84xsAY/2SGoFLgqOlQLaXIx7bM4HjinY7/fy3KIFSjTnawcPYBArHThor7AtqjAcP8W5KG/6C9Z6HdTuFWkanQzwcWWBt2zIyHU8i7ncFcb8aXLuQ9P8PoJjuJN74MbGX+VGbaYE6Hs9FZDo2wnLfVk8YyuxtqNQudB4ZHrWO1wEAa5IgcRdU4CGAZAUyHGeRffgoivfxyEHP7M36TCc5Gmq4Jc+1n2tjXHwhFYjS/CCyiTje2las0xgW4iyaiG9m5xvOxNtk2t6DofFOZLmGWb02feC7PnWuVfDup9KqrSdeqo3RLYYP+bLAn3jf+dRMtgLga7JveXjeX+Dh92fN5yKfSW8XT/5kQOxSzvyWUM/51NQO4KzfRbxxSGRpUohw0kWSBNaSBEoVHFECZbGQM/VQK3rh8aJqoZSu5zsDjJQbWK7xJB6QLc2+ipKX2aCUaxxCok8b4nE7EhMrZI2hRx99dA8Ve2TcD2t7U+rHTmWti/EStnZ0F4r9dWi6zsR43otsaQY9u7PTNYgnHUS8tgLU7Q8AyNvETx8BGMNijO4De1UXA+Za5FcXr84SlHGUoDxpzWkkMNoggYbvZ9MztxFgsplTIfDoPrMEhUSmNyITfWy2TjJME9iO44nL/Qk2QcPiWc5G70hg9F2gmcQBvXr1akGseweMJ+n88bArxtMfJuYdVjOJEbiBzfExAptTirIldHQhyV9DAeH21NEOXcl3alljqVLMcSUFmT7+B5dAtvG4PUilVUctK+YogELP7QtN9gqezkI/D332JVRqx+gSAO5hQyz1I8k4/IwkBON+BXTceQsq8DCyY0ObYAuMeDqXXXrppV9JbwJS+d27d/8XCr9mZBNsJ3UAhrs89NBDT7PGXOVHko9N2LtaHxp5DC1pQaH/DSr1AxojFNmlqE2bNh/buSV6kofTNQDgW6AaJzmo2P2i3OVdPNYjos8FYFWP8pbegO4s94puMeNZu70JLJHy40xsRLnJyZRrDLMsSSqVsMFos7LZx6qRaxljBBCvh7b92vggADyf6RqvQg/vtirrGO+HwVnceLwYrdor0aqrItH0O39YCQiOeEz3qmxQAMtsHwdYHcYong95eQulHEm4GActeCOKKTShwwJ/vJAzL7vsstFkHBaRrLKQVmpvoOz3dShz5EYJjMQY2wGM3xabrjHYAvnIdbwW7dPqWKNGHHOBwIgHPCM7XWO7yLX0uKHlTmEiyTCna7BeESO8hmNY1CfGuEHkWtCM21Gc/gjF77OsqWO9QqZ6vEPW6BmRhoX3jMe9B/G31wDfhcbHyXz9Fm//dIvkI5/JWkWaS9zAWR9tPB2PtBDgGgvl3pT2c6GGGWvZOagDRuZ0k29gEQqQ53MYHKsEjMphOeDYO4Fj5ElJ11pbEihVWtWXxoGofBlz/K97QbHvTFZle0o26tlNxZE4eJl9oOceh4KMrCPbGIv9OGizFlCBtfFE8lFOHxEjuxML+EOnhkRtiMk8KLzzKde4lPWqQwnn4cm9TkzpQWit0VHreB08xtr2xYQKPBCqsxye3Hd4PU8T/+sTSUXjMWaSb1DubYib7uHaeBEjySLuhfJ9MzJuZW0mHncjnukEwLgqNGOeMVpiZLdBBb4fSUUT496PTj6X4WHtT3JKBc7fDGjvFwDkdyM77NimDXrzFPbqfM5GDWsFycQeB3j1gb14ivZzkdNJttUIBAwvIpGoGsbpXBiFTzh/nZHlqMjz53ud/Q6+bLpcksCal0CpgqNdU7DAM09ZPOYolYrHeAgNo1tQeH8gCjEPD2sa8ZCnicd1ilSAdqPB4ziehI6rGNNU26nmgMdHKKbbAZOBkVvgfEdA+BgmNthMoDqxKoHx3yj3mwBkC/zDaiYBxp2oK2yLcXEK9Gk5Mnu/B0AGEKdtHZlQBNiXwePdA5q7A2C/D7SwySO21OsGDf58JDBS47cFjbzPIEZ2MUk4VSkDygOAP6ErzW2wCgMj13K+KPHZazmD9fF+KwOMU8km/jsMxiP0Mw1rqQcw/okY9xGcv1bUgtYw+QbDYiyTPO4BIJ8hGSyspZ7ULMk35yC/JuzV5iTcFBKj/Zgs4vMxcL4lvr54qsbqnvtixf8p5ri6wky//8eSgLQqCqG77dGgx0biGWamo0uL2dibyQnvW+tn7AIA+YZEnI5mdkZKCbpqQ0DqYmKM42zJRcr8QuJWb1AuUk+AjlyLe7fLyeUo2C8sN5DmJMb4PMpw5+i1AMM6lmvgEWSoQLydb5F1R4yM0BgZynZdZHWAsT5jfsbJ6Br0KV7QUdExWstd8BY7clamWMco9U395Nusf2A0lWoskRhjXwyxuc7NhIqeyt61tFwh8kzYjQawakwdbYbK97xDpY7CszsjelAxZ70aBkwPyjWmW0dLT+AFZC7/i6zbIzVSV/e5aJZRPVfnaPjDkiRLOVgjxRxXV7jp90tFAqv9UqzOXaPUiizlwJMpQpmu58QB6+1oXXUnVFZdlFQe8aSvqcXrh6J/GCp1+uqsV/x3ibv8yQnwxN+uhM7aES+kEHD8CCBpC2B/Ekmlki6/OZ5OUzyRC1CyWxNTcrrGAJTuXSjfUCoL+dXAM7iDtQ7NUqmzKezujRx744VMiZKf8xiR3zH2EUWG++op8Dwj8e47o3wHRWb1ong3g+5uRS3j+VCqm2Aw5RF7tnNQRzzuoZFMgvKDQWhJAtMpxBsrQa9Pw6DpC/A/HdlE3LMOMDaCXm8hleq+UA86HsaiJx7jy5GDigVGQRgW5gxYEhrdVF1Epu0gPO5r8ILHRJwJk6CcM+o58J2WEYJ6LsPfl5XFGrFsukaSwBqTQKmCI0+V78sEnVNEL8pfzJSDCmxHUfpetv4iXjUFZfs4oPUw3sJXUVKwphIlcQSJPVdTVF2L2rh8FO0HDiqmhGIka4fFGC14xzs9ByV4ETWTW/GsxshehQ7shGX9YdQzeR3iYrvSJ7Ul4HikwIgn8j3PNUDFTplD2HQSPUYTVYgxtgYc6zkxBBAZg6f1CFT0S5HAqGHBXp3GmWiIgt/EOkZKDd7G8+6CETMksn2fzdahNi+B9j4HWnp9zt9UPK3HoYnvZ90ww0IgoYl8PfvnIr8axBQLKb6fSP/XfmSo9gdUwmKMeLtbYsQc6/kjkagqBmYBNbtD7TUbBYyePfZ8vu+sAGl5ln/Xo+fvpa1jIl+xdK0kgTUvgWwpR0dpP8Dia+idk5iFN0AaS9oHL2QynsJtFuRH3o1xP5TFEZQYjAAMHUg7n843L7H+Qf4sci1pYBI6mjdu3Hiy9LAtzTp37vwywLLKWYHLuj9ox+0pd3kNkFpgSz7qCr+jiLyHUzcin8leqSTfHERW6lCzUrNU6mfU/p1j/DZyLby4bfDiboBqnER8rMjMyrZt2w4FuOpGU9Fmn8JYPAJD8RMGkhmwM/BSm0SXoEiXkkh0Mp2XhktFm4WNUfGF47WiM2Cd5IEB0w4ve5KZysSAC2k0P4CzslPkPplkxp7U412a5jqGStwrzvwiDI2+vOsJICMFnq71+5ZAtn1cJ18mLPNFxF0mmi7vi4Uy/JyXumV0jJGYm+UapzMqabjT55lZON/YHAklu6AEQ4GR4vdt8II70G3kW+v9AKt5PXv2/AcKP1QxeUq45g7EaAfhYRcY76E0ZjK0aic9ychTBD23HnWE9YkxZuLBgiPx2hH2hLU3bORaJt8A7t1IIJouWOEBF1Cu8RY1f8dFxMiK3yuMxQ7EtHsgv58Ee5T8dM7JKdHnTxlhRJxPV50RrkMyTD4jvD6lf++peHh/ipSfwAgV3c4YrW0WbQkH+D+JsVQnch2vRULRfsQWH+Oc5/s+W16jgUsS3UJ6qz6SSjmiJZ6utzYkUKoWnbSL9AsvbHmU+fYoPb2rLynXsCXXM5ExRqzlDZhu0ADAugalsRse6nySIIbRG7OjcT+orLDYiH1ZKWk4j7UuwPvY0nIDaNSBeAh3s9bnkRsLAO6MIdGMNm0HAMhlSc2fDWX2NIr+Aco1vo5aC+q0HErwcCeh8Ex7WILDGp8yOulRFOEbyG9O1FqA1ZY0DmjEM50O8G4K/eeIpvdgEzSmBtriLGotGIMDoaKb0RThSGpaq2AwfU3c+WEU/AeR5w+grUzWawPozdacw9p4kHkYMmNZqwvy+z/OSJj8TBwiKao+Xltj5LgFseYCQPJNB2VzJkLLhey8xDm/kO/DecZyhg2kVmERbAvpOxUWooja83SdJIHftAQERmJ+HWwCQIKAEwcK8Q7Gk1XZLnp4q2tRQnGkHqMF1pRqzL/pppv+jZI6kLVCC/yNJ6HQz7GJc3a6gVmVA1HCf8WaD82ANUMQBfgYVOo8u5yg2GeRSNIPr2ub6M0nhrnz9ddfPxQvP0OlQksP1buyFCFyLT1GqNR2eL/TpNyhAotuu+22wXiMJ6Jwo6eT1CQr9SlAdy4A7KDiSQDyrdGDsm1WDm16KpTwcBuwZxvmj8HIaGzziUj5ce8bkuDTmiSsrz3rshac9UFrook9TEx1vPn+vLdTpPJ9j302WQX3DhbIYcep8XjkBqdr/f4lIK1Kavk9UjCOnqKu63MyVBtH03O8wFWNHUFljTbGw/cCqNSXoCJr2fA8UtJ2guEZWqPYJ1muAe1YcP/997vWzpHreC0s9lrE/QaRmDJPKpq47RSs9xujR0FxvXWypTWZ6Rp4i0Xt2rV7Hy/yQPYqFKyMMeJZ3YM3NZOC/kyXGPZqMM0g9oiOMVLgX4+9GQAgznESBfKbTHy4GWUwNSP3CgNmY8DqyhtuuGGUQC9gUe4y0rFnayDGWAnjsiuNHqYbu8eQmUf5S0+e9SC8utCzjrG3J40EuvHuzrJsw7Mh/W3HJwHSGDte/jzAMY2sijxQ6VprTQKlSqtKv5j2TSbqT7Tlehaa8+VIeg4qdRNe4r+hIJqj+GqT1LEQwPqAbMfboptt21cUevMykoiakAG7FUowH8X7Kv0474su18AL2JbszTugA6VSy+PJzcRT7e+0dui5sM5BeCHrAIL1KXW51qHSZhYDxsOhbe/HqPmYvZoXdVLJSq2GYXEp4HgOe7UJZyIPej3ThJ1M2zGRpTXQttuxVxewVwdhZKxDjet0Shv68eeTZI6GNfaWRcAwOxejpQmlPDtKRQNY4zl/ffHoXovssuPINkDYQdln4NFXw3Mzq3cwCUYPQqUOJ3wRFjaAcdmfZ7qCEp6/YrRsyPn7BePiK9rs1eGdK4tBZRmH2aqZ7/SVJPC/KIFQmm8lBeAkjgrGXlB+M0mQeZ50+bDOI94Lir0BscwboOnqoPQW0QzbsVMPQOW+t5L3utyPm+VKUsXZdh5BCW4DQEnRvQpddzfW86DItUz0YbpGa2rWjqQAvjzP8h2K/SlAq3tkuYv3TMPtfWmwfT1K8C/ZmtNhyO8hgP+lSGBEmW5sBifyu4BY7WbZ6STvE6e9C/kNplxjQZQM9axN9iLZ53RigOtAR88A7J/H8+keCYyWC0lFW9vKM+1INqcx2lF4xQ9hBD7KM4V1voGx2Mi+suS+tOAcVuPaRZyJgY5Y4536FGAM63xjsw7KTy6D9Tkcqntz4qazidtbWnMnZ2KGZT3ULVueZcwxz/c7fSUJJAmshATMYMOj6yUlSJG/UzlCu4/gfZzPBPURdh4hxjiHEoqXqPM6Prpcw+QRLPYmJDx8IZXEWgsfeOCB56ACd4umAkm+qQ0V+AQg/6NZqQDwdDIQext7XAnRr/CjeMFlAN66NF4fRE1cgTFGsiqHooAbkLEaGmNEflvhld6A/L6WlsPTKSTGOEiPP7rzjSUHZAw/CmhkaFuAagKGxtU2Ml+hUFbiA5Yf0ebuZEp4PmavFhqDc7oGHt2pFv+vxKVW+FGpWcCqLWGJSZ4J+g4XOJQbMN4r+vx5zii3epB3aoa5AjzbDBKZ7sP7rkfsvhp7N9EJKd6H8XbYhbkA9gPRw5lXKJT0gSSB/2UJZMHxYcGR9nAjbSgd8TxYruuimI4jIWGM5RpY63NIGngWZb8XXkNojAwvbis8g9scO6ViJzV/DmN/XiRutXvEsxS/BgpoRyY2vOnYKRUQnsFkMkdvoZg8NDXf2BQewaEYE//HWgWOnqImjxDZsBORbWjNKV7I5pRQdAKkplrHiGIvgpp70SbmrFUpUobQtlug2PtYx2icG8Piawyoi80sjlxHep1mD02MK2pUZOtAR8MoXB7dEs7OQVDebYkxTs2WaxRgLD1BadI+gGZojBEWYVfk9xBhiakm2+DVz7RMg/d2a40YjKaq/GyCsvXnvg+A5Fx6+3ZJ4Bh5wtK11pYESjXmyEPmAhIhgQmBkTq8Q7Bm25PCvhOxljnEeD4EtHrywg6PLAFAKWyMwruA2Ms5dG75M0kJ85zYAJj0IWtvXOQGoux2hN5sbbkGAF8RT2QWGYIvUkDeDw9oQuRaGBGHs9bVfB9odi0KbzhlFP1IvBgIVRbWuQWPcXPAqREJJGdDqW6OMs3Do3sXes6h0m9HtoQDhLei881FnIvjAN4qdKGZjPFkN5pnoBznRslPKhXv8Hgo2+Z42TvR9akQCno0QPyoXYqCW8JthNyOZq2Lma6xOaGJQuJ+b0IRt6N040vOesg7pWww9nbBu3cIwLH8vRpG51Ri6YOIBz/AWt/6GWKNfwKQy+Uajkunmk+Q2sdFna50nT+MBLKeY8+s5/gZYLNatCrJI068OBjv6n1e3kIyA+fcfPPNr+BFHhXthTiUVq8DKusrsw9J5JjfrVu3J6Gy6kRTWVxzOzL+upO5+YN0FcpvUv/+/bsCmOHNBACOunqMNkUnYaSA0pf3oIwvgjLbMPJgokg3g85sifeb8bilAsm8HUKiR/3oDFgNCwC4AzV+UwH4fP50UPYtztSMfCZ7zSK//ZDZh3ZC4gwupIHBCKj8Y/DGN4pcS3qYpK+LW7RoMcYSHtaaw1Du1ymDCaWHvWc87m169OjRFyNpphnYAOIUksG65gYF5J6L+OoOGBtfeD+eU9kNvMj5eI5dk+cYufvpWr97CWTB8aEIcITSqULnkVMp1xhGPKSQrM2faJP1mOnm0b0dUUDVUOxXMoH+S+MqxOTm0DHmpTVRW0iMsdZdd931NGv8YB0ZnsGXxGnbQ6eFUNC5Q4ZhUR6P+4BrrrlmCEpwkXQqg4rfI6FpHwyL0BgZwLg5yrUTDba/ERjxtO1SNIDkmMOjY4wmL3EOniXZZrbyI7Y9hrKUvwFWG0e+YOxHVajUxtQTfiC9aZyR5xuRNcxC5eeQbxiE6zAsvvDdwTCbB5Xax76wkc+U9Rh3I0bbh3dqpqAHlTqVpKnO3MN/nT+TqgDp8dKqgqP3xv7aIad7AsfonUnXWxsSKE1atTjts8rxEUDJTMcGzN1rQ1bqbrzEc6EbPyDB42as1/GRQsSK3pjMw6YA1MVkPFanPu4XGqO/DHh1pYj8m8i1iDHWoNTgBmJyxwIo69LSbArlGn2JofYmA3Fq5Fp4PH8hftmOsoP9TcEHHD+GCryPpIuhkeugwDcieeRi4rQNoR+3ALDySVR5GTDpgSIdFEml8ky7UhpyLjG5Q4nLbojn/S0GzSMo7U/Jhg3LFAUU1idD9EwyeltCs9dyRicU6hjKULohv3f5/7DON8hvUxiLc/HkmmPMbAFrMRdPbjAUexfORIbejPqyDhRqvTmsxfGc+w09f9De/6LRRA/k91/nTwAk2a2cTcelUy3T4tupHFG3lK6TJLBWJVCa4OiD5gCybPFhxyWVgN1FoK1OxJK+kthfHeJ+C6G0hmFV30wsbmJJr1OSz0n3EVs8nthLIxR7dcomFmFJv46y6GarsZJco6SfMfkGxeSIppMA/3UpZ5jJWq9ACd4dWQfq/dglCMOiHUCS6eAD+L7POo5Ner2k91uSzwHwm5LUczxxq4tpbbaFg3aR3bvEhLvjaQyKjAcDhjvSIrAJgH8qstwQ7+prjCXjfv+KBEY87oo8SwPO32XE/WrhqeYBVMMAxodY8zlKen4qiWxK8hk9RhKljoYSbgwYw3BuYUu9t2kq3gxg+qok1yjpZ2ijdwBGRVPo6GN4pg0xOH8AhF+1NITY5lJbEhpv5R0uaxmHX8YcbQ2ZwLGkUk+fSxLISiA77LiH9Auxmc+XRtUsT1gO0yXp5mw6j4wwKxXPoIjSg7egUveJFjKgUZG1zmSu33hLQ2hYUASV9cKScZeIdSkB2Yn45T9IIvpZKgvPdB6A0jW6c5D3Spxop06dOr2G51YoHWjpC/TmYTxvaEs9Bz1bG4eXOBFwynTZoSTlfeRXO0Jmxa9h60GMitvZo2ko8iKA6ju7FplFGrmWFDBgdQzn70PPn1mpAPBXUNGHRtPDloZgwNxMjPtLG3oTEy7ijHyCd3dY5FoCHIlStbn2M3iKc6RHXQsqtR9e6zbLWiuXrcq+TvQc+XuWymA0LiLmmDrkRB68dK21JoFS9RylYMxuw9rcGMu7KQk1g3lB52FtLrSPJpbnAjsF4FUUSrk5LikrmQrQm3VRgpc6j9HG3iineSThjDBZBm+oHhRPWV5ahykv4ncLlvJi56jcMqbYW//I1yKz61j7T94XXtp8a7uw1venG83xeCM1AKw8FMAcLPcvLeXAc9jM5yCT82furYhrecve5pKZuP5jmWz8Ra4p8//FvrW8K0OZ3UhMc39S58u7FvEy23NNROnuyVoLiz2T1dW53y9+YJakq13rV+txjQrce+2HH374bGjbQyzcRn4F0NHDlROew26ApNfMFY8vvqY/Xwr9uViW2XvKrVkOWW5E15bjoLwbkDHKo1TPcwo9GalfkixTgz23bnIh17SZeHF6fWlUe/F1cs9UDpl7Lspxb5U5Eyd07979dIyMqsqPRgxfklH5HUZTXZ5pPp9zHZ/HvVicXZlde1myK8fPy1v2wfko8EhCq+8Ki9CQvdpNDwlAsPvNJA0p4pr7s9ZCfqfQ/c7Jq/jfiz1r8T30mbynMhpDFu/zbthm8WQMpJOIYW6a7VI0H4ZkFPWZW5PIdghr/ZB9poxMsmcsdw5zZ6P4WfOeytjz1fv13POOlYVWrwltewpAvA+JYJUIS+RhOH0HyH2OB74Dmcw1YE3yaJYwx3fGe+T+Criv9ZDLesT+13fIsV96kJ4VZVz8cKa/Jwn8r0hglWN9q/uAvji8hB1btWp1lcoFRWYrsp95wfIBmkIUUTmBSrBxYoYvm7Vbdvrn5750VUgrX18qi5c1j7KNPNq0/cg7/yOfK+Q6FaR0VDDZ6xRXEr+6fa4lSHvdDPb4u96fqfh8VcKargotmMc9ZWgiSjXyUBw/c+2ZgHE5gZh7QM/kl/V+i138v+KqSyQnFFeM6quKPM9GeFSZqQZOo+CZVDQzWXs+cigkhqVscsDgUsWv4XpLBeUlPmdsaH1iSRn5+fwASB7W/jwMjen/0ZuZ+JGKbclnWFaJQO7fFythr8FerMufVTEy8qCIM3tFrDGPdebh5c3m2RZlW5v9ShYlPF+Z3zFDWNBg/8oZHwPc17FDi98wEwU8xyzW0ej6r3ssBlK5JZd8vtx9lfNMZmNq5bheZcCpks/lOn4BIhpztu9bVEzexQF9mWdw8Q94Du6zrElSvhfIqRyed1WAyWfLrKX8kKPnegb3sYDvjKHk2RKMsiBc/HmKn4vMv/O7mc9z1l3OpuEOJl6fs76+3XxypRi+V1Dgs/jsD+xl5tw5nJk/lUV5Zc99+o7mUb6yheBo6z/2Ng+jK5+GDv1hXC7xTJVwT9PHkgR+ExIoNc9RMCJWM1dlCcg5tqoSL1YlX0rBJ9d6SkDyxfPbv9u30S//399VgfjvWLZ5xJo24IX1O/MZf+bnVhT3cE3XM4nAr+y4nczvmmDh72c9yczPBBTutwq/V8W1/X2VVtZjXObGCkJ+r+jL6wDMmc/yTHkosE1d1+f1fla3JZe/n5vWbqs2n9vnwLuqhELb1r8rO39Wkvtd1vMoU799Ftfw/l3X/dbo4JkqafTk4lQrksvyfu51c/LNyc8/8U4Flc1cI7e/q7qOz8JeZH4990zuh+t6LvHuRcmQrFH3O7fPrqHsAKnMPmUNGj3MLXxGz6efzT2/f67ozPt7ykzWwD9lX3IxQn/Xs+//a9CQNb0J19zEf8v9XtagXPxeel/en9fz2/vnfZ7Pff3HlUxfSQL/YxIoNXBUTs4I1EtSaZFtl3mhtTxVZL6Yub/7WV9+lYQKWyXly5h7QYu/qMXBLAd6vvzLA5Qc8Pmna6uI/HxuDf8tB8yCYE6Z+6freT/eq3+uCExW9HOf28+ohO1n6nrEzjLy8N9UPKv75XP6jD4TnkJG4Xl91/J5/HdllqPIVnU99zMHiDmDJWdMuJ5GkErU71X9Ulbet2Dlc/jtGtCNmevmDBz/ze9V/cqdkRzIe233Qg/Js6Ln7TO5Z6v75TMJVrln8b7di9ycRNfL0pa/OqfF1/UsLu8rd9a979yX1/ffXcvnygGhf/reKWN/5jNmWZnFxqp76T74OTzqPLKPf+bcTuI5vvL1XV2ZpN9PEljbEihVcERxzYQ2nMzLvylKuYLeJBa41KQvWqGKTcrIXp9SOlmLNvOiScXJeUqb5rqBSPFIcfotvZlNKS/khTV2k4vR+evF4y8ZmTu+yt/z79KX3ouKwK4f/lgay+t4TelGi76LKUzjoa5njPO/KKzcelK12b8vuc/+jtqsUGqW62bWlz71d7j3Iqmr7HpSWIVZz2DJWF/u2XLXXxpVqdwyg2iVsc/Ehw0kuq4yljbLdDZZjie8ZGxwae5wUdbTkt52n/LZ43yvCbBI4Umbl0E5Fwn+xfZkuTp9CfktXjdrzCijQu4/E5t1T1wn651mgqXZiy8vnrm09TOf9yx4DrNnSbDwXOX7b1Ly7Fd5qOmMPJdYZ2lU91Kf03PIO1DBPfbbM+FeeZ59NvcsO81mMaXsGckaBpk98+xkjbDi+/KrPfKc+e21/GwWfPNZM3PWfedyAGs8ki9ju+qLsiZVeSa5lwKM2iKMtnKGPvAyy0KpzgUofyb56mPi5Y8RYx7m/axtxZbWSxJYXQmUWszRG4cyrEV6/wm8iJvwIlY2ASYb5yo0lqKSUbEKWsY3fMlM+efz6/K9Dv9vFo1xHsEi388aR+Hz5bPepMkTi39WTGEtCY6Z+Asvf4ZX5Tr+ngrJeGIm7ub1Xdt/517WMZbm51hf1M7PKqilWci5tX6VLFHsXnJgmvlTBcs6An7mmtl7ErUySjdLmeUU8LLidLl9zSXG5GKUi4vONCRUvFxXdypzXddyTddSltl7XJ5iXxKcfyVXrmWczvhtZgFkNd/ncm3l7XdOpksBlNzZ/lUiSRYcfxVzdY+9b0dsqdDxVn7IgokALTgXB3qfZ8lnc61lAeZiGQoOJrAIiJ5Hvtx7Y5oZI9P2hQDHj9lnye2raxXf4+W9s5kEFs+2Z6DYWfQdcG/8J8+iCWaZ+GLuvj2Dvg+58648sp/PrfcrgMqdLVE1+85kzrkxYP/0Hcq+b5n4Iv9fkW/fucz6rpV9JwRS6WRjo9g6Vb7jcz+T1T2YpKv3EjAub7vTz37LEihVcMy86Uv3pjIvssrIkg17evoirqogl/aCZtdd1Uv+1+8JLDlQLf7D6HUWI0Yxa3xNrREmnDVzocVnV+UuKBRbZk14Kkt9VzyjWZBfMra2Ju6huCSXlfi1KtJeJT2QNRRynPiv7meJ/ViVe0q/kySQJJAkkCSQJJAkkCSQJJAkkCSQJJAkkCSQJJAkkCSQJJAkkCSQJJAkkCSQJJAkkCSQJJAkkCSQJJAkkCSQJJAkkCSQJJAkkCSQJJAkkCSQJJAkkCSQJJAkkCSQJJAkkCSQJJAkkCSQJJAkkCSQJJAkkCSQJJAkkCSQJJAkkCSQJJAkkCSQJJAkkCSQJJAkkCSQJJAkkCSQJJAkkCSQJJAkkCSQJJAkkCSQJJAkkCSQJJAkkCSQJJAkkCSQJJAkkCSQJJAkkCSQJJAkkCSQJJAkkCSQJJAkkCSQJJAkkCSQJJAkkCSQJJAkkCSQJJAkkCSQJJAkkCSQJJAkkCSQJJAkkCSQJJAkkCSQJJAkkCSQJJAkkCSQJJAkkCSQJJAkkCSQJJAkkCSQJJAkkCSQJJAkkCSQJJAkkCSQJJAkkCSQJJAkkCSQJJAkkCSQJJAkkCSQJPAHkMD/A/neWeNlhD3BAAAAAElFTkSuQmCC;" vertex="1" parent="1">
          <mxGeometry x="147" y="216" width="551" height="664.87" as="geometry" />
        </mxCell>
        <mxCell id="mW8nno3XSru1MuvR3pbH-43" value="" style="verticalLabelPosition=bottom;verticalAlign=top;html=1;shape=mxgraph.basic.arc;startAngle=0.6178172379377097;endAngle=0.3668750612523435;rotation=0;" vertex="1" parent="1">
          <mxGeometry x="370" y="230" width="400" height="400" as="geometry" />
        </mxCell>
      </root>
    </mxGraphModel>
  </diagram>
</mxfile>
